Recursive-Mono Linear Medium Italic.ufo
<glyph name="exclam" format="2">
  <advance width="600.0"/>
  <unicode hex="0021"/>
  <outline>
    <contour>
      <point x="338.99011349535186" y="268.0660377358491" type="line"/>
      <point x="367.0978426484731" y="346.08490566037733"/>
      <point x="394.6265232644566" y="423.9811320754717"/>
      <point x="421.85689392695565" y="502.00000000000006" type="curve"/>
      <point x="468.28519678007075" y="689.0" type="line" smooth="yes"/>
      <point x="470.14514031339525" y="696.0"/>
      <point x="466.58397597121177" y="700.0"/>
      <point x="460.14529672592874" y="700.0" type="curve"/>
      <point x="410.9566174806457" y="700.0"/>
      <point x="376.8905797447967" y="700.0"/>
      <point x="345.1028438957401" y="700.0" type="curve"/>
      <point x="335.820697599117" y="662.0"/>
      <point x="326.9596591778896" y="627.0"/>
      <point x="317.81788217306513" y="590.0" type="curve" smooth="yes"/>
      <point x="295.814441096767" y="502.00000000000006" type="line"/>
      <point x="262.593059763217" y="282.7688679245283"/>
      <point x="261.1189249532048" y="274.62735849056605"/>
      <point x="263.6800892953321" y="270.62735849056605" type="curve" smooth="yes"/>
      <point x="264.9606714663958" y="268.62735849056605"/>
      <point x="267.25898141988023" y="268.0660377358491"/>
      <point x="271.25898141988023" y="268.0660377358491" type="curve"/>
    </contour>
    <component base="period"/>
  </outline>
</glyph>
<glyph name="quotedbl" format="2">
  <advance width="600.0"/>
  <unicode hex="0022"/>
  <outline>
    <contour>
      <point x="278.56132075471703" y="442.70283018867923" type="curve"/>
      <point x="366.98113207547175" y="737.0" type="line" smooth="yes"/>
      <point x="369.98113207547175" y="746.0"/>
      <point x="366.98113207547175" y="750.0"/>
      <point x="360.98113207547175" y="750.0" type="curve" smooth="yes"/>
      <point x="321.316037735849" y="750.0"/>
      <point x="284.86320754716985" y="750.0"/>
      <point x="236.0754716981132" y="750.0" type="curve"/>
      <point x="230.0754716981132" y="714.0"/>
      <point x="225.0754716981132" y="683.0"/>
      <point x="218.63679245283018" y="648.0" type="curve" smooth="yes"/>
      <point x="185.32075471698113" y="453.70283018867923" type="line" smooth="yes"/>
      <point x="184.32075471698113" y="446.70283018867923"/>
      <point x="187.4433962264151" y="442.70283018867923"/>
      <point x="193.8820754716981" y="442.70283018867923" type="curve" smooth="yes"/>
      <point x="223.10849056603774" y="442.70283018867923"/>
      <point x="250.33490566037736" y="442.70283018867923"/>
    </contour>
    <contour>
      <point x="512.1367924528302" y="442.70283018867923" type="curve"/>
      <point x="600.5566037735849" y="737.0" type="line" smooth="yes"/>
      <point x="603.5566037735849" y="746.0"/>
      <point x="600.5566037735849" y="750.0"/>
      <point x="594.5566037735849" y="750.0" type="curve" smooth="yes"/>
      <point x="554.8915094339624" y="750.0"/>
      <point x="519.0" y="750.0"/>
      <point x="470.2122641509434" y="750.0" type="curve"/>
      <point x="418.89622641509436" y="453.70283018867923" type="line"/>
      <point x="417.45754716981133" y="446.70283018867923"/>
      <point x="421.0188679245283" y="442.70283018867923"/>
      <point x="427.45754716981133" y="442.70283018867923" type="curve" smooth="yes"/>
      <point x="456.6839622641509" y="442.70283018867923"/>
      <point x="483.9103773584906" y="442.70283018867923"/>
    </contour>
  </outline>
</glyph>
<glyph name="numbersign" format="2">
  <advance width="600.0"/>
  <unicode hex="0023"/>
  <outline>
    <contour>
      <point x="329.9150943396226" y="720.0" type="curve"/>
      <point x="218.91509433962264" y="474.0"/>
      <point x="106.35377358490565" y="226.0"/>
      <point x="-5.768867924528312" y="-20.0" type="curve"/>
      <point x="19.58018867924528" y="-20.0"/>
      <point x="49.9811320754717" y="-20.0"/>
      <point x="75.3301886792453" y="-20.0" type="curve"/>
      <point x="82.3301886792453" y="-20.0"/>
      <point x="88.3301886792453" y="-19.0"/>
      <point x="92.3301886792453" y="-9.0" type="curve" smooth="yes"/>
      <point x="200.33018867924528" y="230.0"/>
      <point x="309.3301886792453" y="470.0"/>
      <point x="416.3301886792453" y="709.0" type="curve" smooth="yes"/>
      <point x="420.3301886792453" y="718.0"/>
      <point x="417.3301886792453" y="720.0"/>
      <point x="410.3301886792453" y="720.0" type="curve" smooth="yes"/>
      <point x="385.54245283018867" y="720.0"/>
      <point x="354.70283018867923" y="720.0"/>
    </contour>
    <contour>
      <point x="548.7924528301887" y="720.0" type="curve"/>
      <point x="437.79245283018867" y="474.0"/>
      <point x="325.2311320754717" y="226.0"/>
      <point x="213.10849056603774" y="-20.0" type="curve"/>
      <point x="237.3349056603774" y="-20.0"/>
      <point x="269.9811320754717" y="-20.0"/>
      <point x="294.20754716981133" y="-20.0" type="curve"/>
      <point x="301.20754716981133" y="-20.0"/>
      <point x="307.20754716981133" y="-19.0"/>
      <point x="311.20754716981133" y="-9.0" type="curve" smooth="yes"/>
      <point x="419.20754716981133" y="230.0"/>
      <point x="528.2075471698113" y="470.0"/>
      <point x="635.2075471698113" y="709.0" type="curve" smooth="yes"/>
      <point x="639.2075471698113" y="718.0"/>
      <point x="636.2075471698113" y="720.0"/>
      <point x="629.2075471698113" y="720.0" type="curve" smooth="yes"/>
      <point x="604.9811320754717" y="720.0"/>
      <point x="572.4575471698114" y="720.0"/>
    </contour>
    <contour>
      <point x="622.632075471698" y="441.5801886792453" type="line"/>
      <point x="626.1933962264151" y="454.5801886792453"/>
      <point x="638.1745283018868" y="502.31132075471703"/>
      <point x="641.1745283018868" y="515.3113207547169" type="curve" smooth="yes"/>
      <point x="642.1745283018868" y="518.3113207547169"/>
      <point x="641.7358490566038" y="521.3113207547169"/>
      <point x="640.1745283018868" y="523.3113207547169" type="curve" smooth="yes"/>
      <point x="638.7358490566038" y="525.3113207547169"/>
      <point x="636.1745283018868" y="526.3113207547169"/>
      <point x="633.1745283018868" y="526.3113207547169" type="curve"/>
      <point x="125.05188679245283" y="526.3113207547169" type="line"/>
      <point x="121.61320754716981" y="513.3113207547169"/>
      <point x="109.07075471698113" y="465.5801886792453"/>
      <point x="106.07075471698113" y="452.5801886792453" type="curve" smooth="yes"/>
      <point x="104.07075471698113" y="445.5801886792453"/>
      <point x="107.07075471698113" y="441.5801886792453"/>
      <point x="114.07075471698113" y="441.5801886792453" type="curve" smooth="yes"/>
    </contour>
    <contour>
      <point x="16.43867924528302" y="251.05188679245282" type="line"/>
      <point x="13.438679245283017" y="238.05188679245282"/>
      <point x="1.580188679245282" y="195.93396226415095"/>
      <point x="-1.419811320754718" y="182.93396226415095" type="curve" smooth="yes"/>
      <point x="-2.419811320754718" y="179.93396226415095"/>
      <point x="-1.9811320754716988" y="176.93396226415095"/>
      <point x="-0.41981132075471805" y="174.93396226415095" type="curve" smooth="yes"/>
      <point x="1.0188679245283012" y="172.93396226415095"/>
      <point x="3.580188679245282" y="171.93396226415095"/>
      <point x="6.580188679245282" y="171.93396226415095" type="curve"/>
      <point x="515.1415094339623" y="171.93396226415095" type="line"/>
      <point x="518.5801886792452" y="184.93396226415095"/>
      <point x="529.0" y="227.05188679245282"/>
      <point x="532.0" y="240.05188679245282" type="curve" smooth="yes"/>
      <point x="534.0" y="247.05188679245282"/>
      <point x="531.0" y="251.05188679245282"/>
      <point x="524.0" y="251.05188679245282" type="curve"/>
    </contour>
  </outline>
</glyph>
<glyph name="percent" format="2">
  <advance width="600.0"/>
  <unicode hex="0025"/>
  <outline>
    <contour>
      <point x="273.82547169811323" y="710.0" type="curve" smooth="yes"/>
      <point x="174.33490566037736" y="710.0"/>
      <point x="116.2122641509434" y="648.438679245283"/>
      <point x="94.89622641509435" y="564.1745283018868" type="curve" smooth="yes"/>
      <point x="80.08962264150944" y="504.0707547169811" type="line" smooth="yes"/>
      <point x="58.77358490566038" y="419.8066037735849"/>
      <point x="102.08962264150944" y="358.24528301886795"/>
      <point x="201.8254716981132" y="358.24528301886795" type="curve" smooth="yes"/>
      <point x="302.438679245283" y="358.24528301886795"/>
      <point x="363.12264150943395" y="419.8066037735849"/>
      <point x="384.438679245283" y="504.0707547169811" type="curve" smooth="yes"/>
      <point x="399.2452830188679" y="564.1745283018868" type="line" smooth="yes"/>
      <point x="419.2452830188679" y="645.8066037735848"/>
      <point x="381.438679245283" y="710.0"/>
    </contour>
    <contour>
      <point x="160.83962264150944" y="514.1745283018868" type="curve" smooth="yes"/>
      <point x="170.5943396226415" y="554.0707547169811" type="line" smooth="yes"/>
      <point x="184.78773584905662" y="609.4056603773585"/>
      <point x="216.24528301886792" y="637.7405660377358"/>
      <point x="265.2122641509434" y="637.7405660377358" type="curve" smooth="yes"/>
      <point x="289.0377358490566" y="637.7405660377358"/>
      <point x="304.4245283018868" y="631.9858490566038"/>
      <point x="314.1792452830189" y="619.3537735849056" type="curve" smooth="yes"/>
      <point x="324.372641509434" y="605.2830188679245"/>
      <point x="325.811320754717" y="583.4575471698113"/>
      <point x="317.933962264151" y="554.0707547169811" type="curve" smooth="yes"/>
      <point x="308.1792452830189" y="514.1745283018868" type="line" smooth="yes"/>
      <point x="294.54716981132077" y="458.83962264150944"/>
      <point x="262.6509433962264" y="430.5047169811321"/>
      <point x="213.68396226415095" y="430.5047169811321" type="curve" smooth="yes"/>
      <point x="190.29716981132074" y="430.5047169811321"/>
      <point x="174.91037735849056" y="436.25943396226415"/>
      <point x="165.1556603773585" y="448.89150943396226" type="curve" smooth="yes"/>
      <point x="154.96226415094338" y="462.9622641509434"/>
      <point x="153.52358490566039" y="484.3490566037736"/>
    </contour>
    <contour>
      <point x="432.87735849056605" y="341.75471698113205" type="curve" smooth="yes"/>
      <point x="338.438679245283" y="341.75471698113205"/>
      <point x="277.7547169811321" y="280.1933962264151"/>
      <point x="256.438679245283" y="195.92924528301887" type="curve" smooth="yes"/>
      <point x="241.63207547169813" y="135.8254716981132" type="line" smooth="yes"/>
      <point x="220.31603773584908" y="51.56132075471698"/>
      <point x="264.0707547169811" y="-9.56132075471698"/>
      <point x="364.0518867924528" y="-10.0" type="curve" smooth="yes"/>
      <point x="468.7877358490566" y="-10.43867924528302"/>
      <point x="524.6650943396226" y="51.56132075471698"/>
      <point x="545.9811320754717" y="135.8254716981132" type="curve" smooth="yes"/>
      <point x="560.7877358490566" y="195.92924528301887" type="line" smooth="yes"/>
      <point x="580.7877358490566" y="277.561320754717"/>
      <point x="541.8584905660377" y="341.75471698113205"/>
    </contour>
    <contour>
      <point x="322.9433962264151" y="145.92924528301887" type="curve" smooth="yes"/>
      <point x="332.6981132075472" y="185.8254716981132" type="line" smooth="yes"/>
      <point x="346.3301886792453" y="241.16037735849056"/>
      <point x="378.2264150943396" y="269.4952830188679"/>
      <point x="427.1933962264151" y="269.4952830188679" type="curve" smooth="yes"/>
      <point x="451.0188679245283" y="269.4952830188679"/>
      <point x="466.40566037735846" y="263.74056603773585"/>
      <point x="476.16037735849056" y="251.10849056603774" type="curve" smooth="yes"/>
      <point x="485.91509433962267" y="237.03773584905662"/>
      <point x="487.35377358490564" y="215.21226415094338"/>
      <point x="480.0377358490566" y="185.8254716981132" type="curve" smooth="yes"/>
      <point x="470.2830188679245" y="145.92924528301887" type="line" smooth="yes"/>
      <point x="456.08962264150944" y="90.59433962264151"/>
      <point x="424.6320754716981" y="62.259433962264154"/>
      <point x="375.6650943396226" y="62.259433962264154" type="curve" smooth="yes"/>
      <point x="352.27830188679246" y="62.259433962264154"/>
      <point x="336.89150943396226" y="68.01415094339623"/>
      <point x="327.1367924528302" y="80.64622641509433" type="curve" smooth="yes"/>
      <point x="316.5047169811321" y="94.71698113207547"/>
      <point x="315.066037735849" y="116.10377358490567"/>
    </contour>
    <component base="fraction"/>
  </outline>
</glyph>
<glyph name="quotesingle" format="2">
  <advance width="600.0"/>
  <unicode hex="0027"/>
  <outline>
    <contour>
      <point x="398.59433962264154" y="442.70283018867923" type="curve"/>
      <point x="486.5754716981132" y="737.0" type="line" smooth="yes"/>
      <point x="489.1367924528302" y="746.0"/>
      <point x="486.5754716981132" y="750.0"/>
      <point x="480.57547169811323" y="750.0" type="curve" smooth="yes"/>
      <point x="438.7877358490566" y="750.0"/>
      <point x="398.58018867924534" y="750.0"/>
      <point x="350.6179245283019" y="750.0" type="curve"/>
      <point x="344.61792452830196" y="714.0"/>
      <point x="338.61792452830196" y="682.122641509434"/>
      <point x="332.6179245283019" y="647.122641509434" type="curve" smooth="yes"/>
      <point x="301.05660377358487" y="453.70283018867923" type="line" smooth="yes"/>
      <point x="300.05660377358487" y="446.70283018867923"/>
      <point x="303.1792452830188" y="442.70283018867923"/>
      <point x="309.61792452830184" y="442.70283018867923" type="curve" smooth="yes"/>
      <point x="340.9669811320755" y="442.70283018867923"/>
      <point x="368.56132075471703" y="442.70283018867923"/>
    </contour>
  </outline>
</glyph>
<glyph name="asterisk" format="2">
  <advance width="600.0"/>
  <unicode hex="002A"/>
  <outline>
    <contour>
      <point x="413.08490566037733" y="536.0518867924528" type="curve" smooth="yes"/>
      <point x="379.73584905660374" y="535.6132075471698"/>
      <point x="344.50943396226415" y="535.6132075471698"/>
      <point x="311.16037735849056" y="535.6132075471698" type="curve"/>
      <point x="307.72169811320754" y="502.3160377358491"/>
      <point x="305.52830188679246" y="476.1933962264151"/>
      <point x="304.33490566037733" y="447.3867924528302" type="curve" smooth="yes"/>
      <point x="301.2641509433962" y="410.7358490566038"/>
      <point x="300.14150943396226" y="388.6132075471698"/>
      <point x="299.7547169811321" y="356.08490566037733" type="curve"/>
      <point x="282.26415094339626" y="346.83962264150944" type="line"/>
      <point x="246.43867924528303" y="391.52358490566036"/>
      <point x="224.92924528301887" y="413.4009433962264"/>
      <point x="174.85849056603774" y="460.64622641509436" type="curve" smooth="yes"/>
      <point x="170.85849056603774" y="464.20754716981133"/>
      <point x="165.85849056603774" y="463.20754716981133"/>
      <point x="159.29716981132077" y="456.64622641509436" type="curve" smooth="yes"/>
      <point x="136.31603773584905" y="427.9811320754717"/>
      <point x="118.5801886792453" y="407.683962264151"/>
      <point x="95.0377358490566" y="379.0188679245283" type="curve"/>
      <point x="161.47641509433964" y="347.63207547169816"/>
      <point x="200.40566037735852" y="330.75471698113205"/>
      <point x="254.9150943396226" y="309.24528301886795" type="curve"/>
      <point x="249.79245283018864" y="292.75471698113205" type="line"/>
      <point x="181.4056603773585" y="274.17452830188677"/>
      <point x="138.6509433962264" y="261.3490566037736"/>
      <point x="63.21226415094339" y="233.83962264150944" type="curve" smooth="yes"/>
      <point x="57.2122641509434" y="231.83962264150944"/>
      <point x="53.77358490566037" y="226.4009433962264"/>
      <point x="55.77358490566037" y="218.83962264150944" type="curve" smooth="yes"/>
      <point x="65.01886792452831" y="190.1745283018868"/>
      <point x="74.50943396226415" y="162.50943396226415"/>
      <point x="84.31603773584906" y="133.8443396226415" type="curve"/>
      <point x="159.26415094339623" y="180.28301886792454"/>
      <point x="198.77358490566033" y="208.16037735849056"/>
      <point x="261.2830188679245" y="255.4056603773585" type="curve"/>
      <point x="273.6509433962264" y="246.5990566037736" type="line"/>
      <point x="243.47641509433961" y="185.91509433962264"/>
      <point x="224.4764150943396" y="146.33490566037736"/>
      <point x="197.35377358490567" y="76.38679245283019" type="curve" smooth="yes"/>
      <point x="194.7924528301887" y="69.94811320754717"/>
      <point x="197.23113207547166" y="65.94811320754717"/>
      <point x="203.66981132075475" y="65.94811320754717" type="curve" smooth="yes"/>
      <point x="237.01886792452834" y="66.38679245283019"/>
      <point x="272.2452830188679" y="66.38679245283019"/>
      <point x="305.5943396226415" y="66.38679245283019" type="curve"/>
      <point x="309.0330188679245" y="99.68396226415095"/>
      <point x="311.22641509433964" y="120.87735849056604"/>
      <point x="312.9811320754717" y="154.61320754716982" type="curve" smooth="yes"/>
      <point x="315.7358490566038" y="183.24528301886792"/>
      <point x="315.7358490566038" y="205.56132075471697"/>
      <point x="315.24528301886795" y="246.5990566037736" type="curve"/>
      <point x="331.85849056603774" y="255.4056603773585" type="line"/>
      <point x="369.561320754717" y="210.16037735849056"/>
      <point x="394.3867924528302" y="185.4056603773585"/>
      <point x="441.89622641509436" y="141.28301886792454" type="curve" smooth="yes"/>
      <point x="446.45754716981133" y="137.16037735849056"/>
      <point x="452.0188679245283" y="138.16037735849056"/>
      <point x="457.5801886792452" y="144.72169811320754" type="curve" smooth="yes"/>
      <point x="480.561320754717" y="173.38679245283018"/>
      <point x="498.1745283018867" y="194.24528301886792"/>
      <point x="521.1556603773586" y="222.91037735849056" type="curve"/>
      <point x="452.03301886792457" y="253.73584905660377"/>
      <point x="423.59433962264154" y="268.6132075471698"/>
      <point x="363.83962264150944" y="292.75471698113205" type="curve"/>
      <point x="368.9622641509434" y="309.24528301886795" type="line"/>
      <point x="428.8584905660377" y="324.0707547169811"/>
      <point x="474.54245283018867" y="335.3867924528302"/>
      <point x="551.6650943396227" y="363.89622641509436" type="curve" smooth="yes"/>
      <point x="558.2264150943396" y="365.89622641509436"/>
      <point x="561.7877358490566" y="371.89622641509436"/>
      <point x="559.7877358490566" y="378.0188679245283" type="curve" smooth="yes"/>
      <point x="550.4198113207547" y="406.6839622641509"/>
      <point x="540.4905660377359" y="434.7877358490566"/>
      <point x="531.122641509434" y="463.45283018867923" type="curve"/>
      <point x="448.3160377358491" y="411.4009433962264"/>
      <point x="411.4198113207547" y="388.7688679245283"/>
      <point x="355.59433962264154" y="346.83962264150944" type="curve"/>
      <point x="343.22641509433964" y="356.08490566037733" type="line"/>
      <point x="372.7169811320755" y="410.1556603773585"/>
      <point x="389.27830188679246" y="444.4198113207547"/>
      <point x="419.4009433962264" y="525.6132075471698" type="curve" smooth="yes"/>
      <point x="421.9622641509434" y="532.0518867924528"/>
      <point x="419.52358490566036" y="536.0518867924528"/>
    </contour>
  </outline>
</glyph>
<glyph name="comma" format="2">
  <advance width="600.0"/>
  <unicode hex="002C"/>
  <outline>
    <contour>
      <point x="163.18867924528303" y="-200.0" type="curve" smooth="yes"/>
      <point x="168.188679245283" y="-200.0"/>
      <point x="171.62735849056602" y="-199.0"/>
      <point x="175.188679245283" y="-192.0" type="curve" smooth="yes"/>
      <point x="241.433962264151" y="-73.33490566037736"/>
      <point x="314.9764150943396" y="58.995283018867916"/>
      <point x="373.9245283018868" y="163.5047169811321" type="curve" smooth="yes"/>
      <point x="378.9245283018868" y="172.50471698113208"/>
      <point x="377.36320754716985" y="178.06603773584905"/>
      <point x="369.36320754716985" y="178.06603773584905" type="curve" smooth="yes"/>
      <point x="314.1556603773585" y="178.06603773584905"/>
      <point x="281.8066037735849" y="178.06603773584905"/>
      <point x="217.23113207547166" y="178.06603773584905" type="curve"/>
      <point x="165.98584905660377" y="52.962264150943405"/>
      <point x="113.74056603773587" y="-74.45754716981132"/>
      <point x="63.05660377358492" y="-200.0" type="curve"/>
      <point x="89.65094339622642" y="-200.0"/>
      <point x="119.49056603773585" y="-200.0"/>
    </contour>
  </outline>
</glyph>
<glyph name="period" format="2">
  <advance width="600.0"/>
  <unicode hex="002E"/>
  <outline>
    <contour>
      <point x="314.08490566037733" y="-7.806603773584905" type="curve"/>
      <point x="352.311320754717" y="146.09905660377356" type="line" smooth="yes"/>
      <point x="354.311320754717" y="153.09905660377356"/>
      <point x="351.311320754717" y="157.09905660377356"/>
      <point x="344.311320754717" y="157.09905660377356" type="curve" smooth="yes"/>
      <point x="295.7877358490566" y="157.09905660377356"/>
      <point x="237.1745283018868" y="157.09905660377356"/>
      <point x="188.6509433962264" y="157.09905660377356" type="curve"/>
      <point x="150.4245283018868" y="3.1933962264150937" type="line" smooth="yes"/>
      <point x="148.4245283018868" y="-3.806603773584906"/>
      <point x="151.4245283018868" y="-7.806603773584905"/>
      <point x="158.4245283018868" y="-7.806603773584905" type="curve" smooth="yes"/>
      <point x="206.94811320754718" y="-7.806603773584905"/>
      <point x="265.561320754717" y="-7.806603773584905"/>
    </contour>
  </outline>
</glyph>
<glyph name="slash" format="2">
  <advance width="600.0"/>
  <unicode hex="002F"/>
  <outline>
    <contour>
      <point x="661.6462264150944" y="750.0" type="curve"/>
      <point x="626.1226415094341" y="750.0"/>
      <point x="587.6698113207548" y="750.0"/>
      <point x="552.1462264150944" y="750.0" type="curve" smooth="yes"/>
      <point x="546.1462264150944" y="750.0"/>
      <point x="541.1462264150942" y="748.0"/>
      <point x="538.1462264150942" y="743.0" type="curve" smooth="yes"/>
      <point x="374.51415094339626" y="489.0"/>
      <point x="210.32075471698113" y="233.0"/>
      <point x="47.68867924528301" y="-21.0" type="curve" smooth="yes"/>
      <point x="24.688679245283012" y="-57.0"/>
      <point x="0.2499999999999991" y="-94.0"/>
      <point x="-23.188679245283012" y="-130.0" type="curve"/>
      <point x="12.773584905660371" y="-130.0"/>
      <point x="49.78773584905661" y="-130.0"/>
      <point x="85.311320754717" y="-130.0" type="curve" smooth="yes"/>
      <point x="91.311320754717" y="-130.0"/>
      <point x="98.311320754717" y="-127.0"/>
      <point x="103.31132075471699" y="-119.0" type="curve"/>
      <point x="289.9433962264151" y="170.0"/>
      <point x="475.0141509433962" y="461.0"/>
    </contour>
  </outline>
</glyph>
<glyph name="zero" format="2">
  <advance width="600.0"/>
  <unicode hex="0030"/>
  <outline>
    <contour>
      <point x="399.0707547169811" y="720.0" type="curve" smooth="yes"/>
      <point x="257.12264150943395" y="720.0"/>
      <point x="152.8443396226415" y="634.245283018868"/>
      <point x="108.65094339622642" y="457.91037735849056" type="curve" smooth="yes"/>
      <point x="60.65094339622642" y="265.66509433962267" type="line" smooth="yes"/>
      <point x="16.405660377358494" y="88.87735849056604"/>
      <point x="93.1556603773585" y="-20.0"/>
      <point x="236.17452830188677" y="-20.0" type="curve" smooth="yes"/>
      <point x="368.3490566037736" y="-20.0"/>
      <point x="484.0330188679245" y="56.05188679245283"/>
      <point x="530.4198113207547" y="240.4056603773585" type="curve" smooth="yes"/>
      <point x="578.9811320754717" y="433.77358490566036" type="line" smooth="yes"/>
      <point x="623.6650943396227" y="613.316037735849"/>
      <point x="546.1603773584906" y="720.0"/>
    </contour>
    <contour>
      <point x="383.77358490566036" y="626.6037735849056" type="curve" smooth="yes"/>
      <point x="420.9339622641509" y="626.6037735849056"/>
      <point x="448.4622641509434" y="619.0943396226415"/>
      <point x="467.53301886792457" y="596.9528301886793" type="curve" smooth="yes"/>
      <point x="490.04245283018867" y="570.0566037735849"/>
      <point x="495.41037735849056" y="521.6509433962265"/>
      <point x="474.41037735849056" y="437.89622641509436" type="curve" smooth="yes"/>
      <point x="425.5330188679245" y="245.26415094339623" type="line" smooth="yes"/>
      <point x="393.5141509433962" y="118.94339622641509"/>
      <point x="322.70283018867923" y="73.39622641509435"/>
      <point x="249.91037735849056" y="73.39622641509435" type="curve" smooth="yes"/>
      <point x="202.41509433962264" y="73.39622641509435"/>
      <point x="175.76415094339623" y="88.04716981132076"/>
      <point x="162.20283018867926" y="124.22641509433963" type="curve" smooth="yes"/>
      <point x="149.8349056603774" y="149.68396226415092"/>
      <point x="148.41509433962264" y="192.50943396226415"/>
      <point x="165.3443396226415" y="262.10377358490564" type="curve" smooth="yes"/>
      <point x="213.66037735849056" y="454.7358490566038" type="line" smooth="yes"/>
      <point x="243.80188679245282" y="576.0566037735849"/>
      <point x="304.54245283018867" y="626.6037735849056"/>
    </contour>
    <contour>
      <point x="514.9339622641509" y="549.7783018867924" type="line"/>
      <point x="427.52830188679246" y="479.47641509433964"/>
      <point x="339.8066037735849" y="409.29716981132077"/>
      <point x="272.7311320754717" y="352.58962264150944" type="curve" smooth="yes"/>
      <point x="219.64150943396228" y="308.67452830188677"/>
      <point x="193.00943396226415" y="282.6037735849057"/>
      <point x="161.18396226415095" y="231.72641509433964" type="curve"/>
      <point x="200.061320754717" y="266.0235849056604" type="line"/>
      <point x="127.20283018867927" y="266.0235849056604" type="line"/>
      <point x="119.08490566037736" y="150.43396226415095" type="line"/>
      <point x="208.73584905660377" y="222.41981132075472"/>
      <point x="298.9481132075472" y="294.4056603773585"/>
      <point x="364.33962264150944" y="350.1132075471698" type="curve" smooth="yes"/>
      <point x="404.2877358490566" y="382.1320754716981"/>
      <point x="444.377358490566" y="417.0990566037736"/>
      <point x="475.2735849056604" y="470.6792452830189" type="curve"/>
      <point x="434.00943396226415" y="440.60849056603774" type="line"/>
      <point x="500.1650943396225" y="440.60849056603774" type="line"/>
    </contour>
  </outline>
</glyph>
<glyph name="four" format="2">
  <advance width="600.0"/>
  <unicode hex="0034"/>
  <outline>
    <contour>
      <point x="443.3066037735849" y="700.0" type="curve" smooth="yes"/>
      <point x="437.7452830188679" y="700.0"/>
      <point x="430.99056603773585" y="699.4386792452831"/>
      <point x="423.4292452830189" y="690.877358490566" type="curve" smooth="yes"/>
      <point x="317.2877358490566" y="574.9622641509435"/>
      <point x="38.54245283018868" y="253.64150943396226"/>
      <point x="37.54245283018868" y="251.64150943396226" type="curve" smooth="yes"/>
      <point x="17.754716981132077" y="171.1745283018868" type="line"/>
      <point x="15.193396226415093" y="162.49056603773585"/>
      <point x="19.316037735849058" y="157.3679245283019"/>
      <point x="28.56132075471698" y="157.3679245283019" type="curve" smooth="yes"/>
      <point x="528.1745283018868" y="157.3679245283019" type="line"/>
      <point x="531.1745283018868" y="169.36792452830187"/>
      <point x="541.0330188679245" y="208.9245283018868"/>
      <point x="547.9622641509434" y="236.64150943396226" type="curve" smooth="yes"/>
      <point x="549.5235849056604" y="244.88679245283018"/>
      <point x="545.5235849056604" y="249.88679245283018"/>
      <point x="536.7169811320755" y="249.88679245283018" type="curve"/>
      <point x="329.8018867924528" y="249.88679245283018" type="line" smooth="yes"/>
      <point x="228.97641509433964" y="249.88679245283018"/>
      <point x="176.27358490566036" y="246.0801886792453"/>
      <point x="108.44811320754717" y="224.7311320754717" type="curve"/>
      <point x="144.42924528301887" y="209.04716981132077" type="line"/>
      <point x="162.48113207547172" y="279.938679245283" type="line"/>
      <point x="128.42924528301887" y="224.83490566037736" type="line"/>
      <point x="284.0990566037736" y="392.5047169811321"/>
      <point x="417.311320754717" y="538.5943396226415"/>
      <point x="550.2264150943396" y="683.5094339622641" type="curve"/>
      <point x="554.3490566037735" y="700.0" type="line"/>
      <point x="518.5801886792453" y="700.0"/>
      <point x="479.0754716981132" y="700.0"/>
    </contour>
    <contour>
      <point x="427.16037735849056" y="395.61320754716985" type="curve"/>
      <point x="418.21226415094344" y="364.9952830188679"/>
      <point x="378.4433962264151" y="267.10377358490564"/>
      <point x="369.0566037735849" y="235.9245283018868" type="curve" smooth="yes"/>
      <point x="360.7924528301887" y="200.99056603773585"/>
      <point x="332.44339622641513" y="88.03301886792454"/>
      <point x="313.6367924528302" y="13.806603773584905" type="curve" smooth="yes"/>
      <point x="311.51415094339626" y="5.0"/>
      <point x="315.07547169811323" y="0.0"/>
      <point x="322.75943396226415" y="0.0" type="curve" smooth="yes"/>
      <point x="334.63679245283015" y="0.0"/>
      <point x="401.0141509433962" y="0.0"/>
      <point x="414.0141509433962" y="0.0" type="curve"/>
      <point x="417.45283018867923" y="12.877358490566039"/>
      <point x="431.3301886792453" y="64.19339622641509"/>
      <point x="439.89150943396226" y="98.87735849056604" type="curve" smooth="yes"/>
      <point x="510.45283018867923" y="380.683962264151" type="line"/>
      <point x="513.0141509433962" y="390.49056603773585"/>
      <point x="507.7688679245283" y="395.61320754716985"/>
      <point x="498.52358490566036" y="395.61320754716985" type="curve"/>
      <point x="487.2075471698113" y="395.61320754716985"/>
      <point x="439.5990566037736" y="395.61320754716985"/>
    </contour>
  </outline>
</glyph>
<glyph name="eight" format="2">
  <advance width="600.0"/>
  <unicode hex="0038"/>
  <outline>
    <contour>
      <point x="410.24528301886795" y="720.0" type="curve" smooth="yes"/>
      <point x="265.75471698113205" y="720.0"/>
      <point x="169.38679245283018" y="645.877358490566"/>
      <point x="143.26415094339623" y="545.1933962264151" type="curve" smooth="yes"/>
      <point x="137.45754716981133" y="523.0896226415094" type="line" smooth="yes"/>
      <point x="113.77358490566039" y="431.7216981132076"/>
      <point x="141.1603773584906" y="370.2830188679245"/>
      <point x="258.35377358490564" y="321.8443396226415" type="curve" smooth="yes"/>
      <point x="353.7547169811321" y="282.54716981132077" type="line" smooth="yes"/>
      <point x="419.3207547169811" y="255.45754716981133"/>
      <point x="429.77830188679246" y="215.0"/>
      <point x="417.95283018867923" y="166.5754716981132" type="curve" smooth="yes"/>
      <point x="403.5660377358491" y="109.58962264150944"/>
      <point x="348.0188679245283" y="72.27358490566039"/>
      <point x="253.85849056603774" y="72.27358490566039" type="curve" smooth="yes"/>
      <point x="146.99528301886792" y="72.27358490566039"/>
      <point x="119.88679245283019" y="121.83490566037736"/>
      <point x="135.9056603773585" y="183.1556603773585" type="curve" smooth="yes"/>
      <point x="150.9245283018868" y="239.47641509433964"/>
      <point x="212.92924528301887" y="293.47641509433964"/>
      <point x="321.12264150943395" y="313.16037735849056" type="curve"/>
      <point x="215.4245283018868" y="353.8962264150943" type="line"/>
      <point x="203.8632075471698" y="305.5990566037736" type="line"/>
      <point x="244.61792452830187" y="333.16037735849056" type="line"/>
      <point x="126.42452830188681" y="320.5990566037736"/>
      <point x="54.89622641509434" y="260.6320754716981"/>
      <point x="35.58018867924528" y="184.49056603773585" type="curve" smooth="yes"/>
      <point x="29.89622641509434" y="161.75471698113208" type="line" smooth="yes"/>
      <point x="3.773584905660376" y="57.14150943396227"/>
      <point x="78.85849056603774" y="-20.0"/>
      <point x="238.1933962264151" y="-20.0" type="curve" smooth="yes"/>
      <point x="406.36320754716985" y="-20.0"/>
      <point x="488.2264150943396" y="47.89150943396227"/>
      <point x="512.5424528301886" y="145.54245283018867" type="curve" smooth="yes"/>
      <point x="518.6650943396226" y="169.91037735849056" type="line"/>
      <point x="541.1556603773585" y="259.25943396226415"/>
      <point x="502.7688679245283" y="320.08490566037733"/>
      <point x="400.4528301886793" y="361.4009433962264" type="curve" smooth="yes"/>
      <point x="301.7169811320755" y="401.0849056603774" type="line" smooth="yes"/>
      <point x="237.97641509433964" y="426.8584905660377"/>
      <point x="221.78301886792454" y="460.0707547169811"/>
      <point x="236.41509433962264" y="521.2311320754717" type="curve" smooth="yes"/>
      <point x="253.9245283018868" y="587.1981132075472"/>
      <point x="309.5943396226415" y="627.2877358490566"/>
      <point x="388.26415094339626" y="627.7264150943397" type="curve" smooth="yes"/>
      <point x="436.5660377358491" y="628.1650943396227"/>
      <point x="464.4622641509434" y="616.0943396226415"/>
      <point x="480.2877358490566" y="595.3915094339623" type="curve" smooth="yes"/>
      <point x="493.2358490566038" y="578.566037735849"/>
      <point x="497.11320754716985" y="548.3537735849056"/>
      <point x="488.35849056603774" y="515.6509433962264" type="curve" smooth="yes"/>
      <point x="485.9198113207547" y="506.33490566037733" type="line" smooth="yes"/>
      <point x="472.2169811320755" y="450.10377358490564"/>
      <point x="423.47641509433964" y="402.5943396226415"/>
      <point x="318.9292452830189" y="375.89150943396226" type="curve"/>
      <point x="419.5754716981132" y="333.1556603773585" type="line"/>
      <point x="433.3820754716981" y="387.5754716981132" type="line"/>
      <point x="396.11792452830184" y="360.01415094339626" type="line"/>
      <point x="497.27830188679246" y="376.7688679245283"/>
      <point x="567.122641509434" y="426.4198113207547"/>
      <point x="587.316037735849" y="506.5801886792453" type="curve" smooth="yes"/>
      <point x="593.5613207547169" y="530.877358490566" type="line" smooth="yes"/>
      <point x="619.2452830188679" y="637.122641509434"/>
      <point x="555.9481132075472" y="720.0"/>
    </contour>
  </outline>
</glyph>
<glyph name="equal" format="2">
  <advance width="600.0"/>
  <unicode hex="003D"/>
  <outline>
    <contour>
      <point x="120.1933962264151" y="478.0660377358491" type="line"/>
      <point x="111.70283018867926" y="446.54245283018867"/>
      <point x="105.89622641509435" y="421.19339622641513"/>
      <point x="97.84433962264151" y="389.6698113207547" type="curve" smooth="yes"/>
      <point x="95.84433962264151" y="382.6698113207547"/>
      <point x="98.28301886792454" y="378.6698113207547"/>
      <point x="105.84433962264151" y="378.6698113207547" type="curve"/>
      <point x="560.2452830188679" y="378.6698113207547" type="line"/>
      <point x="568.2971698113207" y="410.19339622641513"/>
      <point x="575.1037735849056" y="435.54245283018867"/>
      <point x="582.5943396226415" y="467.0660377358491" type="curve" smooth="yes"/>
      <point x="584.5943396226415" y="474.0660377358491"/>
      <point x="582.1556603773585" y="478.0660377358491"/>
      <point x="574.5943396226415" y="478.0660377358491" type="curve" smooth="yes"/>
    </contour>
    <contour>
      <point x="56.07075471698114" y="222.45283018867926" type="line"/>
      <point x="48.01886792452831" y="190.92924528301887"/>
      <point x="41.212264150943405" y="165.58018867924528"/>
      <point x="33.72169811320755" y="134.0566037735849" type="curve" smooth="yes"/>
      <point x="31.72169811320755" y="127.0566037735849"/>
      <point x="34.16037735849057" y="123.0566037735849"/>
      <point x="41.72169811320755" y="123.0566037735849" type="curve"/>
      <point x="496.12264150943395" y="123.0566037735849" type="line"/>
      <point x="504.6132075471698" y="154.58018867924528"/>
      <point x="510.4198113207547" y="179.92924528301887"/>
      <point x="518.4716981132076" y="211.45283018867926" type="curve" smooth="yes"/>
      <point x="520.4716981132076" y="218.45283018867926"/>
      <point x="518.0330188679245" y="222.45283018867926"/>
      <point x="510.47169811320754" y="222.45283018867926" type="curve" smooth="yes"/>
    </contour>
  </outline>
</glyph>
<glyph name="A" format="2">
  <advance width="600.0"/>
  <unicode hex="0041"/>
  <anchor x="504.7028301886793" y="0.0" name="ogonek"/>
  <anchor x="410.764830634051" y="711.0" name="top"/>
  <anchor x="407.90473068819296" y="700.0" name="ring"/>
  <anchor x="232.62728882786604" y="-1.0" name="bottom"/>
  <anchor x="413.75471698113205" y="730.0" name="hook"/>
  <outline>
    <contour>
      <point x="148.49056603773585" y="279.80660377358487" type="line"/>
      <point x="124.94811320754715" y="199.77830188679246" type="line" smooth="yes"/>
      <point x="123.50943396226415" y="194.77830188679246"/>
      <point x="125.50943396226413" y="188.77830188679246"/>
      <point x="132.94811320754715" y="188.77830188679246" type="curve"/>
      <point x="432.6886792452831" y="188.77830188679246" type="line"/>
      <point x="431.372641509434" y="291.49056603773585" type="line"/>
      <point x="405.5849056603774" y="279.80660377358487" type="line"/>
      <point x="390.2877358490566" y="279.80660377358487"/>
      <point x="372.35849056603774" y="279.80660377358487"/>
      <point x="357.061320754717" y="279.80660377358487" type="curve"/>
    </contour>
    <contour>
      <point x="74.62264150943398" y="0.0" type="curve"/>
      <point x="177.70283018867926" y="223.5943396226415"/>
      <point x="301.1179245283019" y="455.8584905660377"/>
      <point x="388.2641509433962" y="641.25" type="curve"/>
      <point x="355.7216981132076" y="622.9009433962266" type="line"/>
      <point x="425.19339622641513" y="622.9009433962266" type="line"/>
      <point x="403.01886792452825" y="642.372641509434" type="line"/>
      <point x="399.9339622641509" y="445.0188679245283"/>
      <point x="402.7783018867924" y="248.99056603773587"/>
      <point x="398.938679245283" y="27.839622641509433" type="curve" smooth="yes"/>
      <point x="397.6933962264151" y="3.561320754716981"/>
      <point x="400.8160377358491" y="0.0"/>
      <point x="413.86792452830184" y="0.0" type="curve" smooth="yes"/>
      <point x="441.4622641509433" y="0.0"/>
      <point x="472.17924528301893" y="0.0"/>
      <point x="503.70283018867923" y="0.0" type="curve"/>
      <point x="504.5094339622641" y="38.40094339622642"/>
      <point x="505.75471698113205" y="76.11792452830188"/>
      <point x="505.99999999999994" y="112.27358490566039" type="curve" smooth="yes"/>
      <point x="505.7169811320755" y="324.3962264150943"/>
      <point x="505.433962264151" y="520.6792452830189"/>
      <point x="502.34433962264154" y="692.0707547169811" type="curve"/>
      <point x="501.90566037735846" y="701.3867924528302"/>
      <point x="499.46698113207555" y="704.3867924528302"/>
      <point x="491.58962264150944" y="704.3867924528302" type="curve"/>
      <point x="432.1556603773585" y="704.3867924528302"/>
      <point x="373.1603773584906" y="704.3867924528302"/>
      <point x="313.72641509433964" y="704.3867924528302" type="curve"/>
      <point x="230.00000000000003" y="544.2358490566038"/>
      <point x="50.16509433962265" y="165.7311320754717"/>
      <point x="-29.632075471698112" y="14.56132075471698" type="curve" smooth="yes"/>
      <point x="-33.632075471698116" y="5.438679245283019"/>
      <point x="-29.948113207547173" y="0.0"/>
      <point x="-21.07075471698113" y="0.0" type="curve" smooth="yes"/>
      <point x="9.330188679245278" y="0.0"/>
      <point x="41.97641509433963" y="0.0"/>
    </contour>
  </outline>
</glyph>
<glyph name="B" format="2">
  <advance width="600.0"/>
  <unicode hex="0042"/>
  <outline>
    <contour>
      <point x="261.8254716981132" y="0.0" type="curve"/>
      <point x="392.10377358490564" y="0.0"/>
      <point x="478.10377358490564" y="45.68396226415094"/>
      <point x="507.4198113207547" y="160.94811320754718" type="curve" smooth="yes"/>
      <point x="515.5424528301887" y="192.87735849056605" type="line" smooth="yes"/>
      <point x="532.9811320754717" y="261.9481132075472"/>
      <point x="508.29716981132077" y="321.75471698113205"/>
      <point x="436.4198113207547" y="342.9481132075472" type="curve"/>
      <point x="436.4198113207547" y="373.3679245283019" type="line"/>
      <point x="184.1556603773585" y="373.3679245283019" type="line"/>
      <point x="164.73584905660377" y="317.2311320754717" type="line"/>
      <point x="311.10377358490564" y="317.2311320754717" type="line"/>
      <point x="408.97169811320754" y="317.2311320754717"/>
      <point x="427.97169811320754" y="272.4198113207547"/>
      <point x="413.21698113207543" y="213.83962264150944" type="curve" smooth="yes"/>
      <point x="404.65566037735846" y="181.1556603773585" type="line" smooth="yes"/>
      <point x="388.8301886792453" y="119.85377358490565"/>
      <point x="347.6698113207547" y="92.7122641509434"/>
      <point x="272.0330188679245" y="92.7122641509434" type="curve" smooth="yes"/>
      <point x="228.43396226415092" y="92.7122641509434"/>
      <point x="194.60849056603772" y="92.7122641509434"/>
      <point x="151.00943396226415" y="92.7122641509434" type="curve"/>
      <point x="176.83490566037736" y="198.69811320754718"/>
      <point x="211.08018867924528" y="334.311320754717"/>
      <point x="244.08018867924528" y="464.4339622641509" type="curve" smooth="yes"/>
      <point x="257.3443396226415" y="518.9292452830189"/>
      <point x="271.7311320754717" y="576.9150943396227"/>
      <point x="284.4339622641509" y="629.2877358490566" type="curve"/>
      <point x="294.1179245283019" y="645.0943396226414" type="line"/>
      <point x="180.05660377358492" y="643.4103773584906" type="line"/>
      <point x="127.54716981132077" y="434.25"/>
      <point x="74.35377358490567" y="220.72169811320754"/>
      <point x="21.844339622641513" y="11.56132075471698" type="curve"/>
      <point x="20.405660377358494" y="4.561320754716981"/>
      <point x="22.844339622641513" y="0.0"/>
      <point x="29.844339622641513" y="0.0" type="curve" smooth="yes"/>
      <point x="53.66981132075472" y="0.0"/>
      <point x="184.4575471698113" y="0.0"/>
    </contour>
    <contour>
      <point x="137.87735849056602" y="700.0" type="curve"/>
      <point x="132.07075471698113" y="676.2122641509434"/>
      <point x="125.58018867924528" y="648.25"/>
      <point x="118.08962264150944" y="618.2877358490566" type="curve" smooth="yes"/>
      <point x="116.08962264150944" y="611.9716981132076"/>
      <point x="119.08962264150944" y="607.2877358490566"/>
      <point x="126.08962264150944" y="607.2877358490566" type="curve" smooth="yes"/>
      <point x="216.08962264150944" y="607.2877358490566"/>
      <point x="305.0896226415094" y="607.2877358490566"/>
      <point x="395.08962264150944" y="607.2877358490566" type="curve" smooth="yes"/>
      <point x="430.12735849056605" y="607.2877358490566"/>
      <point x="452.4622641509434" y="600.2169811320754"/>
      <point x="466.41037735849056" y="586.2688679245283" type="curve" smooth="yes"/>
      <point x="481.7971698113207" y="571.3207547169811"/>
      <point x="484.35849056603774" y="547.0566037735848"/>
      <point x="477.04245283018867" y="517.4764150943396" type="curve" smooth="yes"/>
      <point x="468.9198113207547" y="484.42452830188677" type="line" smooth="yes"/>
      <point x="454.5330188679245" y="427.19339622641513"/>
      <point x="419.39150943396226" y="392.59433962264154"/>
      <point x="326.45283018867923" y="392.59433962264154" type="curve" smooth="yes"/>
      <point x="280.13679245283015" y="392.59433962264154"/>
      <point x="228.64622641509436" y="392.59433962264154"/>
      <point x="182.33018867924528" y="392.59433962264154" type="curve"/>
      <point x="166.71698113207546" y="337.87735849056605" type="line" smooth="yes"/>
      <point x="186.01415094339623" y="346.7358490566038" type="line"/>
      <point x="234.13679245283018" y="346.7358490566038"/>
      <point x="290.8018867924528" y="346.7358490566038"/>
      <point x="338.92452830188677" y="346.7358490566038" type="curve" smooth="yes"/>
      <point x="474.4198113207547" y="346.7358490566038"/>
      <point x="555.4716981132076" y="394.49056603773585"/>
      <point x="580.5424528301887" y="494.96698113207543" type="curve" smooth="yes"/>
      <point x="587.1037735849056" y="521.6509433962264" type="line" smooth="yes"/>
      <point x="609.4198113207547" y="611.7924528301887"/>
      <point x="571.7169811320755" y="700.0"/>
      <point x="411.14150943396226" y="700.0" type="curve" smooth="yes"/>
      <point x="320.38679245283015" y="700.0"/>
      <point x="228.6320754716981" y="700.0"/>
    </contour>
  </outline>
</glyph>
<glyph name="D" format="2">
  <advance width="600.0"/>
  <unicode hex="0044"/>
  <anchor x="397.1674547335019" y="711.0" name="top"/>
  <anchor x="239.61320754716982" y="0.0" name="bottom"/>
  <outline>
    <contour>
      <point x="527.2452830188678" y="225.99999999999997" type="curve" smooth="yes"/>
      <point x="580.9292452830188" y="437.9292452830189" type="line" smooth="yes"/>
      <point x="627.1933962264151" y="621.3018867924529"/>
      <point x="535.6981132075472" y="700.0"/>
      <point x="389.10377358490564" y="700.0" type="curve"/>
      <point x="307.4198113207547" y="700.0"/>
      <point x="219.56132075471697" y="700.0"/>
      <point x="137.87735849056602" y="700.0" type="curve"/>
      <point x="130.38679245283018" y="670.0377358490566"/>
      <point x="124.45754716981132" y="644.3207547169811"/>
      <point x="116.96698113207547" y="614.3584905660377" type="curve"/>
      <point x="114.96698113207547" y="608.0424528301887"/>
      <point x="117.96698113207547" y="603.3584905660377"/>
      <point x="124.96698113207547" y="603.3584905660377" type="curve" smooth="yes"/>
      <point x="204.33490566037736" y="603.3584905660377"/>
      <point x="288.3160377358491" y="603.3584905660377"/>
      <point x="367.683962264151" y="603.3584905660377" type="curve" smooth="yes"/>
      <point x="413.23113207547163" y="603.3584905660377"/>
      <point x="444.9528301886793" y="595.5330188679245"/>
      <point x="463.9716981132076" y="576.0754716981132" type="curve" smooth="yes"/>
      <point x="487.42924528301893" y="551.7405660377359"/>
      <point x="490.061320754717" y="510.7735849056604"/>
      <point x="473.4292452830189" y="446.561320754717" type="curve" smooth="yes"/>
      <point x="418.86792452830184" y="229.6320754716981" type="line" smooth="yes"/>
      <point x="396.6556603773585" y="141.5377358490566"/>
      <point x="333.4245283018868" y="96.64150943396227"/>
      <point x="241.25943396226418" y="96.64150943396227" type="curve" smooth="yes"/>
      <point x="211.36320754716982" y="96.64150943396227"/>
      <point x="182.46698113207546" y="96.64150943396227"/>
      <point x="152.57075471698113" y="96.64150943396227" type="curve"/>
      <point x="188.7122641509434" y="241.08490566037733"/>
      <point x="224.73113207547172" y="385.52830188679246"/>
      <point x="260.311320754717" y="530.4103773584906" type="curve" smooth="yes"/>
      <point x="267.75" y="557.6037735849056"/>
      <point x="274.188679245283" y="585.2358490566037"/>
      <point x="281.0660377358491" y="612.8679245283018" type="curve"/>
      <point x="293.67924528301893" y="628.3584905660377" type="line"/>
      <point x="176.49528301886795" y="630.0424528301886" type="line"/>
      <point x="123.30188679245285" y="418.2688679245283"/>
      <point x="70.54716981132076" y="206.49528301886792"/>
      <point x="21.844339622641513" y="11.0" type="curve"/>
      <point x="19.844339622641513" y="3.0"/>
      <point x="23.844339622641506" y="0.0"/>
      <point x="29.844339622641513" y="0.0" type="curve" smooth="yes"/>
      <point x="61.39150943396227" y="0.0"/>
      <point x="159.05188679245285" y="0.0"/>
      <point x="223.71698113207552" y="0.0" type="curve" smooth="yes"/>
      <point x="393.8066037735849" y="0.0"/>
      <point x="488.6839622641509" y="73.31603773584906"/>
    </contour>
  </outline>
</glyph>
<glyph name="E" format="2">
  <advance width="600.0"/>
  <unicode hex="0045"/>
  <anchor x="410.6768886957661" y="711.0" name="top"/>
  <anchor x="252.62728882786604" y="-1.0" name="bottom"/>
  <anchor x="463.8773584905661" y="0.0" name="ogonek"/>
  <anchor x="413.75471698113205" y="730.0" name="hook"/>
  <outline>
    <contour>
      <point x="143.49056603773585" y="700.0" type="line"/>
      <point x="136.0" y="670.0377358490566"/>
      <point x="130.63207547169813" y="647.127358490566"/>
      <point x="123.14150943396226" y="617.1650943396227" type="curve" smooth="yes"/>
      <point x="121.14150943396226" y="610.8490566037735"/>
      <point x="124.14150943396227" y="606.1650943396227"/>
      <point x="130.70283018867926" y="606.1650943396227" type="curve" smooth="yes"/>
      <point x="614.5283018867924" y="606.1650943396227" type="line"/>
      <point x="622.0188679245283" y="636.127358490566"/>
      <point x="627.3867924528302" y="659.0377358490566"/>
      <point x="634.877358490566" y="689.0" type="curve" smooth="yes"/>
      <point x="636.877358490566" y="695.316037735849"/>
      <point x="633.877358490566" y="700.0"/>
      <point x="627.316037735849" y="700.0" type="curve" smooth="yes"/>
    </contour>
    <contour>
      <point x="188.85377358490567" y="399.7688679245283" type="line"/>
      <point x="166.06603773584908" y="308.1792452830189" type="line"/>
      <point x="484.52830188679246" y="308.1792452830189" type="line"/>
      <point x="490.89622641509436" y="334.2122641509434"/>
      <point x="500.19339622641513" y="372.83962264150944"/>
      <point x="504.3160377358491" y="388.7688679245283" type="curve" smooth="yes"/>
      <point x="505.6628441301651" y="393.9319286169542"/>
      <point x="503.3160377358491" y="399.7688679245283"/>
      <point x="496.7547169811321" y="399.7688679245283" type="curve"/>
    </contour>
    <contour>
      <point x="35.45754716981132" y="0.0" type="curve" smooth="yes"/>
      <point x="462.8773584905661" y="0.0" type="line"/>
      <point x="470.36792452830196" y="29.962264150943398"/>
      <point x="479.1037735849057" y="64.34433962264151"/>
      <point x="483.6650943396227" y="82.83490566037736" type="curve" smooth="yes"/>
      <point x="485.1037735849057" y="89.27358490566039"/>
      <point x="480.6650943396227" y="93.83490566037736"/>
      <point x="474.6650943396227" y="93.83490566037736" type="curve"/>
      <point x="159.55188679245282" y="93.83490566037736" type="line"/>
      <point x="197.00943396226415" y="242.78773584905662"/>
      <point x="234.02830188679246" y="393.3018867924528"/>
      <point x="271.4858490566038" y="542.254716981132" type="curve" smooth="yes"/>
      <point x="279.1698113207547" y="571.7452830188679"/>
      <point x="286.73113207547175" y="601.2358490566038"/>
      <point x="293.8537735849057" y="630.7264150943397" type="curve"/>
      <point x="306.4669811320755" y="646.2169811320755" type="line"/>
      <point x="187.9150943396226" y="646.2169811320754" type="line"/>
      <point x="134.84433962264148" y="435.37264150943395"/>
      <point x="80.52830188679245" y="221.84433962264154"/>
      <point x="27.45754716981132" y="11.0" type="curve" smooth="yes"/>
      <point x="26.0188679245283" y="5.0"/>
      <point x="29.45754716981132" y="0.0"/>
    </contour>
  </outline>
</glyph>
<glyph name="H" format="2">
  <advance width="600.0"/>
  <unicode hex="0048"/>
  <anchor x="410.6768886957661" y="711.0" name="top"/>
  <anchor x="231.1933962264151" y="0.0" name="bottom"/>
  <outline>
    <contour>
      <point x="177.5283018867924" y="700.0" type="curve"/>
      <point x="168.96698113207543" y="665.316037735849"/>
      <point x="160.40566037735846" y="631.1933962264151"/>
      <point x="151.40566037735846" y="596.5094339622641" type="curve" smooth="yes"/>
      <point x="102.96698113207546" y="401.6320754716981"/>
      <point x="53.96698113207547" y="205.87735849056602"/>
      <point x="5.5283018867924465" y="11.0" type="curve" smooth="yes"/>
      <point x="3.5283018867924465" y="5.0"/>
      <point x="7.528301886792447" y="0.0"/>
      <point x="13.528301886792448" y="0.0" type="curve" smooth="yes"/>
      <point x="47.29716981132076" y="0.0"/>
      <point x="78.25943396226415" y="0.0"/>
      <point x="112.02830188679246" y="0.0" type="curve"/>
      <point x="169.02830188679243" y="229.0"/>
      <point x="227.02830188679243" y="460.0"/>
      <point x="284.02830188679246" y="689.0" type="curve" smooth="yes"/>
      <point x="285.9364290358255" y="694.1630606924259"/>
      <point x="282.9382555984651" y="700.0"/>
      <point x="276.02830188679246" y="700.0" type="curve" smooth="yes"/>
      <point x="242.25943396226413" y="700.0"/>
      <point x="211.2971698113207" y="700.0"/>
    </contour>
    <contour>
      <point x="160.59433962264148" y="399.64622641509436" type="line"/>
      <point x="139.68396226415092" y="319.6179245283019" type="line" smooth="yes"/>
      <point x="138.2452830188679" y="314.6179245283019"/>
      <point x="140.24528301886792" y="308.6179245283019"/>
      <point x="147.68396226415095" y="308.6179245283019" type="curve"/>
      <point x="476.7405660377358" y="308.6179245283019" type="line"/>
      <point x="482.00471698113205" y="403.5235849056604" type="line"/>
      <point x="456.21698113207543" y="399.64622641509436" type="line"/>
      <point x="440.91981132075466" y="399.64622641509436"/>
      <point x="426.061320754717" y="399.64622641509436"/>
      <point x="410.7641509433962" y="399.64622641509436" type="curve"/>
    </contour>
    <contour>
      <point x="463.2264150943396" y="0.0" type="curve"/>
      <point x="471.2264150943396" y="32.43867924528302"/>
      <point x="480.78773584905656" y="68.68396226415095"/>
      <point x="489.9103773584905" y="105.61320754716981" type="curve" smooth="yes"/>
      <point x="538.3490566037735" y="299.9292452830189"/>
      <point x="586.7877358490565" y="494.6839622641509"/>
      <point x="635.2264150943396" y="689.0" type="curve" smooth="yes"/>
      <point x="637.2264150943396" y="695.0"/>
      <point x="633.2264150943396" y="700.0"/>
      <point x="627.2264150943396" y="700.0" type="curve" smooth="yes"/>
      <point x="593.4575471698113" y="700.0"/>
      <point x="562.4952830188679" y="700.0"/>
      <point x="528.7264150943396" y="700.0" type="curve"/>
      <point x="471.72641509433964" y="471.0"/>
      <point x="413.72641509433964" y="240.0"/>
      <point x="356.72641509433964" y="11.0" type="curve" smooth="yes"/>
      <point x="354.72641509433964" y="6.0"/>
      <point x="357.816461382667" y="0.0"/>
      <point x="364.72641509433964" y="0.0" type="curve" smooth="yes"/>
      <point x="398.49528301886795" y="0.0"/>
      <point x="429.45754716981133" y="0.0"/>
    </contour>
  </outline>
</glyph>
<glyph name="M" format="2">
  <advance width="600.0"/>
  <unicode hex="004D"/>
  <anchor x="230.0707547169811" y="0.0" name="bottom"/>
  <outline>
    <contour>
      <point x="99.97641509433964" y="0.0" type="curve"/>
      <point x="115.73113207547172" y="62.334905660377345"/>
      <point x="130.92452830188682" y="125.23113207547169"/>
      <point x="146.67924528301887" y="188.00471698113208" type="curve"/>
      <point x="176.96226415094344" y="312.2075471698113"/>
      <point x="186.3490566037736" y="359.1556603773585"/>
      <point x="202.68396226415095" y="541.8018867924529" type="curve"/>
      <point x="177.24528301886792" y="516.6273584905662" type="line"/>
      <point x="237.83962264150944" y="516.6273584905662" type="line"/>
      <point x="213.05188679245282" y="541.1179245283018" type="line"/>
      <point x="227.56132075471697" y="401.3584905660377"/>
      <point x="241.75471698113208" y="277.83018867924534"/>
      <point x="254.07075471698113" y="169.65566037735852" type="curve" smooth="yes"/>
      <point x="255.50943396226415" y="160.02358490566039"/>
      <point x="260.0707547169811" y="159.02358490566039"/>
      <point x="266.26415094339626" y="159.02358490566039" type="curve" smooth="yes"/>
      <point x="273.77358490566036" y="159.02358490566039"/>
      <point x="281.1603773584906" y="159.02358490566039"/>
      <point x="288.6698113207547" y="159.02358490566039" type="curve"/>
      <point x="368.8820754716981" y="287.30660377358487"/>
      <point x="433.25" y="397.3584905660378"/>
      <point x="517.8490566037735" y="537.1698113207548" type="curve"/>
      <point x="477.99056603773585" y="516.6273584905662" type="line"/>
      <point x="544.4103773584906" y="516.6273584905662" type="line"/>
      <point x="532.0943396226414" y="540.0471698113208" type="line"/>
      <point x="460.76415094339626" y="364.1037735849056"/>
      <point x="441.64150943396226" y="308.20754716981133"/>
      <point x="413.2358490566038" y="192.39150943396226" type="curve"/>
      <point x="398.04245283018867" y="132.17924528301884"/>
      <point x="383.41037735849056" y="72.08962264150944"/>
      <point x="368.2169811320755" y="11.877358490566039" type="curve" smooth="yes"/>
      <point x="366.77830188679246" y="5.0"/>
      <point x="368.90094339622635" y="0.0"/>
      <point x="375.77830188679246" y="0.0" type="curve"/>
      <point x="407.86320754716985" y="0.0"/>
      <point x="440.3867924528302" y="0.0"/>
      <point x="471.3490566037736" y="0.0" type="curve"/>
      <point x="480.3490566037736" y="33.43867924528302"/>
      <point x="488.3490566037736" y="66.87735849056604"/>
      <point x="496.7877358490566" y="100.31603773584905" type="curve"/>
      <point x="545.7877358490565" y="296.438679245283"/>
      <point x="614.6509433962264" y="571.9622641509434"/>
      <point x="643.9103773584905" y="689.0" type="curve" smooth="yes"/>
      <point x="645.3490566037735" y="695.438679245283"/>
      <point x="642.7877358490565" y="700.0"/>
      <point x="635.9103773584905" y="700.0" type="curve" smooth="yes"/>
      <point x="598.2641509433962" y="700.0"/>
      <point x="557.5471698113208" y="700.0"/>
      <point x="519.9009433962264" y="700.0" type="curve"/>
      <point x="448.9339622641509" y="569.2264150943396"/>
      <point x="377.4575471698114" y="435.5047169811321"/>
      <point x="299.91037735849056" y="293.76415094339615" type="curve"/>
      <point x="342.3301886792453" y="331.50000000000006" type="line"/>
      <point x="282.49056603773585" y="331.50000000000006" type="line"/>
      <point x="307.10377358490564" y="292.4481132075471" type="line"/>
      <point x="297.7688679245283" y="433.8207547169811"/>
      <point x="289.3820754716981" y="560.0330188679246"/>
      <point x="283.6792452830189" y="670.7028301886793" type="curve" smooth="yes"/>
      <point x="282.8018867924529" y="696.8773584905659"/>
      <point x="278.8018867924529" y="700.0"/>
      <point x="271.36320754716985" y="700.0" type="curve" smooth="yes"/>
      <point x="237.9622641509434" y="700.0"/>
      <point x="202.3679245283019" y="700.0"/>
      <point x="168.9669811320755" y="700.0" type="curve"/>
      <point x="160.4056603773585" y="667.0"/>
      <point x="151.9669811320755" y="633.0"/>
      <point x="143.9669811320755" y="600.0" type="curve"/>
      <point x="94.96698113207547" y="404.0"/>
      <point x="45.405660377358494" y="207.0"/>
      <point x="-3.5943396226415087" y="11.0" type="curve" smooth="yes"/>
      <point x="-4.941146016957543" y="5.275618552857075"/>
      <point x="-2.471698113207547" y="0.0"/>
      <point x="4.405660377358484" y="0.0" type="curve"/>
      <point x="35.92924528301887" y="0.0"/>
      <point x="66.69811320754718" y="0.0"/>
    </contour>
  </outline>
</glyph>
<glyph name="P" format="2">
  <advance width="600.0"/>
  <unicode hex="0050"/>
  <outline>
    <contour>
      <point x="136.20283018867923" y="0.0" type="curve"/>
      <point x="143.64150943396226" y="29.754716981132077"/>
      <point x="152.20283018867923" y="63.31603773584906"/>
      <point x="161.20283018867923" y="98.87735849056604" type="curve" smooth="yes"/>
      <point x="195.83490566037736" y="236.72169811320754"/>
      <point x="229.7830188679245" y="375.4433962264151"/>
      <point x="264.4150943396226" y="513.2877358490566" type="curve" smooth="yes"/>
      <point x="273.4150943396226" y="550.4103773584906"/>
      <point x="282.9764150943396" y="587.5330188679245"/>
      <point x="291.9764150943396" y="624.6556603773585" type="curve"/>
      <point x="302.22169811320754" y="640.7075471698114" type="line"/>
      <point x="184.91509433962267" y="641.8301886792453" type="line"/>
      <point x="132.8443396226415" y="431.74056603773585"/>
      <point x="79.52830188679246" y="221.08962264150944"/>
      <point x="27.457547169811324" y="11.0" type="curve" smooth="yes"/>
      <point x="25.549420020778307" y="5.275618552857075"/>
      <point x="28.580188679245285" y="0.0"/>
      <point x="35.45754716981132" y="0.0" type="curve" smooth="yes"/>
      <point x="69.22641509433961" y="0.0"/>
      <point x="102.43396226415095" y="0.0"/>
    </contour>
    <contour>
      <point x="143.49056603773585" y="700.0" type="curve"/>
      <point x="136.0" y="670.0377358490566"/>
      <point x="130.07075471698113" y="644.3207547169811"/>
      <point x="122.58018867924528" y="614.3584905660377" type="curve"/>
      <point x="120.69774641327831" y="609.1498430133637"/>
      <point x="123.69540919871793" y="603.3584905660377"/>
      <point x="130.58018867924528" y="603.3584905660377" type="curve" smooth="yes"/>
      <point x="218.33490566037736" y="603.3584905660377"/>
      <point x="306.2122641509434" y="603.3584905660377"/>
      <point x="393.96698113207543" y="603.3584905660377" type="curve"/>
      <point x="434.44339622641513" y="603.3584905660377"/>
      <point x="460.5330188679245" y="595.8490566037736"/>
      <point x="476.2358490566038" y="580.5849056603773" type="curve" smooth="yes"/>
      <point x="492.5" y="563.882075471698"/>
      <point x="494.8160377358491" y="535.5471698113207"/>
      <point x="485.5" y="497.9669811320755" type="curve" smooth="yes"/>
      <point x="467.938679245283" y="427.84433962264154" type="line" smooth="yes"/>
      <point x="452.2358490566038" y="365.0330188679245"/>
      <point x="405.8820754716981" y="332.08490566037733"/>
      <point x="336.54245283018867" y="332.08490566037733" type="curve" smooth="yes"/>
      <point x="283.4009433962264" y="332.08490566037733"/>
      <point x="230.82075471698113" y="332.08490566037733"/>
      <point x="177.6792452830189" y="332.08490566037733" type="curve"/>
      <point x="150.52358490566039" y="229.8820754716981" type="line" smooth="yes"/>
      <point x="164.7688679245283" y="235.44339622641508" type="line"/>
      <point x="214.91037735849056" y="235.44339622641508"/>
      <point x="267.7358490566038" y="235.44339622641508"/>
      <point x="322.9481132075472" y="235.44339622641508" type="curve" smooth="yes"/>
      <point x="453.50943396226415" y="235.44339622641508"/>
      <point x="545.6320754716982" y="288.127358490566"/>
      <point x="577.877358490566" y="415.98584905660374" type="curve" smooth="yes"/>
      <point x="595.4386792452831" y="485.6698113207547" type="line" smooth="yes"/>
      <point x="629.0" y="620.9150943396227"/>
      <point x="560.8915094339624" y="700.0"/>
      <point x="410.3349056603774" y="700.0" type="curve"/>
      <point x="319.70283018867923" y="700.0"/>
      <point x="234.12264150943395" y="700.0"/>
    </contour>
  </outline>
</glyph>
<glyph name="Q" format="2">
  <advance width="600.0"/>
  <unicode hex="0051"/>
  <outline>
    <contour>
      <point x="384.3632075471698" y="67.7311320754717" type="curve"/>
      <point x="289.6698113207548" y="36.97641509433963" type="line"/>
      <point x="304.54716981132077" y="-5.004716981132072"/>
      <point x="320.10849056603774" y="-47.10849056603774"/>
      <point x="334.98584905660374" y="-89.08962264150942" type="curve" smooth="yes"/>
      <point x="349.9858490566038" y="-134.00000000000003"/>
      <point x="374.3537735849057" y="-149.12264150943395"/>
      <point x="432.316037735849" y="-149.12264150943395" type="curve" smooth="yes"/>
      <point x="439.3160377358491" y="-149.12264150943395"/>
      <point x="447.561320754717" y="-149.12264150943395"/>
      <point x="452.87735849056605" y="-149.12264150943395" type="curve" smooth="yes"/>
      <point x="459.87735849056605" y="-149.12264150943395"/>
      <point x="464.87735849056605" y="-145.12264150943395"/>
      <point x="466.87735849056605" y="-138.12264150943395" type="curve" smooth="yes"/>
      <point x="473.8066037735849" y="-108.72169811320755"/>
      <point x="481.8584905660378" y="-77.75943396226414"/>
      <point x="489.34905660377365" y="-48.35849056603774" type="curve"/>
      <point x="473.7358490566038" y="-48.35849056603774" type="line"/>
      <point x="467.6391509433962" y="-48.35849056603774"/>
      <point x="462.22641509433964" y="-48.35849056603774"/>
      <point x="453.27830188679246" y="-48.35849056603774" type="curve" smooth="yes"/>
      <point x="437.52358490566036" y="-48.35849056603774"/>
      <point x="430.5235849056604" y="-45.04245283018867"/>
      <point x="424.2075471698114" y="-28.481132075471695" type="curve"/>
      <point x="412.1367924528302" y="0.9575471698113267"/>
      <point x="397.7156857396835" y="35.33991747089859"/>
    </contour>
    <component base="O"/>
  </outline>
</glyph>
<glyph name="bracketleft" format="2">
  <advance width="600.0"/>
  <unicode hex="005B"/>
  <outline>
    <contour>
      <point x="364.561320754717" y="-143.5990566037736" type="line"/>
      <point x="372.0518867924528" y="-113.19811320754717"/>
      <point x="378.4198113207547" y="-87.60377358490565"/>
      <point x="385.91037735849056" y="-57.20283018867924" type="curve" smooth="yes"/>
      <point x="387.91037735849056" y="-50.20283018867924"/>
      <point x="384.91037735849056" y="-46.20283018867924"/>
      <point x="377.91037735849056" y="-46.20283018867924" type="curve"/>
      <point x="187.41037735849056" y="-46.20283018867924" type="line"/>
      <point x="246.30660377358487" y="187.82075471698113"/>
      <point x="304.20283018867923" y="422.96698113207543"/>
      <point x="363.0990566037736" y="656.9905660377358" type="curve"/>
      <point x="564.5990566037736" y="656.9905660377358" type="line"/>
      <point x="572.5283018867925" y="689.2688679245283"/>
      <point x="578.3349056603774" y="711.6179245283018"/>
      <point x="585.9481132075472" y="743.3867924528302" type="curve" smooth="yes"/>
      <point x="587.9481132075472" y="750.3867924528302"/>
      <point x="584.9481132075472" y="754.3867924528302"/>
      <point x="577.9481132075472" y="754.3867924528302" type="curve"/>
      <point x="319.3490566037736" y="754.3867924528302" type="line" smooth="yes"/>
      <point x="304.1745283018868" y="754.3867924528302"/>
      <point x="289.561320754717" y="754.3867924528302"/>
      <point x="274.3867924528302" y="754.3867924528302" type="curve"/>
      <point x="266.26415094339626" y="721.7735849056604"/>
      <point x="258.0188679245283" y="688.5990566037735"/>
      <point x="249.89622641509436" y="655.9858490566038" type="curve" smooth="yes"/>
      <point x="184.2641509433962" y="393.45754716981133"/>
      <point x="118.19339622641509" y="129.92924528301887"/>
      <point x="52.56132075471698" y="-132.5990566037736" type="curve" smooth="yes"/>
      <point x="51.0" y="-139.5990566037736"/>
      <point x="54.0" y="-143.5990566037736"/>
      <point x="61.0" y="-143.5990566037736" type="curve" smooth="yes"/>
    </contour>
  </outline>
</glyph>
<glyph name="a" format="2">
  <advance width="600.0"/>
  <unicode hex="0061"/>
  <outline>
    <contour>
      <point x="285.17924528301893" y="544.9811320754717" type="curve" smooth="yes"/>
      <point x="197.26415094339623" y="544.9811320754717"/>
      <point x="123.50943396226415" y="503.20754716981133"/>
      <point x="86.26415094339623" y="354.96226415094344" type="curve" smooth="yes"/>
      <point x="50.2122641509434" y="211.8066037735849" type="line" smooth="yes"/>
      <point x="16.528301886792455" y="77.68396226415095"/>
      <point x="70.70283018867924" y="-10.0"/>
      <point x="182.35377358490567" y="-10.0" type="curve" smooth="yes"/>
      <point x="253.6698113207547" y="-10.0"/>
      <point x="306.688679245283" y="24.0"/>
      <point x="347.75943396226415" y="86.24528301886792" type="curve"/>
      <point x="373.811320754717" y="86.24528301886792" type="line"/>
      <point x="407.3018867924528" y="226.82075471698113" type="line"/>
      <point x="333.9481132075472" y="123.93867924528303"/>
      <point x="279.9292452830189" y="90.00943396226415"/>
      <point x="220.4009433962264" y="90.00943396226415" type="curve" smooth="yes"/>
      <point x="198.50471698113208" y="90.00943396226415"/>
      <point x="181.4858490566038" y="96.20283018867926"/>
      <point x="170.0990566037736" y="107.58962264150944" type="curve" smooth="yes"/>
      <point x="150.39622641509433" y="127.29245283018868"/>
      <point x="146.3254716981132" y="161.38207547169813"/>
      <point x="158.1509433962264" y="208.24528301886792" type="curve" smooth="yes"/>
      <point x="191.9575471698113" y="339.10377358490564" type="line" smooth="yes"/>
      <point x="211.85377358490564" y="416.4433962264151"/>
      <point x="248.33018867924528" y="443.8490566037736"/>
      <point x="304.9481132075472" y="443.8490566037736" type="curve" smooth="yes"/>
      <point x="361.74056603773585" y="443.8490566037736"/>
      <point x="405.9339622641509" y="412.3915094339623"/>
      <point x="440.5660377358491" y="359.84433962264154" type="curve"/>
      <point x="461.9339622641509" y="450.49056603773585" type="line"/>
      <point x="432.8301886792453" y="450.49056603773585" type="line"/>
      <point x="402.3207547169811" y="512.4198113207547"/>
      <point x="356.37264150943395" y="544.9811320754717"/>
    </contour>
    <contour>
      <point x="469.75943396226415" y="533.8584905660377" type="curve"/>
      <point x="459.1981132075471" y="492.61320754716985"/>
      <point x="452.63679245283015" y="466.9292452830188"/>
      <point x="445.63679245283015" y="438.6839622641509" type="curve" smooth="yes"/>
      <point x="419.8820754716981" y="336.4716981132076"/>
      <point x="393.68867924528297" y="235.25943396226415"/>
      <point x="368.4952830188679" y="133.04716981132074" type="curve" smooth="yes"/>
      <point x="348.00471698113205" y="51.839622641509436"/>
      <point x="380.4433962264151" y="0.0"/>
      <point x="457.9481132075472" y="0.0" type="curve" smooth="yes"/>
      <point x="470.19339622641513" y="0.0"/>
      <point x="490.9292452830188" y="0.0"/>
      <point x="497.61320754716974" y="0.0" type="curve" smooth="yes"/>
      <point x="503.73584905660374" y="0.0"/>
      <point x="507.8584905660377" y="2.561320754716981"/>
      <point x="509.41981132075466" y="8.806603773584905" type="curve" smooth="yes"/>
      <point x="516.3490566037735" y="35.9622641509434"/>
      <point x="523.7169811320754" y="65.18867924528303"/>
      <point x="530.6462264150942" y="92.3443396226415" type="curve"/>
      <point x="515.0330188679245" y="92.3443396226415" type="line"/>
      <point x="509.83962264150944" y="92.3443396226415"/>
      <point x="504.52358490566036" y="92.3443396226415"/>
      <point x="497.8915094339623" y="92.3443396226415" type="curve" smooth="yes"/>
      <point x="476.6792452830188" y="92.3443396226415"/>
      <point x="470.11792452830196" y="102.85377358490567"/>
      <point x="476.31132075471703" y="127.06603773584906" type="curve" smooth="yes"/>
      <point x="506.38207547169816" y="247.91037735849056"/>
      <point x="542.8207547169811" y="390.47169811320754"/>
      <point x="575.6981132075472" y="521.9811320754717" type="curve" smooth="yes"/>
      <point x="577.6981132075472" y="529.4198113207548"/>
      <point x="574.1367924528302" y="533.8584905660377"/>
      <point x="567.2594339622641" y="533.8584905660377" type="curve" smooth="yes"/>
      <point x="534.6132075471698" y="533.8584905660377"/>
      <point x="502.4056603773585" y="533.8584905660377"/>
    </contour>
  </outline>
</glyph>
<glyph name="c" format="2">
  <advance width="600.0"/>
  <unicode hex="0063"/>
  <outline>
    <contour>
      <point x="379.92924528301893" y="544.9811320754717" type="curve"/>
      <point x="236.50943396226415" y="544.9811320754717"/>
      <point x="133.9150943396226" y="478.0518867924528"/>
      <point x="97.23113207547169" y="332.438679245283" type="curve" smooth="yes"/>
      <point x="74.91509433962264" y="243.73584905660377" type="line" smooth="yes"/>
      <point x="35.91509433962264" y="89.29716981132077"/>
      <point x="109.0377358490566" y="-11.122641509433961"/>
      <point x="280.4905660377359" y="-11.122641509433961" type="curve"/>
      <point x="372.78773584905656" y="-11.122641509433961"/>
      <point x="431.54245283018867" y="13.264150943396228"/>
      <point x="448.66509433962267" y="29.825471698113212" type="curve" smooth="yes"/>
      <point x="451.5424528301887" y="32.70283018867925"/>
      <point x="452.5424528301887" y="35.26415094339623"/>
      <point x="453.9811320754717" y="39.58018867924529" type="curve"/>
      <point x="461.3490566037736" y="68.73584905660377"/>
      <point x="468.9975032573345" y="98.2471345850316"/>
      <point x="477.0849056603774" y="127.16981132075473" type="curve"/>
      <point x="460.1556603773585" y="127.16981132075473" type="line"/>
      <point x="407.34905660377353" y="101.15094339622642"/>
      <point x="359.3490566037736" y="86.64150943396227"/>
      <point x="296.03301886792457" y="86.64150943396227" type="curve"/>
      <point x="247.7688679245283" y="86.64150943396227"/>
      <point x="214.9433962264151" y="96.39622641509435"/>
      <point x="194.99528301886792" y="115.78301886792454" type="curve" smooth="yes"/>
      <point x="170.5377358490566" y="140.24056603773585"/>
      <point x="167.2216981132075" y="180.71698113207546"/>
      <point x="181.48584905660377" y="235.58018867924528" type="curve" smooth="yes"/>
      <point x="202.48584905660377" y="319.14150943396226" type="line" smooth="yes"/>
      <point x="225.87264150943395" y="410.6179245283019"/>
      <point x="282.0849056603774" y="451.14622641509436"/>
      <point x="368.1933962264151" y="451.14622641509436" type="curve"/>
      <point x="405.2311320754717" y="451.14622641509436"/>
      <point x="430.7594339622641" y="445.6367924528302"/>
      <point x="453.65566037735846" y="433.3018867924528" type="curve"/>
      <point x="446.960157523191" y="407.2894455094872"/>
      <point x="439.45628076686415" y="374.58476809691604"/>
      <point x="431.9009433962264" y="344.5990566037736" type="curve"/>
      <point x="429.4622641509434" y="334.2830188679245" type="line"/>
      <point x="457.6179245283019" y="334.2830188679245"/>
      <point x="486.77358490566036" y="334.2830188679245"/>
      <point x="514.929245283019" y="334.2830188679245" type="curve" smooth="yes"/>
      <point x="521.6132075471698" y="334.2830188679245"/>
      <point x="527.2971698113208" y="337.8443396226415"/>
      <point x="528.2971698113208" y="342.8443396226415" type="curve" smooth="yes"/>
      <point x="563.5943396226415" y="482.15566037735846" type="line" smooth="yes"/>
      <point x="564.5943396226415" y="486.59433962264154"/>
      <point x="564.5943396226415" y="489.47169811320754"/>
      <point x="561.2783018867924" y="492.7877358490566" type="curve" smooth="yes"/>
      <point x="545.9103773584906" y="508.15566037735846"/>
      <point x="484.0518867924529" y="544.9811320754717"/>
    </contour>
  </outline>
</glyph>
<glyph name="r" format="2">
  <advance width="600.0"/>
  <unicode hex="0072"/>
  <outline>
    <contour>
      <point x="127.14150943396227" y="533.8584905660377" type="curve"/>
      <point x="120.2122641509434" y="506.14150943396226"/>
      <point x="113.84433962264151" y="479.4245283018868"/>
      <point x="106.91509433962264" y="451.70754716981133" type="curve" smooth="yes"/>
      <point x="105.35377358490567" y="445.2688679245283"/>
      <point x="108.91509433962264" y="440.70754716981133"/>
      <point x="115.35377358490567" y="440.70754716981133" type="curve" smooth="yes"/>
      <point x="142.74056603773587" y="440.70754716981133"/>
      <point x="169.56603773584905" y="440.70754716981133"/>
      <point x="196.95283018867923" y="440.70754716981133" type="curve"/>
      <point x="215.32075471698113" y="440.70754716981133" type="line"/>
      <point x="182.49528301886792" y="311.08962264150944"/>
      <point x="139.688679245283" y="140.6179245283019"/>
      <point x="107.4245283018868" y="11.0" type="curve" smooth="yes"/>
      <point x="105.4245283018868" y="4.0"/>
      <point x="108.4245283018868" y="0.0"/>
      <point x="115.4245283018868" y="0.0" type="curve" smooth="yes"/>
      <point x="146.94811320754718" y="0.0"/>
      <point x="179.0330188679245" y="0.0"/>
      <point x="210.55660377358487" y="0.0" type="curve"/>
      <point x="218.43396226415092" y="31.193396226415093"/>
      <point x="226.9952830188679" y="64.63207547169812"/>
      <point x="235.9952830188679" y="99.31603773584905" type="curve" smooth="yes"/>
      <point x="261.87264150943395" y="204.94811320754718"/>
      <point x="291.1179245283019" y="319.8066037735849"/>
      <point x="314.188679245283" y="414.08962264150944" type="curve" smooth="yes"/>
      <point x="315.188679245283" y="415.08962264150944"/>
      <point x="303.3679245283019" y="533.8584905660377"/>
      <point x="302.3679245283019" y="533.8584905660377" type="curve" smooth="yes"/>
      <point x="278.6792452830189" y="533.8584905660377"/>
      <point x="150.83018867924528" y="533.8584905660377"/>
    </contour>
    <contour>
      <point x="527.5047169811321" y="541.6650943396227" type="curve"/>
      <point x="451.5235849056604" y="541.6650943396227"/>
      <point x="384.9622641509434" y="507.2452830188679"/>
      <point x="328.18867924528297" y="434.438679245283" type="curve"/>
      <point x="286.91037735849056" y="434.438679245283" type="line"/>
      <point x="280.25943396226415" y="342.47641509433964" type="line"/>
      <point x="353.3349056603774" y="413.04245283018867"/>
      <point x="417.65094339622635" y="438.41037735849056"/>
      <point x="464.3018867924528" y="438.41037735849056" type="curve" smooth="yes"/>
      <point x="473.3207547169811" y="438.41037735849056"/>
      <point x="479.58490566037733" y="437.5330188679245"/>
      <point x="485.84905660377365" y="435.77830188679246" type="curve"/>
      <point x="479.0943396226415" y="406.8820754716981"/>
      <point x="472.21698113207543" y="381.495283018868"/>
      <point x="465.4622641509434" y="354.35377358490564" type="curve"/>
      <point x="461.3396226415094" y="337.8632075471698" type="line"/>
      <point x="490.0566037735849" y="337.8632075471698"/>
      <point x="519.3349056603772" y="337.8632075471698"/>
      <point x="548.0518867924527" y="337.8632075471698" type="curve"/>
      <point x="555.0518867924527" y="337.8632075471698"/>
      <point x="560.0518867924527" y="341.8632075471698"/>
      <point x="562.0518867924527" y="348.8632075471698" type="curve" smooth="yes"/>
      <point x="602.0330188679244" y="510.3490566037736" type="line" smooth="yes"/>
      <point x="603.0330188679244" y="514.3490566037736"/>
      <point x="603.5943396226414" y="518.9103773584906"/>
      <point x="599.0330188679245" y="523.4716981132076" type="curve" smooth="yes"/>
      <point x="589.9103773584907" y="532.5943396226415"/>
      <point x="564.4009433962264" y="541.6650943396227"/>
    </contour>
  </outline>
</glyph>
<glyph name="z" format="2">
  <advance width="600.0"/>
  <unicode hex="007A"/>
  <outline>
    <contour>
      <point x="191.49056603773585" y="533.8584905660377" type="line"/>
      <point x="185.68396226415095" y="506.70283018867923"/>
      <point x="179.31603773584908" y="481.42452830188677"/>
      <point x="173.50943396226415" y="454.2688679245283" type="curve" smooth="yes"/>
      <point x="172.07075471698113" y="447.2688679245283"/>
      <point x="175.6320754716981" y="443.2688679245283"/>
      <point x="180.94811320754715" y="443.2688679245283" type="curve" smooth="yes"/>
      <point x="357.2547169811321" y="443.2688679245283" type="line" smooth="yes"/>
      <point x="402.48113207547163" y="443.2688679245283"/>
      <point x="430.4292452830189" y="448.0754716981132"/>
      <point x="469.6745283018868" y="459.12735849056605" type="curve"/>
      <point x="469.67452830188677" y="444.63679245283015" type="line"/>
      <point x="311.3726415094339" y="320.80660377358487"/>
      <point x="167.9811320754717" y="207.27358490566036"/>
      <point x="37.75471698113207" y="108.88679245283019" type="curve"/>
      <point x="10.844339622641506" y="3.1226415094339623" type="line" smooth="yes"/>
      <point x="8.721698113207541" y="-5.806603773584905"/>
      <point x="13.528301886792455" y="-9.806603773584907"/>
      <point x="20.65094339622642" y="-9.806603773584907" type="curve" smooth="yes"/>
      <point x="24.650943396226417" y="-9.806603773584905"/>
      <point x="28.773584905660382" y="-8.245283018867925"/>
      <point x="34.08962264150943" y="-3.929245283018868" type="curve"/>
      <point x="227.688679245283" y="150.51415094339626"/>
      <point x="414.6509433962264" y="299.8301886792453"/>
      <point x="557.5094339622641" y="411.33962264150944" type="curve"/>
      <point x="584.8584905660377" y="522.8584905660377" type="line" smooth="yes"/>
      <point x="586.2971698113207" y="529.2971698113207"/>
      <point x="583.8584905660377" y="533.8584905660377"/>
      <point x="576.8584905660377" y="533.8584905660377" type="curve" smooth="yes"/>
    </contour>
    <contour>
      <point x="225.97641509433961" y="162.62735849056602" type="line"/>
      <point x="130.70283018867923" y="87.43867924528301" type="line"/>
      <point x="187.6320754716981" y="19.87735849056604"/>
      <point x="230.85849056603772" y="0.0"/>
      <point x="311.63207547169804" y="0.0" type="curve" smooth="yes"/>
      <point x="358.17452830188677" y="0.0"/>
      <point x="454.9103773584906" y="0.0"/>
      <point x="461.9103773584905" y="0.0" type="curve" smooth="yes"/>
      <point x="468.9103773584905" y="0.0"/>
      <point x="473.9103773584905" y="4.0"/>
      <point x="475.9103773584905" y="11.0" type="curve" smooth="yes"/>
      <point x="477.4716981132075" y="19.12264150943396"/>
      <point x="492.1367924528301" y="79.46698113207547"/>
      <point x="495.1367924528301" y="91.90566037735849" type="curve"/>
      <point x="480.3301886792452" y="91.90566037735849" type="line"/>
      <point x="430.4198113207547" y="91.90566037735849"/>
      <point x="366.6650943396226" y="91.90566037735849"/>
      <point x="316.75471698113205" y="91.90566037735849" type="curve" smooth="yes"/>
      <point x="270.9433962264151" y="91.90566037735849"/>
      <point x="260.3820754716981" y="95.97641509433963"/>
      <point x="225.9764150943396" y="129.7688679245283" type="curve"/>
    </contour>
    <contour>
      <point x="158.7216981132075" y="568.2452830188679" type="line"/>
      <point x="147.2830188679245" y="523.3679245283018"/>
      <point x="125.23113207547168" y="436.1603773584906"/>
      <point x="114.23113207547168" y="391.28301886792457" type="curve" smooth="yes"/>
      <point x="112.23113207547169" y="385.28301886792457"/>
      <point x="116.23113207547168" y="380.28301886792457"/>
      <point x="122.23113207547168" y="380.28301886792457" type="curve" smooth="yes"/>
      <point x="149.26415094339623" y="380.28301886792457"/>
      <point x="181.91037735849056" y="380.28301886792457"/>
      <point x="208.94339622641508" y="380.28301886792457" type="curve"/>
      <point x="220.3820754716981" y="425.1603773584906"/>
      <point x="241.99528301886792" y="512.3679245283018"/>
      <point x="253.43396226415095" y="557.2452830188679" type="curve" smooth="yes"/>
      <point x="255.43396226415095" y="564.2452830188679"/>
      <point x="252.43396226415095" y="568.2452830188679"/>
      <point x="245.43396226415095" y="568.2452830188679" type="curve" smooth="yes"/>
    </contour>
  </outline>
</glyph>
<glyph name="bar" format="2">
  <advance width="600.0"/>
  <unicode hex="007C"/>
  <outline>
    <contour>
      <point x="367.0047169811321" y="760.0" type="curve"/>
      <point x="358.44339622641513" y="725.316037735849"/>
      <point x="349.8820754716981" y="691.1933962264151"/>
      <point x="340.8820754716981" y="656.5094339622641" type="curve" smooth="yes"/>
      <point x="274.44339622641513" y="388.1933962264151"/>
      <point x="206.44339622641508" y="118.87735849056604"/>
      <point x="139.56603773584905" y="-149.43867924528303" type="curve" smooth="yes"/>
      <point x="137.56603773584905" y="-156.438679245283"/>
      <point x="140.56603773584905" y="-160.43867924528303"/>
      <point x="147.56603773584905" y="-160.43867924528303" type="curve" smooth="yes"/>
      <point x="181.3349056603774" y="-160.43867924528303"/>
      <point x="214.83490566039194" y="-160.43867924528303"/>
      <point x="248.74999999999997" y="-160.43867924528303" type="curve"/>
      <point x="324.311320754717" y="142.56132075471697"/>
      <point x="400.75" y="446.0"/>
      <point x="475.75" y="749.0" type="curve" smooth="yes"/>
      <point x="477.75" y="756.0"/>
      <point x="474.75" y="760.0"/>
      <point x="467.75" y="760.0" type="curve" smooth="yes"/>
      <point x="433.9811320754717" y="760.0"/>
      <point x="400.7735849056604" y="760.0"/>
    </contour>
  </outline>
</glyph>
<glyph name="brokenbar" format="2">
  <advance width="600.0"/>
  <unicode hex="00A6"/>
  <outline>
    <contour>
      <point x="367.0576606604321" y="760.0" type="curve"/>
      <point x="358.8053617901321" y="727.0"/>
      <point x="350.5530629198321" y="694.0"/>
      <point x="342.3007640495321" y="661.0" type="curve" smooth="yes"/>
      <point x="272.0311888207321" y="380.0" type="line" smooth="yes"/>
      <point x="270.2807011816321" y="373.0"/>
      <point x="273.2804225306321" y="369.0"/>
      <point x="280.2804225306321" y="369.0" type="curve" smooth="yes"/>
      <point x="313.6616156893207" y="369.0"/>
      <point x="346.86313348450426" y="369.0"/>
      <point x="381.0257055495" y="369.0" type="curve"/>
      <point x="476.0521773892" y="749.0" type="line" smooth="yes"/>
      <point x="476.8023863774" y="752.0"/>
      <point x="476.5525953656" y="755.0"/>
      <point x="475.0527346911" y="757.0" type="curve" smooth="yes"/>
      <point x="473.5528740165" y="759.0"/>
      <point x="470.8029436793" y="760.0"/>
      <point x="467.8029436793" y="760.0" type="curve" smooth="yes"/>
      <point x="433.64037161430423" y="760.0"/>
      <point x="400.4388538191207" y="760.0"/>
    </contour>
    <contour>
      <point x="234.77080907313206" y="231.0" type="curve"/>
      <point x="139.74433723353206" y="-149.0" type="line"/>
      <point x="137.99384959433206" y="-156.0"/>
      <point x="140.99357094343208" y="-160.0"/>
      <point x="147.99357094343205" y="-160.0" type="curve" smooth="yes"/>
      <point x="181.20111811324335" y="-160.0"/>
      <point x="214.4086652830547" y="-160.0"/>
      <point x="248.7388539623" y="-160.0" type="curve"/>
      <point x="343.7653258019" y="220.0" type="line" smooth="yes"/>
      <point x="345.515813441" y="227.0"/>
      <point x="342.516092092" y="231.0"/>
      <point x="335.516092092" y="231.0" type="curve"/>
      <point x="301.1859034127547" y="231.0"/>
      <point x="267.9783562429434" y="231.0"/>
    </contour>
  </outline>
</glyph>
<glyph name="copyright" format="2">
  <advance width="600.0"/>
  <unicode hex="00A9"/>
  <outline>
    <contour>
      <point x="390.6132075471698" y="715.0" type="curve" smooth="yes"/>
      <point x="209.80660377358492" y="715.0"/>
      <point x="106.58018867924528" y="624.8962264150944"/>
      <point x="58.14150943396227" y="432.82547169811323" type="curve" smooth="yes"/>
      <point x="17.264150943396228" y="271.0" type="line" smooth="yes"/>
      <point x="-26.735849056603772" y="96.36792452830188"/>
      <point x="63.24528301886793" y="-15.0"/>
      <point x="241.12264150943398" y="-15.0" type="curve" smooth="yes"/>
      <point x="427.9481132075472" y="-15.0"/>
      <point x="533.2971698113208" y="74.91037735849056"/>
      <point x="582.1745283018869" y="267.17452830188677" type="curve" smooth="yes"/>
      <point x="623.0518867924528" y="429.0" type="line" smooth="yes"/>
      <point x="666.367924528302" y="600.8962264150944"/>
      <point x="581.8066037735848" y="715.0"/>
    </contour>
    <contour>
      <point x="389.4198113207547" y="661.5801886792453" type="curve" smooth="yes"/>
      <point x="464.50943396226415" y="661.5801886792453"/>
      <point x="518.6509433962264" y="640.1415094339623"/>
      <point x="547.7735849056604" y="604.0707547169811" type="curve"/>
      <point x="578.1415094339623" y="567.1933962264151"/>
      <point x="585.3867924528302" y="512.316037735849"/>
      <point x="568.9481132075471" y="445.0" type="curve" smooth="yes"/>
      <point x="520.9481132075471" y="254.0" type="line" smooth="yes"/>
      <point x="481.63207547169804" y="97.1745283018868"/>
      <point x="394.5990566037736" y="39.54245283018868"/>
      <point x="247.07075471698113" y="39.54245283018868" type="curve" smooth="yes"/>
      <point x="179.0" y="39.54245283018868"/>
      <point x="123.29716981132074" y="57.9811320754717"/>
      <point x="93.29716981132077" y="92.29716981132076" type="curve"/>
      <point x="61.735849056603776" y="129.29716981132074"/>
      <point x="54.490566037735846" y="186.05188679245282"/>
      <point x="71.36792452830188" y="255.0" type="curve" smooth="yes"/>
      <point x="119.36792452830188" y="446.0" type="line" smooth="yes"/>
      <point x="155.87735849056602" y="592.0377358490566"/>
      <point x="234.73584905660377" y="661.5801886792453"/>
    </contour>
    <contour>
      <point x="377.3867924528302" y="566.0" type="curve" smooth="yes"/>
      <point x="281.9481132075471" y="566.0"/>
      <point x="230.50943396226415" y="516.7547169811321"/>
      <point x="208.50943396226415" y="428.75471698113205" type="curve" smooth="yes"/>
      <point x="170.07075471698113" y="273.0" type="line" smooth="yes"/>
      <point x="148.07075471698113" y="186.68396226415095"/>
      <point x="186.6320754716981" y="134.0"/>
      <point x="272.438679245283" y="134.0" type="curve" smooth="yes"/>
      <point x="327.561320754717" y="134.0"/>
      <point x="364.1933962264151" y="146.43867924528303"/>
      <point x="389.877358490566" y="167.07075471698113" type="curve" smooth="yes"/>
      <point x="396.3160377358491" y="171.94811320754715"/>
      <point x="397.87735849056605" y="176.87735849056602"/>
      <point x="400.3160377358491" y="187.1933962264151" type="curve" smooth="yes"/>
      <point x="405.0" y="206.36792452830187"/>
      <point x="410.6839622641509" y="228.78773584905662"/>
      <point x="415.9292452830189" y="249.64622641509433" type="curve"/>
      <point x="403.9292452830189" y="249.64622641509433" type="line"/>
      <point x="367.49056603773585" y="216.01415094339623"/>
      <point x="335.4198113207547" y="201.89150943396226"/>
      <point x="292.9811320754717" y="201.89150943396226" type="curve" smooth="yes"/>
      <point x="268.5943396226415" y="201.89150943396226"/>
      <point x="252.4009433962264" y="207.33018867924528"/>
      <point x="244.64622641509436" y="218.64622641509433" type="curve"/>
      <point x="235.45283018867926" y="229.83962264150944"/>
      <point x="235.45283018867926" y="248.10377358490567"/>
      <point x="242.7688679245283" y="275.6839622641509" type="curve" smooth="yes"/>
      <point x="281.64622641509436" y="429.75471698113205" type="line" smooth="yes"/>
      <point x="293.27830188679246" y="476.2830188679245"/>
      <point x="318.6650943396226" y="500.35377358490564"/>
      <point x="363.6320754716981" y="500.35377358490564" type="curve" smooth="yes"/>
      <point x="391.08962264150944" y="500.35377358490564"/>
      <point x="409.6698113207547" y="493.47641509433964"/>
      <point x="422.3018867924528" y="478.3349056603774" type="curve"/>
      <point x="414.9858490566038" y="518.6509433962265" type="line"/>
      <point x="405.7924528301887" y="482.12264150943395"/>
      <point x="400.23113207547175" y="457.75471698113205"/>
      <point x="394.10849056603774" y="434.3867924528302" type="curve" smooth="yes"/>
      <point x="392.10849056603774" y="427.3867924528302"/>
      <point x="394.5471698113207" y="423.3867924528302"/>
      <point x="402.10849056603774" y="423.3867924528302" type="curve" smooth="yes"/>
      <point x="420.8443396226415" y="423.3867924528302"/>
      <point x="439.5801886792453" y="423.3867924528302"/>
      <point x="458.316037735849" y="423.3867924528302" type="curve"/>
      <point x="465.877358490566" y="452.6320754716981"/>
      <point x="473.877358490566" y="483.9481132075471"/>
      <point x="480.438679245283" y="513.1933962264151" type="curve" smooth="yes"/>
      <point x="482.438679245283" y="518.1933962264151"/>
      <point x="481.438679245283" y="522.7547169811321"/>
      <point x="477.877358490566" y="527.316037735849" type="curve" smooth="yes"/>
      <point x="460.0" y="549.1933962264151"/>
      <point x="424.75471698113205" y="566.0"/>
    </contour>
  </outline>
</glyph>
<glyph name="logicalnot" format="2">
  <advance width="600.0"/>
  <unicode hex="00AC"/>
  <outline>
    <contour>
      <point x="109.1933962264151" y="438.0660377358491" type="line"/>
      <point x="101.70283018867926" y="408.7877358490566"/>
      <point x="94.33490566037736" y="380.0707547169811"/>
      <point x="87.4056603773585" y="350.79245283018867" type="curve" smooth="yes"/>
      <point x="85.4056603773585" y="343.79245283018867"/>
      <point x="88.4056603773585" y="339.79245283018867"/>
      <point x="95.4056603773585" y="339.79245283018867" type="curve" smooth="yes"/>
      <point x="488.0047169811321" y="339.79245283018867" type="line"/>
      <point x="459.9009433962264" y="380.9292452830189" type="line"/>
      <point x="440.9009433962264" y="304.8066037735849"/>
      <point x="421.33962264150944" y="227.68396226415095"/>
      <point x="402.33962264150944" y="151.56132075471697" type="curve" smooth="yes"/>
      <point x="400.33962264150944" y="144.56132075471697"/>
      <point x="403.33962264150944" y="140.56132075471697"/>
      <point x="410.33962264150944" y="140.56132075471697" type="curve" smooth="yes"/>
      <point x="441.1447169811321" y="140.56132075471697"/>
      <point x="469.614716981132" y="140.56132075471697"/>
      <point x="500.4198113207547" y="140.56132075471697" type="curve"/>
      <point x="524.6650943396227" y="236.10377358490567"/>
      <point x="548.3490566037735" y="331.52358490566036"/>
      <point x="572.1556603773585" y="427.0660377358491" type="curve" smooth="yes"/>
      <point x="574.1556603773585" y="434.0660377358491"/>
      <point x="571.1556603773585" y="438.0660377358491"/>
      <point x="564.1556603773585" y="438.0660377358491" type="curve" smooth="yes"/>
    </contour>
  </outline>
</glyph>
<glyph name="oslash" format="2">
  <advance width="600.0"/>
  <unicode hex="00F8"/>
  <anchor x="357.89622641509436" y="535.877358490566" name="top"/>
  <outline>
    <contour>
      <point x="590.9433962264151" y="596.0330188679245" type="curve"/>
      <point x="574.75" y="596.0330188679245"/>
      <point x="528.8962264150944" y="596.0330188679245"/>
      <point x="510.0896226415095" y="596.0330188679245" type="curve" smooth="yes"/>
      <point x="499.0896226415095" y="596.0330188679245"/>
      <point x="496.08962264150944" y="594.0330188679245"/>
      <point x="484.4056603773585" y="578.7877358490566" type="curve"/>
      <point x="465.47641509433964" y="553.0518867924528"/>
      <point x="444.7405660377359" y="525.6320754716982"/>
      <point x="423.5660377358491" y="496.52830188679246" type="curve"/>
      <point x="422.91193428065327" y="490.5733495872231"/>
      <point x="422.7107072287807" y="483.67665041277684"/>
      <point x="422.0566037735849" y="477.72169811320754" type="curve"/>
      <point x="363.24528301886795" y="404.0141509433962"/>
      <point x="301.75" y="326.938679245283"/>
      <point x="239.57075471698113" y="249.30188679245282" type="curve" smooth="yes"/>
      <point x="206.9575471698113" y="208.4433962264151"/>
      <point x="185.04716981132074" y="166.62264150943398"/>
      <point x="176.92452830188682" y="130.3254716981132" type="curve"/>
      <point x="187.2924528301887" y="145.06132075471697" type="line"/>
      <point x="137.27830188679243" y="145.06132075471697" type="line"/>
      <point x="97.77358490566037" y="60.05188679245283" type="line"/>
      <point x="74.70283018867926" y="28.66509433962264"/>
      <point x="30.967184741959425" y="-26.278628513315567"/>
      <point x="3.7924528301886737" y="-61.613207547169814" type="curve"/>
      <point x="13.792452830188674" y="-61.613207547169814"/>
      <point x="69.64622641509433" y="-61.613207547169814"/>
      <point x="82.52358490566039" y="-61.613207547169814" type="curve" smooth="yes"/>
      <point x="90.08490566037736" y="-61.613207547169814"/>
      <point x="92.52358490566039" y="-60.613207547169814"/>
      <point x="99.40094339622642" y="-52.735849056603776" type="curve" smooth="yes"/>
      <point x="118.40094339622642" y="-28.174528301886795"/>
      <point x="145.50471698113208" y="7.174528301886793"/>
      <point x="171.24056603773585" y="40.155660377358494" type="curve"/>
      <point x="173.87252263411085" y="46.928888657049534"/>
      <point x="177.8416046234665" y="52.832785143637736"/>
      <point x="180.60849056603774" y="59.75000000000001" type="curve"/>
      <point x="243.27830188679243" y="138.00000000000003"/>
      <point x="305.82547169811323" y="218.37264150943398"/>
      <point x="367.372641509434" y="296.6226415094339" type="curve" smooth="yes"/>
      <point x="397.0754716981132" y="334.0801886792452"/>
      <point x="415.75943396226415" y="373.99056603773585"/>
      <point x="420.51415094339626" y="406.97169811320754" type="curve"/>
      <point x="405.8301886792453" y="389.67452830188677" type="line"/>
      <point x="486.6132075471698" y="389.67452830188677" type="line"/>
      <point x="495.66509433962267" y="475.50943396226415" type="line"/>
      <point x="526.5943396226415" y="513.438679245283"/>
      <point x="557.2075471698114" y="553.6132075471698"/>
    </contour>
    <component base="o"/>
  </outline>
</glyph>
<glyph name="dotlessi" format="2">
  <advance width="600.0"/>
  <unicode hex="0131"/>
  <outline>
    <contour>
      <point x="129.72169811320754" y="533.8584905660377" type="curve"/>
      <point x="122.79245283018868" y="507.14150943396226"/>
      <point x="115.86320754716981" y="478.8632075471698"/>
      <point x="108.93396226415094" y="452.1462264150943" type="curve" smooth="yes"/>
      <point x="106.93396226415094" y="444.58490566037733"/>
      <point x="110.93396226415094" y="441.1462264150943"/>
      <point x="117.49528301886792" y="441.1462264150943" type="curve" smooth="yes"/>
      <point x="169.8820754716981" y="441.1462264150943"/>
      <point x="223.2688679245283" y="441.1462264150943"/>
      <point x="276.09433962264154" y="441.1462264150943" type="curve"/>
      <point x="295.70754716981133" y="441.1462264150943" type="line"/>
      <point x="270.88207547169816" y="343.0377358490566"/>
      <point x="247.24999999999997" y="248.87735849056608"/>
      <point x="222.42452830188677" y="147.69811320754718" type="curve" smooth="yes"/>
      <point x="202.4952830188679" y="66.98113207547169"/>
      <point x="226.79245283018867" y="0.0"/>
      <point x="350.438679245283" y="0.0" type="curve" smooth="yes"/>
      <point x="396.83962264150944" y="0.0"/>
      <point x="452.71698113207543" y="0.0"/>
      <point x="458.7169811320755" y="0.0" type="curve" smooth="yes"/>
      <point x="465.4009433962264" y="0.0"/>
      <point x="470.7169811320755" y="2.6839622641509435"/>
      <point x="472.7169811320755" y="11.0" type="curve" smooth="yes"/>
      <point x="479.64622641509436" y="38.59433962264151"/>
      <point x="486.1367924528302" y="65.55660377358491"/>
      <point x="493.0660377358491" y="92.7122641509434" type="curve"/>
      <point x="476.57547169811323" y="92.7122641509434" type="line"/>
      <point x="440.08490566037733" y="92.7122641509434"/>
      <point x="404.03301886792445" y="92.7122641509434"/>
      <point x="367.54245283018867" y="92.7122641509434" type="curve" smooth="yes"/>
      <point x="346.89150943396226" y="92.7122641509434"/>
      <point x="336.3820754716981" y="95.58962264150945"/>
      <point x="329.75" y="102.22169811320755" type="curve" smooth="yes"/>
      <point x="321.2405660377359" y="110.7311320754717"/>
      <point x="321.36320754716985" y="121.24056603773585"/>
      <point x="326.99528301886795" y="143.33018867924528" type="curve" smooth="yes"/>
      <point x="359.311320754717" y="272.03301886792457"/>
      <point x="389.75" y="396.3490566037736"/>
      <point x="421.62735849056605" y="522.8584905660377" type="curve" smooth="yes"/>
      <point x="423.62735849056605" y="530.8584905660377"/>
      <point x="419.62735849056605" y="533.8584905660377"/>
      <point x="413.62735849056605" y="533.8584905660377" type="curve" smooth="yes"/>
      <point x="319.03301886792457" y="533.8584905660377"/>
      <point x="224.31603773584905" y="533.8584905660377"/>
    </contour>
  </outline>
</glyph>
<glyph name="Ldot" format="2">
  <advance width="600.0"/>
  <unicode hex="013F"/>
  <outline>
    <contour>
      <point x="405.8962264150943" y="465.8207547169812" type="curve"/>
      <point x="378.79245283018867" y="357.52830188679246" type="line" smooth="yes"/>
      <point x="376.79245283018867" y="350.52830188679246"/>
      <point x="379.79245283018867" y="346.52830188679246"/>
      <point x="386.79245283018867" y="346.52830188679246" type="curve" smooth="yes"/>
      <point x="428.316037735849" y="346.52830188679246"/>
      <point x="476.0141509433962" y="346.52830188679246"/>
      <point x="517.5377358490566" y="346.52830188679246" type="curve"/>
      <point x="544.6415094339623" y="454.8207547169812" type="line" smooth="yes"/>
      <point x="546.6415094339623" y="461.8207547169812"/>
      <point x="543.6415094339623" y="465.8207547169812"/>
      <point x="536.6415094339623" y="465.8207547169812" type="curve"/>
      <point x="495.11792452830184" y="465.8207547169812"/>
      <point x="447.41981132075466" y="465.8207547169812"/>
    </contour>
    <component base="L"/>
  </outline>
</glyph>
<glyph name="oe" format="2">
  <advance width="600.0"/>
  <unicode hex="0153"/>
  <outline>
    <contour>
      <point x="250.1745283018868" y="544.9811320754717" type="curve" smooth="yes"/>
      <point x="154.50943396226415" y="544.9811320754717"/>
      <point x="74.2122641509434" y="470.36792452830184"/>
      <point x="45.52830188679245" y="353.3867924528302" type="curve" smooth="yes"/>
      <point x="-0.5424528301886791" y="170.3490566037736" type="line" smooth="yes"/>
      <point x="-27.349056603773583" y="62.43867924528301"/>
      <point x="16.650943396226417" y="-11.122641509433961"/>
      <point x="108.31603773584905" y="-11.122641509433961" type="curve" smooth="yes"/>
      <point x="170.31603773584908" y="-11.122641509433961"/>
      <point x="223.31603773584902" y="24.070754716981135"/>
      <point x="267.80660377358487" y="94.94811320754717" type="curve"/>
      <point x="245.70283018867923" y="94.94811320754717" type="line"/>
      <point x="255.31603773584905" y="31.264150943396224"/>
      <point x="310.6320754716981" y="-11.122641509433961"/>
      <point x="383.122641509434" y="-11.122641509433961" type="curve" smooth="yes"/>
      <point x="439.03301886792457" y="-11.122641509433961"/>
      <point x="483.22641509433964" y="4.877358490566037"/>
      <point x="507.6132075471698" y="21.0188679245283" type="curve" smooth="yes"/>
      <point x="511.85849056603774" y="23.580188679245282"/>
      <point x="513.8584905660377" y="27.141509433962263"/>
      <point x="514.2971698113208" y="30.141509433962263" type="curve"/>
      <point x="520.6650943396227" y="55.613207547169814"/>
      <point x="527.5943396226415" y="82.08490566037736"/>
      <point x="533.9622641509435" y="107.5566037735849" type="curve"/>
      <point x="517.4716981132075" y="107.5566037735849" type="line"/>
      <point x="475.2264150943396" y="85.85377358490567"/>
      <point x="447.08490566037733" y="79.66037735849058"/>
      <point x="400.4716981132076" y="79.66037735849058" type="curve" smooth="yes"/>
      <point x="370.96226415094344" y="79.66037735849058"/>
      <point x="348.6462264150944" y="87.85377358490565"/>
      <point x="335.3301886792453" y="104.60849056603774" type="curve" smooth="yes"/>
      <point x="320.25943396226415" y="123.67924528301887"/>
      <point x="316.8207547169811" y="154.62735849056605"/>
      <point x="327.2594339622642" y="197.25943396226415" type="curve"/>
      <point x="366.96226415094344" y="355.50943396226415" type="line" smooth="yes"/>
      <point x="383.03301886792457" y="420.47641509433964"/>
      <point x="418.877358490566" y="457.00471698113205"/>
      <point x="466.28301886792445" y="457.00471698113205" type="curve" smooth="yes"/>
      <point x="485.79245283018867" y="457.00471698113205"/>
      <point x="500.61792452830184" y="450.811320754717"/>
      <point x="509.25" y="439.74056603773585" type="curve" smooth="yes"/>
      <point x="520.004716981132" y="424.10849056603774"/>
      <point x="518.7594339622642" y="397.5990566037736"/>
      <point x="509.4433962264151" y="356.6509433962264" type="curve" smooth="yes"/>
      <point x="496.4245283018868" y="302.89150943396226" type="line"/>
      <point x="457.93396226415086" y="302.89150943396226"/>
      <point x="419.566037735849" y="302.89150943396226"/>
      <point x="380.6367924528302" y="302.89150943396226" type="curve" smooth="yes"/>
      <point x="352.0566037735849" y="302.89150943396226"/>
      <point x="324.03773584905656" y="302.89150943396226"/>
      <point x="295.45754716981133" y="302.89150943396226" type="curve"/>
      <point x="281.45754716981133" y="231.75471698113208" type="line"/>
      <point x="313.8584905660377" y="231.75471698113208" type="line"/>
      <point x="394.9811320754717" y="231.75471698113208"/>
      <point x="475.9811320754717" y="231.75471698113208"/>
      <point x="557.1037735849056" y="231.75471698113208" type="curve" smooth="yes"/>
      <point x="563.5424528301886" y="231.75471698113208"/>
      <point x="568.5424528301887" y="235.75471698113208"/>
      <point x="569.5424528301887" y="242.1933962264151" type="curve" smooth="yes"/>
      <point x="598.6132075471697" y="355.35377358490564" type="line" smooth="yes"/>
      <point x="628.2264150943396" y="472.8066037735849"/>
      <point x="587.2264150943397" y="544.9811320754717"/>
      <point x="491.43867924528297" y="544.9811320754717" type="curve" smooth="yes"/>
      <point x="433.12264150943395" y="544.9811320754717"/>
      <point x="374.6839622641509" y="508.4716981132074"/>
      <point x="335.3160377358491" y="448.52358490566036" type="curve"/>
      <point x="355.85849056603774" y="448.52358490566036" type="line"/>
      <point x="348.24528301886795" y="510.7877358490567"/>
      <point x="311.1226415094339" y="544.9811320754717"/>
    </contour>
    <contour>
      <point x="89.74999999999999" y="173.9811320754717" type="curve" smooth="yes"/>
      <point x="134.25943396226413" y="352.2641509433962" type="line" smooth="yes"/>
      <point x="153.0141509433962" y="424.3537735849057"/>
      <point x="183.98113207547172" y="456.5660377358491"/>
      <point x="233.14150943396228" y="456.5660377358491" type="curve" smooth="yes"/>
      <point x="250.77358490566036" y="456.5660377358491"/>
      <point x="264.4056603773585" y="450.811320754717"/>
      <point x="272.4764150943396" y="439.1792452830189" type="curve" smooth="yes"/>
      <point x="285.10849056603774" y="421.6698113207547"/>
      <point x="286.8632075471698" y="392.40566037735846"/>
      <point x="276.98584905660374" y="353.14150943396226" type="curve" smooth="yes"/>
      <point x="232.47641509433961" y="174.85849056603774" type="line" smooth="yes"/>
      <point x="216.4056603773585" y="113.01415094339623"/>
      <point x="181.68396226415095" y="77.29245283018868"/>
      <point x="136.47169811320754" y="77.29245283018868" type="curve" smooth="yes"/>
      <point x="117.52358490566037" y="77.29245283018868"/>
      <point x="103.01415094339623" y="83.48584905660377"/>
      <point x="94.38207547169812" y="95.55660377358491" type="curve"/>
      <point x="82.31132075471699" y="110.9433962264151"/>
      <point x="80.43396226415094" y="137.08490566037736"/>
    </contour>
  </outline>
</glyph>
<glyph name="tbar" format="2">
  <advance width="600.0"/>
  <unicode hex="0167"/>
  <outline>
    <contour>
      <point x="80.40566037735853" y="315.15566037735846" type="line"/>
      <point x="74.47641509433964" y="291.2452830188679"/>
      <point x="68.66981132075473" y="269.4575471698113"/>
      <point x="62.86320754716982" y="245.54716981132077" type="curve" smooth="yes"/>
      <point x="60.86320754716982" y="238.54716981132077"/>
      <point x="63.86320754716982" y="234.54716981132077"/>
      <point x="70.86320754716984" y="234.54716981132077" type="curve" smooth="yes"/>
      <point x="487.2641509433962" y="234.54716981132077" type="line"/>
      <point x="493.6320754716981" y="258.4575471698113"/>
      <point x="499.43867924528297" y="280.2452830188679"/>
      <point x="505.2452830188679" y="304.15566037735846" type="curve" smooth="yes"/>
      <point x="506.80660377358487" y="311.15566037735846"/>
      <point x="503.80660377358487" y="315.15566037735846"/>
      <point x="496.80660377358487" y="315.15566037735846" type="curve"/>
    </contour>
    <component base="t"/>
  </outline>
</glyph>
<glyph name="florin" format="2">
  <advance width="600.0"/>
  <unicode hex="0192"/>
  <outline>
    <contour>
      <point x="172.0" y="487.0471698113207" type="line"/>
      <point x="167.31603773584905" y="467.627358490566"/>
      <point x="156.89622641509433" y="424.50943396226415"/>
      <point x="152.21226415094338" y="406.77358490566036" type="curve" smooth="yes"/>
      <point x="150.21226415094338" y="398.6509433962264"/>
      <point x="153.21226415094338" y="394.08962264150944"/>
      <point x="161.33490566037736" y="394.08962264150944" type="curve" smooth="yes"/>
      <point x="548.8962264150944" y="394.08962264150944" type="line"/>
      <point x="554.1415094339623" y="413.50943396226415"/>
      <point x="563.4386792452831" y="453.8207547169811"/>
      <point x="569.2452830188679" y="476.0471698113207" type="curve" smooth="yes"/>
      <point x="571.2452830188679" y="483.0471698113207"/>
      <point x="568.2452830188679" y="487.0471698113207"/>
      <point x="561.2452830188679" y="487.0471698113207" type="curve"/>
    </contour>
    <contour>
      <point x="43.82547169811321" y="-153.55188679245285" type="curve" smooth="yes"/>
      <point x="10.070754716981131" y="-153.55188679245285"/>
      <point x="-14.24528301886792" y="-148.1132075471698"/>
      <point x="-36.0" y="-136.35849056603772" type="curve"/>
      <point x="-52.490566037735846" y="-136.35849056603772" type="line"/>
      <point x="-56.73584905660377" y="-153.33962264150944"/>
      <point x="-67.71698113207547" y="-196.8254716981132"/>
      <point x="-71.83962264150942" y="-213.75471698113208" type="curve" smooth="yes"/>
      <point x="-74.40094339622641" y="-223.43867924528303"/>
      <point x="-73.40094339622641" y="-225.43867924528303"/>
      <point x="-66.59433962264151" y="-229.561320754717" type="curve" smooth="yes"/>
      <point x="-48.910377358490564" y="-240.438679245283"/>
      <point x="-12.174528301886792" y="-250.0"/>
      <point x="38.264150943396224" y="-250.0" type="curve" smooth="yes"/>
      <point x="142.73584905660377" y="-250.0"/>
      <point x="215.64622641509433" y="-211.26415094339623"/>
      <point x="262.75" y="-35.83018867924528" type="curve" smooth="yes"/>
      <point x="316.1741273584906" y="166.52145283018868"/>
      <point x="389.8915094339623" y="440.14150943396226"/>
      <point x="415.2075471698113" y="538.1792452830189" type="curve" smooth="yes"/>
      <point x="429.25943396226415" y="591.4575471698113"/>
      <point x="443.0141509433962" y="615.5283018867924"/>
      <point x="464.45283018867923" y="631.2830188679245" type="curve"/>
      <point x="485.89150943396226" y="648.0377358490566"/>
      <point x="512.1556603773585" y="654.6698113207547"/>
      <point x="549.8584905660376" y="654.6698113207547" type="curve" smooth="yes"/>
      <point x="583.7358490566038" y="654.6698113207547"/>
      <point x="605.9292452830189" y="648.9150943396226"/>
      <point x="628.1745283018868" y="641.0377358490565" type="curve"/>
      <point x="644.6650943396226" y="641.0377358490565" type="line"/>
      <point x="648.9103773584906" y="657.3349056603773"/>
      <point x="659.7688679245283" y="702.0141509433962"/>
      <point x="663.3301886792452" y="716.3820754716982" type="curve" smooth="yes"/>
      <point x="664.8915094339623" y="722.1886792452831"/>
      <point x="665.0141509433962" y="725.75"/>
      <point x="659.5235849056603" y="728.872641509434" type="curve" smooth="yes"/>
      <point x="644.1037735849056" y="737.872641509434"/>
      <point x="606.5943396226415" y="748.066037735849"/>
      <point x="552.8396226415095" y="748.066037735849" type="curve" smooth="yes"/>
      <point x="427.3867924528302" y="748.066037735849"/>
      <point x="353.3537735849057" y="692.2594339622641"/>
      <point x="317.37264150943395" y="556.683962264151" type="curve" smooth="yes"/>
      <point x="279.3207547169811" y="415.50943396226415"/>
      <point x="204.7739716981132" y="135.31099056603773"/>
      <point x="154.00471698113205" y="-50.424528301886795" type="curve"/>
      <point x="130.74056603773585" y="-135.91981132075472"/>
      <point x="93.4056603773585" y="-153.55188679245285"/>
    </contour>
  </outline>
</glyph>
<glyph name="DZcaron" format="2">
  <advance width="600.0"/>
  <unicode hex="01C4"/>
  <outline>
    <contour>
      <point x="257.8066037735849" y="700.0" type="curve"/>
      <point x="218.3679245283019" y="700.0"/>
      <point x="151.24528301886792" y="700.0"/>
      <point x="126.1933962264151" y="700.0" type="curve"/>
      <point x="119.26415094339622" y="672.2830188679245"/>
      <point x="112.33490566037734" y="644.0047169811321"/>
      <point x="105.40566037735849" y="616.2877358490566" type="curve"/>
      <point x="103.96698113207546" y="609.2877358490566"/>
      <point x="106.96698113207546" y="605.2877358490566"/>
      <point x="113.96698113207546" y="605.2877358490566" type="curve" smooth="yes"/>
      <point x="139.50943396226415" y="605.2877358490566"/>
      <point x="188.16037735849056" y="605.2877358490566"/>
      <point x="230.84433962264148" y="605.2877358490566" type="curve" smooth="yes"/>
      <point x="255.98584905660377" y="605.2877358490566"/>
      <point x="272.811320754717" y="600.9716981132076"/>
      <point x="280.00471698113205" y="587.7783018867924" type="curve" smooth="yes"/>
      <point x="287.0754716981132" y="575.7075471698113"/>
      <point x="286.95283018867923" y="557.3207547169811"/>
      <point x="280.1981132075472" y="529.7405660377358" type="curve" smooth="yes"/>
      <point x="189.4245283018868" y="170.83962264150944" type="line" smooth="yes"/>
      <point x="174.1603773584906" y="108.66037735849056"/>
      <point x="155.45754716981133" y="94.7122641509434"/>
      <point x="107.64622641509433" y="94.7122641509434" type="curve" smooth="yes"/>
      <point x="93.75" y="94.7122641509434"/>
      <point x="86.11792452830188" y="94.7122641509434"/>
      <point x="79.11792452830188" y="94.7122641509434" type="curve"/>
      <point x="114.82075471698114" y="236.64622641509433"/>
      <point x="150.52358490566039" y="378.0188679245283"/>
      <point x="186.22641509433964" y="519.5141509433963" type="curve" smooth="yes"/>
      <point x="195.22641509433961" y="555.8301886792453"/>
      <point x="204.10377358490567" y="592.7075471698113"/>
      <point x="213.10377358490567" y="628.5849056603773" type="curve"/>
      <point x="226.47169811320754" y="647.4433962264151" type="line"/>
      <point x="139.35377358490567" y="700.0" type="line"/>
      <point x="72.74056603773585" y="435.6698113207547"/>
      <point x="18.547169811320753" y="222.77358490566039"/>
      <point x="-34.64622641509434" y="11.0" type="curve"/>
      <point x="-36.20754716981132" y="3.9999999999999996"/>
      <point x="-33.20754716981133" y="0.0"/>
      <point x="-26.20754716981132" y="0.0" type="curve" smooth="yes"/>
      <point x="-11.278301886792455" y="0.0"/>
      <point x="24.599056603773597" y="0.0"/>
      <point x="82.24528301886791" y="0.0" type="curve" smooth="yes"/>
      <point x="192.10377358490567" y="0.0"/>
      <point x="247.3490566037736" y="27.94811320754717"/>
      <point x="284.64622641509436" y="178.1367924528302" type="curve" smooth="yes"/>
      <point x="373.98113207547175" y="538.2830188679246" type="line" smooth="yes"/>
      <point x="400.9103773584906" y="646.561320754717"/>
      <point x="357.10377358490564" y="700.0"/>
    </contour>
    <contour>
      <point x="525.8584905660377" y="0.4386792452830188" type="line"/>
      <point x="533.3490566037735" y="30.400943396226417"/>
      <point x="540.8396226415094" y="59.801886792452834"/>
      <point x="548.3301886792453" y="89.76415094339623" type="curve" smooth="yes"/>
      <point x="550.3301886792453" y="96.76415094339623"/>
      <point x="547.3301886792453" y="100.76415094339623"/>
      <point x="540.3301886792452" y="100.76415094339623" type="curve"/>
      <point x="502.80660377358487" y="100.76415094339623" type="line"/>
      <point x="418.6981132075472" y="100.76415094339623"/>
      <point x="491.97641509433964" y="100.76415094339623"/>
      <point x="361.8490566037736" y="100.76415094339623" type="curve"/>
      <point x="371.2877358490566" y="73.88679245283019" type="line"/>
      <point x="389.72641509433964" y="146.76415094339623" type="line"/>
      <point x="344.60377358490564" y="58.57075471698114" type="line"/>
      <point x="384.72641509433964" y="120.3254716981132"/>
      <point x="437.5707547169811" y="194.01415094339623"/>
      <point x="509.9292452830189" y="310.5518867924528" type="curve" smooth="yes"/>
      <point x="582.9669811320754" y="430.0990566037736"/>
      <point x="626.6698113207547" y="501.8726415094339"/>
      <point x="670.3349056603773" y="579.4481132075471" type="curve"/>
      <point x="698.0518867924527" y="689.438679245283" type="line" smooth="yes"/>
      <point x="700.0518867924527" y="696.438679245283"/>
      <point x="697.0518867924527" y="700.438679245283"/>
      <point x="690.0518867924527" y="700.438679245283" type="curve"/>
      <point x="438.0518867924529" y="700.438679245283" type="line"/>
      <point x="422.9481132075472" y="631.4952830188679"/>
      <point x="417.4764150943396" y="600.1132075471698"/>
      <point x="474.64622641509436" y="600.1132075471698" type="curve"/>
      <point x="496.40094339622647" y="600.1132075471698" type="line"/>
      <point x="547.5141509433962" y="600.1132075471698"/>
      <point x="524.3632075471698" y="600.1132075471698"/>
      <point x="607.4622641509435" y="600.1132075471698" type="curve"/>
      <point x="595.9528301886793" y="624.7971698113207" type="line"/>
      <point x="577.0754716981132" y="551.4811320754717" type="line"/>
      <point x="619.882075471698" y="630.377358490566" type="line"/>
      <point x="583.6886792452831" y="584.1462264150944"/>
      <point x="530.2311320754717" y="509.7735849056603"/>
      <point x="480.82547169811323" y="428.9811320754717" type="curve" smooth="yes"/>
      <point x="404.52358490566036" y="303.5377358490566"/>
      <point x="333.94339622641513" y="188.58962264150944"/>
      <point x="278.627358490566" y="100.66037735849056" type="curve"/>
      <point x="255.96226415094338" y="11.43867924528302" type="line" smooth="yes"/>
      <point x="253.96226415094338" y="4.438679245283019"/>
      <point x="256.9622641509434" y="0.4386792452830188"/>
      <point x="263.9622641509434" y="0.4386792452830188" type="curve" smooth="yes"/>
    </contour>
    <contour>
      <point x="468.5754716981132" y="527.9858490566038" type="curve"/>
      <point x="475.3301886792453" y="555.1981132075472"/>
      <point x="485.08490566037733" y="591.1462264150944"/>
      <point x="491.27830188679246" y="618.9198113207547" type="curve"/>
      <point x="506.25943396226415" y="677.8443396226415"/>
      <point x="494.3301886792453" y="700.438679245283"/>
      <point x="438.0518867924529" y="700.438679245283" type="curve"/>
      <point x="426.4905660377359" y="655.0"/>
      <point x="408.438679245283" y="583.8632075471698"/>
      <point x="397.0" y="538.9858490566038" type="curve"/>
      <point x="395.438679245283" y="531.9858490566038"/>
      <point x="398.438679245283" y="527.9858490566038"/>
      <point x="405.438679245283" y="527.9858490566038" type="curve" smooth="yes"/>
      <point x="424.0518867924528" y="527.9858490566038"/>
      <point x="450.52358490566036" y="527.9858490566038"/>
    </contour>
    <contour>
      <point x="634.6792452830189" y="775.877358490566" type="curve"/>
      <point x="676.5566037735849" y="814.683962264151"/>
      <point x="740.7688679245283" y="875.1933962264151"/>
      <point x="774.6462264150944" y="908.4386792452831" type="curve" smooth="yes"/>
      <point x="796.2783018867925" y="929.877358490566"/>
      <point x="799.9622641509433" y="934.122641509434"/>
      <point x="801.5235849056603" y="939.122641509434" type="curve" smooth="yes"/>
      <point x="802.5235849056603" y="943.683962264151"/>
      <point x="800.4009433962264" y="946.122641509434"/>
      <point x="791.5235849056603" y="946.122641509434" type="curve" smooth="yes"/>
      <point x="706.9150943396226" y="946.122641509434" type="line"/>
      <point x="675.6509433962265" y="916.4905660377358"/>
      <point x="633.7547169811321" y="877.1037735849056"/>
      <point x="576.7169811320755" y="825.3301886792453" type="curve"/>
      <point x="630.9622641509434" y="846.5754716981132" type="line"/>
      <point x="609.4009433962264" y="846.5754716981132"/>
      <point x="587.4009433962264" y="846.5754716981132"/>
      <point x="565.8396226415093" y="846.5754716981132" type="curve"/>
      <point x="597.0518867924529" y="826.4528301886793" type="line"/>
      <point x="566.0849056603773" y="879.6650943396227"/>
      <point x="549.872641509434" y="909.754716981132"/>
      <point x="539.117924528302" y="931.316037735849" type="curve" smooth="yes"/>
      <point x="534.2405660377359" y="942.4386792452831"/>
      <point x="528.2405660377358" y="946.122641509434"/>
      <point x="513.2405660377358" y="946.122641509434" type="curve" smooth="yes"/>
      <point x="485.4528301886792" y="946.122641509434"/>
      <point x="461.10377358490564" y="946.122641509434"/>
      <point x="436.9481132075472" y="946.122641509434" type="curve"/>
      <point x="465.14150943396226" y="890.0707547169811"/>
      <point x="502.5990566037736" y="822.122641509434"/>
      <point x="517.3537735849056" y="793.561320754717" type="curve" smooth="yes"/>
      <point x="525.2311320754718" y="778.438679245283"/>
      <point x="530.2311320754717" y="775.877358490566"/>
      <point x="547.0377358490567" y="775.877358490566" type="curve" smooth="yes"/>
      <point x="566.3349056603774" y="775.877358490566"/>
      <point x="612.0141509433962" y="775.877358490566"/>
    </contour>
  </outline>
</glyph>
<glyph name="Dzcaron" format="2">
  <advance width="600.0"/>
  <unicode hex="01C5"/>
  <outline>
    <contour>
      <point x="257.8066037735849" y="700.0" type="curve"/>
      <point x="218.3679245283019" y="700.0"/>
      <point x="151.24528301886792" y="700.0"/>
      <point x="126.19339622641509" y="700.0" type="curve"/>
      <point x="119.26415094339623" y="672.2830188679245"/>
      <point x="112.33490566037737" y="644.0047169811321"/>
      <point x="105.4056603773585" y="616.2877358490566" type="curve"/>
      <point x="103.96698113207549" y="609.2877358490566"/>
      <point x="106.96698113207549" y="605.2877358490566"/>
      <point x="113.96698113207547" y="605.2877358490566" type="curve" smooth="yes"/>
      <point x="139.50943396226413" y="605.2877358490566"/>
      <point x="188.16037735849054" y="605.2877358490566"/>
      <point x="230.84433962264154" y="605.2877358490566" type="curve" smooth="yes"/>
      <point x="255.98584905660374" y="605.2877358490566"/>
      <point x="272.811320754717" y="600.9716981132076"/>
      <point x="280.00471698113205" y="587.7783018867924" type="curve" smooth="yes"/>
      <point x="287.07547169811323" y="575.7075471698113"/>
      <point x="286.9528301886793" y="557.3207547169811"/>
      <point x="280.1981132075472" y="529.7405660377358" type="curve" smooth="yes"/>
      <point x="189.42452830188682" y="170.83962264150944" type="line" smooth="yes"/>
      <point x="174.1603773584906" y="108.66037735849056"/>
      <point x="155.45754716981133" y="94.7122641509434"/>
      <point x="107.64622641509435" y="94.7122641509434" type="curve" smooth="yes"/>
      <point x="93.75000000000001" y="94.7122641509434"/>
      <point x="86.1179245283019" y="94.7122641509434"/>
      <point x="79.1179245283019" y="94.7122641509434" type="curve"/>
      <point x="114.82075471698114" y="236.64622641509433"/>
      <point x="150.52358490566039" y="378.0188679245283"/>
      <point x="186.22641509433961" y="519.5141509433963" type="curve" smooth="yes"/>
      <point x="195.22641509433964" y="555.8301886792453"/>
      <point x="204.10377358490567" y="592.7075471698113"/>
      <point x="213.10377358490564" y="628.5849056603773" type="curve"/>
      <point x="226.47169811320754" y="647.4433962264151" type="line"/>
      <point x="139.35377358490564" y="700.0" type="line"/>
      <point x="72.74056603773585" y="435.6698113207547"/>
      <point x="18.54716981132075" y="222.77358490566039"/>
      <point x="-34.64622641509435" y="11.0" type="curve"/>
      <point x="-36.20754716981133" y="3.9999999999999996"/>
      <point x="-33.20754716981131" y="0.0"/>
      <point x="-26.207547169811328" y="0.0" type="curve" smooth="yes"/>
      <point x="-11.278301886792455" y="0.0"/>
      <point x="24.59905660377357" y="0.0"/>
      <point x="82.24528301886794" y="0.0" type="curve" smooth="yes"/>
      <point x="192.10377358490567" y="0.0"/>
      <point x="247.3490566037736" y="27.94811320754717"/>
      <point x="284.6462264150943" y="178.1367924528302" type="curve" smooth="yes"/>
      <point x="373.9811320754717" y="538.2830188679246" type="line" smooth="yes"/>
      <point x="400.91037735849056" y="646.561320754717"/>
      <point x="357.1037735849057" y="700.0"/>
    </contour>
    <contour>
      <point x="400.85849056603774" y="533.8584905660377" type="line"/>
      <point x="393.3679245283019" y="503.89622641509436"/>
      <point x="385.87735849056605" y="474.4952830188679"/>
      <point x="378.3867924528302" y="444.5330188679245" type="curve" smooth="yes"/>
      <point x="376.3867924528302" y="437.5330188679245"/>
      <point x="378.2641509433962" y="433.5330188679245"/>
      <point x="383.5801886792453" y="433.5330188679245" type="curve" smooth="yes"/>
      <point x="537.2877358490566" y="433.5330188679245" type="line"/>
      <point x="533.1650943396227" y="417.04245283018867" type="line"/>
      <point x="518.2877358490567" y="401.41037735849056"/>
      <point x="504.2877358490566" y="385.65566037735846"/>
      <point x="487.7264150943396" y="366.21698113207543" type="curve" smooth="yes"/>
      <point x="433.5990566037736" y="297.0"/>
      <point x="372.9811320754717" y="218.92452830188677"/>
      <point x="294.20754716981133" y="116.39622641509435" type="curve"/>
      <point x="267.85849056603774" y="11.0" type="line" smooth="yes"/>
      <point x="266.4198113207548" y="4.0"/>
      <point x="268.29716981132077" y="0.0"/>
      <point x="273.61320754716985" y="0.0" type="curve" smooth="yes"/>
      <point x="524.9811320754717" y="0.0" type="line"/>
      <point x="532.4716981132075" y="29.962264150943398"/>
      <point x="539.9622641509434" y="59.363207547169814"/>
      <point x="547.4528301886792" y="89.3254716981132" type="curve" smooth="yes"/>
      <point x="549.4528301886793" y="96.3254716981132"/>
      <point x="547.5754716981132" y="100.3254716981132"/>
      <point x="542.2594339622642" y="100.3254716981132" type="curve"/>
      <point x="387.67452830188677" y="100.3254716981132" type="line"/>
      <point x="391.79716981132077" y="116.37735849056604" type="line"/>
      <point x="408.67452830188677" y="133.57075471698116"/>
      <point x="424.1132075471698" y="151.76415094339626"/>
      <point x="442.2358490566038" y="173.6415094339623" type="curve" smooth="yes"/>
      <point x="495.9245283018868" y="241.41981132075475"/>
      <point x="555.5424528301888" y="317.61792452830184"/>
      <point x="630.7547169811321" y="417.4622641509434" type="curve"/>
      <point x="657.1037735849056" y="522.8584905660377" type="line" smooth="yes"/>
      <point x="659.1037735849056" y="529.8584905660377"/>
      <point x="657.2264150943396" y="533.8584905660377"/>
      <point x="651.9103773584906" y="533.8584905660377" type="curve"/>
    </contour>
    <contour>
      <point x="602.382075471698" y="634.6132075471698" type="curve"/>
      <point x="633.2783018867924" y="668.8066037735849"/>
      <point x="711.9292452830188" y="760.5424528301887"/>
      <point x="744.8254716981131" y="799.6132075471698" type="curve" smooth="yes"/>
      <point x="762.4575471698113" y="820.4905660377359"/>
      <point x="763.4575471698113" y="822.0518867924528"/>
      <point x="765.4575471698113" y="827.6132075471698" type="curve" smooth="yes"/>
      <point x="766.4575471698113" y="832.6132075471698"/>
      <point x="765.4575471698113" y="836.6132075471698"/>
      <point x="755.7735849056604" y="836.6132075471698" type="curve" smooth="yes"/>
      <point x="689.2688679245283" y="836.6132075471698" type="line"/>
      <point x="659.7405660377359" y="803.5943396226414"/>
      <point x="619.8254716981132" y="760.9433962264151"/>
      <point x="561.6981132075472" y="696.7830188679245" type="curve"/>
      <point x="595.7877358490566" y="718.9056603773585" type="line"/>
      <point x="555.5943396226414" y="718.9056603773585" type="line"/>
      <point x="579.367924528302" y="697.9056603773585" type="line"/>
      <point x="556.5235849056604" y="761.1179245283018"/>
      <point x="540.556603773585" y="803.8396226415094"/>
      <point x="531.7311320754718" y="824.7358490566038" type="curve" smooth="yes"/>
      <point x="527.9764150943396" y="834.6132075471698"/>
      <point x="523.6603773584907" y="836.6132075471698"/>
      <point x="512.0283018867924" y="836.6132075471698" type="curve" smooth="yes"/>
      <point x="493.22169811320754" y="836.6132075471698"/>
      <point x="463.7688679245283" y="836.6132075471698"/>
      <point x="447.5943396226415" y="836.6132075471698" type="curve"/>
      <point x="467.61320754716985" y="777.7358490566038"/>
      <point x="497.82547169811323" y="682.683962264151"/>
      <point x="507.96698113207555" y="656.6132075471698" type="curve" smooth="yes"/>
      <point x="515.4764150943397" y="637.1745283018869"/>
      <point x="519.3537735849056" y="634.6132075471698"/>
      <point x="526.5471698113208" y="634.6132075471698" type="curve" smooth="yes"/>
      <point x="541.9150943396226" y="634.6132075471698"/>
      <point x="587.0141509433962" y="634.6132075471698"/>
    </contour>
  </outline>
</glyph>
<glyph name="lj" format="2">
  <advance width="600.0"/>
  <unicode hex="01C9"/>
  <outline>
    <contour>
      <point x="120.87735849056604" y="750.0" type="curve"/>
      <point x="113.94811320754717" y="722.2830188679245"/>
      <point x="107.0188679245283" y="695.127358490566"/>
      <point x="100.08962264150944" y="667.4103773584906" type="curve" smooth="yes"/>
      <point x="98.52830188679246" y="660.4103773584906"/>
      <point x="101.52830188679246" y="656.4103773584906"/>
      <point x="108.52830188679245" y="656.4103773584906" type="curve" smooth="yes"/>
      <point x="127.688679245283" y="656.4103773584906"/>
      <point x="149.6179245283019" y="656.4103773584906"/>
      <point x="171.4622641509434" y="656.4103773584906" type="curve"/>
      <point x="186.39150943396223" y="656.4103773584906" type="line"/>
      <point x="151.3396226415094" y="518.0801886792453"/>
      <point x="91.16037735849056" y="280.4858490566038"/>
      <point x="56.10849056603773" y="142.1556603773585" type="curve" smooth="yes"/>
      <point x="32.30188679245282" y="46.490566037735846"/>
      <point x="74.59905660377359" y="0.0"/>
      <point x="171.8254716981132" y="0.0" type="curve" smooth="yes"/>
      <point x="213.24528301886795" y="0.0"/>
      <point x="241.9669811320755" y="0.0"/>
      <point x="261.87735849056605" y="0.0" type="curve" smooth="yes"/>
      <point x="268.87735849056605" y="0.0"/>
      <point x="273.87735849056605" y="4.0"/>
      <point x="275.438679245283" y="11.0" type="curve" smooth="yes"/>
      <point x="282.3679245283019" y="38.716981132075475"/>
      <point x="289.29716981132077" y="65.87264150943398"/>
      <point x="296.2264150943396" y="93.58962264150944" type="curve"/>
      <point x="279.1745283018868" y="93.58962264150944" type="line"/>
      <point x="254.4716981132076" y="93.58962264150944"/>
      <point x="240.83962264150944" y="93.58962264150944"/>
      <point x="204.34905660377356" y="93.58962264150944" type="curve" smooth="yes"/>
      <point x="183.5754716981132" y="93.58962264150944"/>
      <point x="171.43396226415095" y="96.90566037735849"/>
      <point x="164.80188679245285" y="105.41509433962264" type="curve" smooth="yes"/>
      <point x="158.16981132075472" y="113.9245283018868"/>
      <point x="159.16981132075472" y="126.06603773584904"/>
      <point x="163.80188679245288" y="145.5943396226415" type="curve" smooth="yes"/>
      <point x="205.78301886792457" y="310.64150943396226"/>
      <point x="271.7688679245283" y="573.9528301886793"/>
      <point x="313.311320754717" y="739.0" type="curve" smooth="yes"/>
      <point x="314.87264150943395" y="746.0"/>
      <point x="311.87264150943395" y="750.0"/>
      <point x="304.87264150943395" y="750.0" type="curve" smooth="yes"/>
      <point x="271.2924528301887" y="750.0"/>
      <point x="157.91509433962267" y="750.0"/>
    </contour>
    <contour>
      <point x="620.8915094339623" y="533.8584905660377" type="curve" smooth="yes"/>
      <point x="514.561320754717" y="533.8584905660377"/>
      <point x="439.98584905660385" y="533.8584905660377"/>
      <point x="393.3160377358491" y="533.8584905660377" type="curve"/>
      <point x="385.82547169811323" y="503.89622641509436"/>
      <point x="378.7735849056604" y="474.9339622641509"/>
      <point x="371.28301886792457" y="444.97169811320754" type="curve" smooth="yes"/>
      <point x="369.84433962264154" y="437.97169811320754"/>
      <point x="372.84433962264154" y="433.97169811320754"/>
      <point x="379.84433962264154" y="433.97169811320754" type="curve" smooth="yes"/>
      <point x="409.811320754717" y="433.97169811320754"/>
      <point x="460.95283018867923" y="433.97169811320754"/>
      <point x="489.2877358490567" y="433.97169811320754" type="curve"/>
      <point x="501.2877358490565" y="433.97169811320754" type="line"/>
      <point x="465.77830188679246" y="293.05660377358487"/>
      <point x="430.26886792452837" y="151.58018867924528"/>
      <point x="383.0047169811321" y="-37.0377358490566" type="curve" smooth="yes"/>
      <point x="372.9339622641509" y="-76.32075471698113"/>
      <point x="359.1084905660378" y="-102.65566037735849"/>
      <point x="339.52830188679246" y="-120.04245283018868" type="curve"/>
      <point x="319.2641509433962" y="-137.42924528301887"/>
      <point x="293.122641509434" y="-145.18396226415095"/>
      <point x="260.9811320754717" y="-145.18396226415095" type="curve" smooth="yes"/>
      <point x="221.0518867924528" y="-145.18396226415095"/>
      <point x="194.49056603773585" y="-139.74528301886795"/>
      <point x="165.49056603773585" y="-125.55188679245282" type="curve"/>
      <point x="149.0" y="-125.55188679245282" type="line"/>
      <point x="141.07075471698113" y="-157.0754716981132"/>
      <point x="135.14150943396226" y="-181.4245283018868"/>
      <point x="127.6509433962264" y="-212.94811320754718" type="curve" smooth="yes"/>
      <point x="126.65094339622641" y="-216.3867924528302"/>
      <point x="126.65094339622638" y="-218.94811320754718"/>
      <point x="128.21226415094335" y="-220.9481132075472" type="curve" smooth="yes"/>
      <point x="139.21226415094338" y="-235.50943396226415"/>
      <point x="177.0188679245283" y="-250.00000000000003"/>
      <point x="238.05188679245282" y="-250.00000000000003" type="curve" smooth="yes"/>
      <point x="384.66509433962256" y="-250.00000000000003"/>
      <point x="447.2783018867925" y="-199.85849056603774"/>
      <point x="491.38207547169816" y="-27.933962264150942" type="curve" smooth="yes"/>
      <point x="543.0849056603774" y="175.94811320754715"/>
      <point x="587.9622641509435" y="356.2641509433962"/>
      <point x="629.3301886792453" y="522.8584905660377" type="curve" smooth="yes"/>
      <point x="630.8915094339623" y="529.2971698113207"/>
      <point x="627.3301886792452" y="533.8584905660377"/>
    </contour>
    <contour>
      <point x="569.3207547169811" y="781.8207547169811" type="curve"/>
      <point x="542.2169811320754" y="673.5283018867924" type="line" smooth="yes"/>
      <point x="540.2169811320754" y="666.5283018867924"/>
      <point x="543.2169811320754" y="662.5283018867924"/>
      <point x="550.2169811320754" y="662.5283018867924" type="curve" smooth="yes"/>
      <point x="591.7405660377358" y="662.5283018867924"/>
      <point x="639.438679245283" y="662.5283018867924"/>
      <point x="680.9622641509433" y="662.5283018867924" type="curve"/>
      <point x="708.066037735849" y="770.8207547169811" type="line" smooth="yes"/>
      <point x="710.066037735849" y="777.8207547169811"/>
      <point x="707.066037735849" y="781.8207547169811"/>
      <point x="700.066037735849" y="781.8207547169811" type="curve" smooth="yes"/>
      <point x="658.5424528301887" y="781.8207547169811"/>
      <point x="610.8443396226414" y="781.8207547169811"/>
    </contour>
  </outline>
</glyph>
<glyph name="acutecomb" format="2">
  <unicode hex="0301"/>
  <anchor x="68.56132075471699" y="543.7358490566038" name="_top"/>
  <anchor x="67.43867924528301" y="536.9292452830189" name="_dot"/>
  <anchor x="-69.46698113207549" y="735.7405660377358" name="dot"/>
  <outline>
    <contour>
      <point x="197.0424528301887" y="818.1603773584906" type="curve"/>
      <point x="144.21698113207546" y="754.5990566037735"/>
      <point x="89.63679245283019" y="691.2830188679245"/>
      <point x="37.68867924528301" y="630.1603773584906" type="curve"/>
      <point x="64.28301886792453" y="630.1603773584906"/>
      <point x="99.87735849056604" y="630.1603773584906"/>
      <point x="130.1556603773585" y="630.1603773584906" type="curve" smooth="yes"/>
      <point x="138.1556603773585" y="630.1603773584906"/>
      <point x="144.03301886792454" y="633.0377358490566"/>
      <point x="149.1556603773585" y="638.1603773584906" type="curve" smooth="yes"/>
      <point x="217.7877358490566" y="702.1084905660377"/>
      <point x="262.01415094339626" y="743.0896226415094"/>
      <point x="324.0141509433962" y="801.8443396226415" type="curve" smooth="yes"/>
      <point x="332.0141509433962" y="809.2830188679245"/>
      <point x="330.76886792452825" y="818.1603773584906"/>
      <point x="321.89150943396226" y="818.1603773584906" type="curve" smooth="yes"/>
      <point x="279.316037735849" y="818.1603773584906"/>
      <point x="242.49528301886792" y="818.1603773584906"/>
    </contour>
  </outline>
</glyph>
<glyph name="tildecomb" format="2">
  <unicode hex="0303"/>
  <anchor x="68.56132075471699" y="543.7358490566038" name="_top"/>
  <anchor x="117.15566037735849" y="735.4292452830189" name="top"/>
  <outline>
    <contour>
      <point x="204.52358490566039" y="737.3632075471698" type="curve" smooth="yes"/>
      <point x="144.1556603773585" y="737.3632075471698"/>
      <point x="116.03301886792453" y="790.433962264151"/>
      <point x="39.54245283018868" y="790.433962264151" type="curve" smooth="yes"/>
      <point x="-3.683962264150942" y="790.433962264151"/>
      <point x="-39.73584905660377" y="777.504716981132"/>
      <point x="-65.98113207547169" y="755.188679245283" type="curve" smooth="yes"/>
      <point x="-76.4198113207547" y="746.433962264151"/>
      <point x="-77.29716981132076" y="741.311320754717"/>
      <point x="-79.85849056603774" y="731.627358490566" type="curve" smooth="yes"/>
      <point x="-85.22641509433963" y="711.4009433962265"/>
      <point x="-96.83962264150944" y="666.2641509433962"/>
      <point x="-103.20754716981132" y="640.2311320754717" type="curve"/>
      <point x="-86.71698113207549" y="640.2311320754717" type="line"/>
      <point x="-57.962264150943405" y="673.5471698113207"/>
      <point x="-24.40094339622642" y="690.5471698113208"/>
      <point x="14.65094339622641" y="690.5471698113208" type="curve" smooth="yes"/>
      <point x="75.01886792452831" y="690.5471698113208"/>
      <point x="106.2122641509434" y="637.4764150943396"/>
      <point x="180.07075471698113" y="637.4764150943396" type="curve" smooth="yes"/>
      <point x="222.85849056603774" y="637.4764150943396"/>
      <point x="259.91037735849056" y="648.2830188679245"/>
      <point x="283.15566037735846" y="669.8443396226415" type="curve" smooth="yes"/>
      <point x="293.5943396226415" y="679.7216981132076"/>
      <point x="294.47169811320754" y="683.7216981132076"/>
      <point x="297.0330188679245" y="693.4056603773585" type="curve" smooth="yes"/>
      <point x="302.4009433962264" y="713.6320754716982"/>
      <point x="315.57547169811323" y="761.6462264150944"/>
      <point x="321.9433962264151" y="787.6792452830189" type="curve"/>
      <point x="305.4528301886793" y="787.6792452830189" type="line"/>
      <point x="275.1367924528302" y="750.4858490566038"/>
      <point x="242.33018867924528" y="737.3632075471698"/>
    </contour>
  </outline>
</glyph>
<glyph name="brevecomb" format="2">
  <unicode hex="0306"/>
  <anchor x="68.56132075471699" y="543.7358490566038" name="_top"/>
  <anchor x="123.68396226415095" y="763.2264150943397" name="top"/>
  <anchor x="127.0" y="777.6132075471698" name="hook"/>
  <outline>
    <contour>
      <point x="109.49056603773585" y="723.433962264151" type="curve"/>
      <point x="49.08490566037736" y="723.433962264151"/>
      <point x="23.50471698113207" y="749.7688679245283"/>
      <point x="25.330188679245282" y="811.0" type="curve"/>
      <point x="4.787735849056601" y="811.0"/>
      <point x="-9.19339622641509" y="811.0"/>
      <point x="-29.735849056603783" y="811.0" type="curve" smooth="yes"/>
      <point x="-42.73584905660378" y="811.0"/>
      <point x="-47.73584905660378" y="808.0"/>
      <point x="-49.297169811320764" y="790.7547169811321" type="curve" smooth="yes"/>
      <point x="-57.981132075471685" y="711.2641509433962"/>
      <point x="-11.367924528301883" y="640.3867924528302"/>
      <point x="90.14150943396227" y="640.3867924528302" type="curve" smooth="yes"/>
      <point x="102.38679245283019" y="640.3867924528302" type="line" smooth="yes"/>
      <point x="204.61320754716982" y="640.3867924528302"/>
      <point x="276.80660377358487" y="689.7028301886792"/>
      <point x="310.0518867924529" y="789.0" type="curve" smooth="yes"/>
      <point x="316.0518867924529" y="808.0"/>
      <point x="312.73584905660385" y="811.0"/>
      <point x="301.4905660377359" y="811.0" type="curve" smooth="yes"/>
      <point x="280.9481132075472" y="811.0"/>
      <point x="256.72169811320754" y="811.0"/>
      <point x="236.17924528301887" y="811.0" type="curve"/>
      <point x="211.54716981132077" y="749.6462264150944"/>
      <point x="168.52830188679246" y="723.433962264151"/>
    </contour>
  </outline>
</glyph>
<glyph name="dieresiscomb" format="2">
  <unicode hex="0308"/>
  <anchor x="69.56132075471699" y="544.8584905660377" name="_top"/>
  <anchor x="116.12264150943396" y="731.5424528301887" name="top"/>
  <outline>
    <contour>
      <point x="-38.38207547169812" y="762.7358490566038" type="curve"/>
      <point x="-66.60849056603774" y="650.5141509433962" type="line" smooth="yes"/>
      <point x="-68.60849056603774" y="643.5141509433962"/>
      <point x="-65.60849056603774" y="639.5141509433962"/>
      <point x="-58.608490566037744" y="639.5141509433962" type="curve" smooth="yes"/>
      <point x="-21.575471698113205" y="639.5141509433962"/>
      <point x="12.896226415094345" y="639.5141509433962"/>
      <point x="49.92924528301887" y="639.5141509433962" type="curve"/>
      <point x="78.15566037735849" y="751.7358490566038" type="line" smooth="yes"/>
      <point x="80.15566037735849" y="758.7358490566038"/>
      <point x="77.15566037735849" y="762.7358490566038"/>
      <point x="70.15566037735849" y="762.7358490566038" type="curve" smooth="yes"/>
      <point x="33.12264150943397" y="762.7358490566038"/>
      <point x="-1.3490566037735827" y="762.7358490566038"/>
    </contour>
    <contour>
      <point x="166.52830188679243" y="762.7358490566038" type="curve"/>
      <point x="138.30188679245282" y="650.5141509433962" type="line" smooth="yes"/>
      <point x="136.30188679245282" y="643.5141509433962"/>
      <point x="139.30188679245282" y="639.5141509433962"/>
      <point x="146.30188679245282" y="639.5141509433962" type="curve" smooth="yes"/>
      <point x="183.33490566037736" y="639.5141509433962"/>
      <point x="217.8066037735849" y="639.5141509433962"/>
      <point x="254.8396226415094" y="639.5141509433962" type="curve"/>
      <point x="283.066037735849" y="751.7358490566038" type="line" smooth="yes"/>
      <point x="285.066037735849" y="758.7358490566038"/>
      <point x="282.066037735849" y="762.7358490566038"/>
      <point x="275.066037735849" y="762.7358490566038" type="curve" smooth="yes"/>
      <point x="238.03301886792454" y="762.7358490566038"/>
      <point x="203.56132075471697" y="762.7358490566038"/>
    </contour>
  </outline>
</glyph>
<glyph name="thai:baht" format="2">
  <advance width="600.0"/>
  <unicode hex="0E3F"/>
  <outline>
    <contour>
      <point x="476.3820754716981" y="837.0" type="curve" smooth="yes"/>
      <point x="479.3820754716981" y="846.0"/>
      <point x="476.50471698113205" y="850.0"/>
      <point x="469.3820754716981" y="850.0" type="curve" smooth="yes"/>
      <point x="458.627358490566" y="850.0"/>
      <point x="395.10849056603774" y="850.0"/>
      <point x="380.72169811320754" y="850.0" type="curve"/>
      <point x="378.72169811320754" y="840.438679245283"/>
      <point x="358.59905660377353" y="761.9481132075472"/>
      <point x="352.9150943396226" y="739.0896226415094" type="curve" smooth="yes"/>
      <point x="347.66981132075466" y="716.2311320754717"/>
      <point x="336.42452830188677" y="671.811320754717"/>
      <point x="330.8632075471698" y="650.3207547169811" type="curve"/>
      <point x="409.54245283018867" y="650.3207547169811" type="line"/>
      <point x="424.83962264150944" y="694.5990566037735"/>
      <point x="458.08490566037733" y="787.0377358490565"/>
    </contour>
    <contour>
      <point x="121.30188679245283" y="-142.45754716981133" type="curve" smooth="yes"/>
      <point x="117.74056603773586" y="-152.58018867924528"/>
      <point x="119.49528301886791" y="-156.58018867924528"/>
      <point x="127.74056603773585" y="-156.58018867924528" type="curve" smooth="yes"/>
      <point x="142.6179245283019" y="-156.58018867924528"/>
      <point x="206.1367924528302" y="-156.58018867924528"/>
      <point x="219.20754716981133" y="-156.58018867924528" type="curve"/>
      <point x="221.20754716981133" y="-147.0188679245283"/>
      <point x="239.45283018867926" y="-74.91509433962264"/>
      <point x="244.25943396226415" y="-54.372641509433954" type="curve" smooth="yes"/>
      <point x="249.50471698113208" y="-33.830188679245275"/>
      <point x="267.75" y="39.589622641509436"/>
      <point x="271.188679245283" y="51.78301886792453" type="curve"/>
      <point x="189.70283018867923" y="51.78301886792453" type="line"/>
      <point x="175.21226415094338" y="12.80188679245283"/>
      <point x="137.03773584905662" y="-98.93396226415095"/>
    </contour>
    <contour>
      <point x="261.8254716981132" y="0.0" type="curve"/>
      <point x="392.10377358490564" y="0.0"/>
      <point x="478.10377358490564" y="45.68396226415094"/>
      <point x="507.4198113207547" y="160.94811320754718" type="curve" smooth="yes"/>
      <point x="515.5424528301887" y="192.87735849056605" type="line" smooth="yes"/>
      <point x="532.9811320754717" y="261.9481132075472"/>
      <point x="508.29716981132077" y="321.75471698113205"/>
      <point x="436.4198113207547" y="342.9481132075472" type="curve"/>
      <point x="436.4198113207547" y="373.3679245283019" type="line"/>
      <point x="184.1556603773585" y="373.3679245283019" type="line"/>
      <point x="164.73584905660377" y="317.2311320754717" type="line"/>
      <point x="311.10377358490564" y="317.2311320754717" type="line"/>
      <point x="408.97169811320754" y="317.2311320754717"/>
      <point x="427.97169811320754" y="272.4198113207547"/>
      <point x="413.21698113207543" y="213.83962264150944" type="curve" smooth="yes"/>
      <point x="404.65566037735846" y="181.1556603773585" type="line" smooth="yes"/>
      <point x="388.8301886792453" y="119.85377358490565"/>
      <point x="347.6698113207547" y="92.7122641509434"/>
      <point x="272.0330188679245" y="92.7122641509434" type="curve" smooth="yes"/>
      <point x="228.43396226415092" y="92.7122641509434"/>
      <point x="194.60849056603772" y="92.7122641509434"/>
      <point x="151.00943396226415" y="92.7122641509434" type="curve"/>
      <point x="176.83490566037736" y="198.69811320754718"/>
      <point x="211.08018867924528" y="334.311320754717"/>
      <point x="244.08018867924528" y="464.4339622641509" type="curve" smooth="yes"/>
      <point x="257.3443396226415" y="518.9292452830189"/>
      <point x="271.7311320754717" y="576.9150943396227"/>
      <point x="284.4339622641509" y="629.2877358490566" type="curve"/>
      <point x="294.1179245283019" y="645.0943396226414" type="line"/>
      <point x="180.05660377358492" y="643.4103773584906" type="line"/>
      <point x="127.54716981132077" y="434.25"/>
      <point x="74.35377358490567" y="220.72169811320754"/>
      <point x="21.844339622641513" y="11.56132075471698" type="curve"/>
      <point x="20.405660377358494" y="4.561320754716981"/>
      <point x="22.844339622641513" y="0.0"/>
      <point x="29.844339622641513" y="0.0" type="curve" smooth="yes"/>
      <point x="53.66981132075472" y="0.0"/>
      <point x="184.4575471698113" y="0.0"/>
    </contour>
    <contour>
      <point x="137.87735849056602" y="700.0" type="curve"/>
      <point x="132.07075471698113" y="676.2122641509434"/>
      <point x="125.58018867924528" y="648.25"/>
      <point x="118.08962264150944" y="618.2877358490566" type="curve" smooth="yes"/>
      <point x="116.08962264150944" y="611.9716981132076"/>
      <point x="119.08962264150944" y="607.2877358490566"/>
      <point x="126.08962264150944" y="607.2877358490566" type="curve" smooth="yes"/>
      <point x="216.08962264150944" y="607.2877358490566"/>
      <point x="305.0896226415094" y="607.2877358490566"/>
      <point x="395.08962264150944" y="607.2877358490566" type="curve" smooth="yes"/>
      <point x="430.12735849056605" y="607.2877358490566"/>
      <point x="452.4622641509434" y="600.2169811320754"/>
      <point x="466.41037735849056" y="586.2688679245283" type="curve" smooth="yes"/>
      <point x="481.7971698113207" y="571.3207547169811"/>
      <point x="484.35849056603774" y="547.0566037735848"/>
      <point x="477.04245283018867" y="517.4764150943396" type="curve" smooth="yes"/>
      <point x="468.9198113207547" y="484.42452830188677" type="line" smooth="yes"/>
      <point x="454.5330188679245" y="427.19339622641513"/>
      <point x="419.39150943396226" y="392.59433962264154"/>
      <point x="326.45283018867923" y="392.59433962264154" type="curve" smooth="yes"/>
      <point x="280.13679245283015" y="392.59433962264154"/>
      <point x="228.64622641509436" y="392.59433962264154"/>
      <point x="182.33018867924528" y="392.59433962264154" type="curve"/>
      <point x="166.71698113207546" y="337.87735849056605" type="line" smooth="yes"/>
      <point x="186.01415094339623" y="346.7358490566038" type="line"/>
      <point x="234.13679245283018" y="346.7358490566038"/>
      <point x="290.8018867924528" y="346.7358490566038"/>
      <point x="338.92452830188677" y="346.7358490566038" type="curve" smooth="yes"/>
      <point x="474.4198113207547" y="346.7358490566038"/>
      <point x="555.4716981132076" y="394.49056603773585"/>
      <point x="580.5424528301887" y="494.96698113207543" type="curve" smooth="yes"/>
      <point x="587.1037735849056" y="521.6509433962264" type="line" smooth="yes"/>
      <point x="609.4198113207547" y="611.7924528301887"/>
      <point x="571.7169811320755" y="700.0"/>
      <point x="411.14150943396226" y="700.0" type="curve" smooth="yes"/>
      <point x="320.38679245283015" y="700.0"/>
      <point x="228.6320754716981" y="700.0"/>
    </contour>
  </outline>
</glyph>
<glyph name="quoteleft" format="2">
  <advance width="600.0"/>
  <unicode hex="2018"/>
  <outline>
    <contour>
      <point x="418.2122641509434" y="750.0" type="curve" smooth="yes"/>
      <point x="413.2122641509434" y="750.0"/>
      <point x="409.77358490566036" y="749.0"/>
      <point x="406.2122641509434" y="743.0" type="curve" smooth="yes"/>
      <point x="349.4764150943396" y="645.5801886792452"/>
      <point x="291.2311320754717" y="545.3349056603773"/>
      <point x="239.35377358490564" y="455.70283018867923" type="curve" smooth="yes"/>
      <point x="234.35377358490564" y="447.70283018867923"/>
      <point x="235.91509433962264" y="442.70283018867923"/>
      <point x="243.91509433962264" y="442.70283018867923" type="curve" smooth="yes"/>
      <point x="299.12264150943395" y="442.70283018867923"/>
      <point x="327.0849056603774" y="442.70283018867923"/>
      <point x="391.66037735849056" y="442.70283018867923" type="curve"/>
      <point x="441.22169811320754" y="550.561320754717"/>
      <point x="484.4858490566038" y="642.1415094339623"/>
      <point x="534.0471698113207" y="750.0" type="curve"/>
      <point x="507.4528301886793" y="750.0"/>
      <point x="461.91037735849056" y="750.0"/>
    </contour>
  </outline>
</glyph>
<glyph name="bullet" format="2">
  <advance width="600.0"/>
  <unicode hex="2022"/>
  <outline>
    <contour>
      <point x="403.64622641509436" y="172.37264150943395" type="curve"/>
      <point x="465.24056603773585" y="417.5047169811321" type="line" smooth="yes"/>
      <point x="467.24056603773585" y="424.5047169811321"/>
      <point x="464.24056603773585" y="428.5047169811321"/>
      <point x="457.24056603773585" y="428.5047169811321" type="curve"/>
      <point x="392.6462264150943" y="428.5047169811321"/>
      <point x="276.70283018867923" y="428.5047169811321"/>
      <point x="212.10849056603774" y="428.5047169811321" type="curve"/>
      <point x="150.51415094339623" y="183.37264150943395" type="line" smooth="yes"/>
      <point x="148.51415094339623" y="176.37264150943395"/>
      <point x="151.51415094339623" y="172.37264150943395"/>
      <point x="158.51415094339623" y="172.37264150943395" type="curve" smooth="yes"/>
      <point x="223.10849056603774" y="172.37264150943395"/>
      <point x="339.0518867924528" y="172.37264150943395"/>
    </contour>
  </outline>
</glyph>
<glyph name="ellipsis" format="2">
  <advance width="600.0"/>
  <unicode hex="2026"/>
  <outline>
    <contour>
      <point x="94.38679245283018" y="-7.806603773584905" type="curve"/>
      <point x="132.6132075471698" y="146.0990566037736" type="line" smooth="yes"/>
      <point x="134.6132075471698" y="153.0990566037736"/>
      <point x="131.6132075471698" y="157.0990566037736"/>
      <point x="124.61320754716981" y="157.0990566037736" type="curve"/>
      <point x="89.0" y="157.0990566037736"/>
      <point x="43.85849056603773" y="157.0990566037736"/>
      <point x="8.245283018867923" y="157.0990566037736" type="curve"/>
      <point x="-29.9811320754717" y="3.193396226415094" type="line" smooth="yes"/>
      <point x="-31.9811320754717" y="-3.806603773584906"/>
      <point x="-28.9811320754717" y="-7.806603773584905"/>
      <point x="-21.9811320754717" y="-7.806603773584905" type="curve" smooth="yes"/>
      <point x="13.632075471698107" y="-7.806603773584905"/>
      <point x="58.77358490566038" y="-7.806603773584905"/>
    </contour>
    <contour>
      <point x="295.0" y="-7.806603773584905" type="curve"/>
      <point x="333.2264150943396" y="146.0990566037736" type="line" smooth="yes"/>
      <point x="335.2264150943396" y="153.0990566037736"/>
      <point x="332.2264150943396" y="157.0990566037736"/>
      <point x="325.2264150943396" y="157.0990566037736" type="curve"/>
      <point x="289.6132075471698" y="157.0990566037736"/>
      <point x="244.47169811320754" y="157.0990566037736"/>
      <point x="208.85849056603774" y="157.0990566037736" type="curve"/>
      <point x="170.6320754716981" y="3.193396226415094" type="line" smooth="yes"/>
      <point x="168.6320754716981" y="-3.806603773584906"/>
      <point x="171.6320754716981" y="-7.806603773584905"/>
      <point x="178.6320754716981" y="-7.806603773584905" type="curve" smooth="yes"/>
      <point x="214.24528301886792" y="-7.806603773584905"/>
      <point x="259.3867924528302" y="-7.806603773584905"/>
    </contour>
    <contour>
      <point x="495.6132075471698" y="-7.806603773584905" type="curve"/>
      <point x="533.8396226415094" y="146.0990566037736" type="line" smooth="yes"/>
      <point x="535.8396226415094" y="153.0990566037736"/>
      <point x="532.8396226415094" y="157.0990566037736"/>
      <point x="525.8396226415094" y="157.0990566037736" type="curve"/>
      <point x="490.22641509433964" y="157.0990566037736"/>
      <point x="445.08490566037733" y="157.0990566037736"/>
      <point x="409.47169811320754" y="157.0990566037736" type="curve"/>
      <point x="371.24528301886795" y="3.193396226415094" type="line" smooth="yes"/>
      <point x="369.24528301886795" y="-3.806603773584906"/>
      <point x="372.24528301886795" y="-7.806603773584905"/>
      <point x="379.24528301886795" y="-7.806603773584905" type="curve" smooth="yes"/>
      <point x="414.85849056603774" y="-7.806603773584905"/>
      <point x="460.00000000000006" y="-7.806603773584905"/>
    </contour>
  </outline>
</glyph>
<glyph name="perthousand" format="2">
  <advance width="600.0"/>
  <unicode hex="2030"/>
  <outline>
    <contour>
      <point x="32.89352024526604" y="232.0" type="curve"/>
      <point x="188.24023121425662" y="299.89622641509436"/>
      <point x="467.60145420380564" y="423.75943396226415"/>
      <point x="615.0753146751061" y="488.65566037735846" type="curve" smooth="yes"/>
      <point x="622.3739032795345" y="492.0943396226415"/>
      <point x="627.1855723479515" y="497.0943396226415"/>
      <point x="629.4361993125515" y="506.0943396226415" type="curve" smooth="yes"/>
      <point x="639.8022945772806" y="547.5471698113207"/>
      <point x="650.2698331957976" y="589.4056603773585"/>
      <point x="659.4823052050165" y="626.2452830188679" type="curve"/>
      <point x="482.7254085941727" y="527.2452830188679"/>
      <point x="140.77454945017124" y="335.47641509433964"/>
      <point x="31.348083551071227" y="273.8066037735849" type="curve"/>
      <point x="27.597038610071227" y="258.8066037735849"/>
      <point x="24.925303769963207" y="248.12264150943398"/>
      <point x="22.42460714261934" y="238.12264150943398" type="curve" smooth="yes"/>
      <point x="20.92418916621934" y="232.12264150943398"/>
      <point x="24.472290131447643" y="228.56132075471697"/>
    </contour>
    <contour>
      <point x="90.0" y="579.9292452830189" type="curve" smooth="yes"/>
      <point x="86.31603773584905" y="565.1933962264152" type="line" smooth="yes"/>
      <point x="66.31603773584905" y="486.316037735849"/>
      <point x="103.24528301886792" y="424.5801886792453"/>
      <point x="191.3679245283019" y="424.5801886792453" type="curve" smooth="yes"/>
      <point x="275.4198113207547" y="424.5801886792453"/>
      <point x="329.22641509433964" y="465.2122641509434"/>
      <point x="353.54245283018867" y="557.7735849056604" type="curve" smooth="yes"/>
      <point x="357.22641509433964" y="572.0707547169811" type="line" smooth="yes"/>
      <point x="377.22641509433964" y="652.0707547169811"/>
      <point x="341.0518867924528" y="710.0"/>
      <point x="249.05188679245282" y="710.0" type="curve" smooth="yes"/>
      <point x="155.49056603773582" y="710.0"/>
      <point x="110.56132075471699" y="661.9292452830189"/>
    </contour>
    <contour>
      <point x="156.52358490566036" y="561.8254716981132" type="curve" smooth="yes"/>
      <point x="159.08490566037733" y="572.6320754716982" type="line" smooth="yes"/>
      <point x="170.27830188679243" y="619.5283018867925"/>
      <point x="192.66509433962264" y="645.2311320754717"/>
      <point x="238.31603773584905" y="645.2311320754717" type="curve" smooth="yes"/>
      <point x="260.14150943396226" y="645.2311320754717"/>
      <point x="274.77358490566036" y="638.4764150943397"/>
      <point x="282.65094339622635" y="626.4056603773585" type="curve"/>
      <point x="290.52830188679246" y="613.7735849056604"/>
      <point x="291.08962264150944" y="596.8254716981132"/>
      <point x="284.77358490566036" y="575.0" type="curve" smooth="yes"/>
      <point x="281.6509433962264" y="564.0707547169811" type="line" smooth="yes"/>
      <point x="266.89622641509436" y="513.0518867924528"/>
      <point x="244.07075471698113" y="491.5943396226415"/>
      <point x="202.41981132075472" y="491.5943396226415" type="curve" smooth="yes"/>
      <point x="182.47169811320757" y="491.5943396226415"/>
      <point x="168.83962264150946" y="497.47169811320754"/>
      <point x="160.9622641509434" y="507.66509433962267" type="curve"/>
      <point x="151.7688679245283" y="519.7358490566038"/>
      <point x="150.76886792452828" y="538.1226415094341"/>
    </contour>
    <contour>
      <point x="89.63207547169812" y="140.29716981132074" type="curve" smooth="yes"/>
      <point x="85.94811320754717" y="125.0" type="line" smooth="yes"/>
      <point x="66.50943396226414" y="46.12264150943396"/>
      <point x="100.43867924528301" y="-10.0"/>
      <point x="185.75471698113205" y="-10.0" type="curve" smooth="yes"/>
      <point x="271.9292452830189" y="-10.0"/>
      <point x="315.8066037735849" y="29.56132075471698"/>
      <point x="340.24528301886795" y="127.438679245283" type="curve" smooth="yes"/>
      <point x="343.49056603773585" y="140.41981132075472" type="line" smooth="yes"/>
      <point x="364.0518867924528" y="223.10377358490567"/>
      <point x="330.75471698113205" y="275.4198113207547"/>
      <point x="246.75471698113208" y="275.4198113207547" type="curve" smooth="yes"/>
      <point x="159.3867924528302" y="275.4198113207547"/>
      <point x="110.07075471698113" y="222.29716981132074"/>
    </contour>
    <contour>
      <point x="158.9622641509434" y="126.68396226415095" type="curve" smooth="yes"/>
      <point x="161.52358490566039" y="137.49056603773585" type="line" smooth="yes"/>
      <point x="172.7169811320755" y="184.38679245283018"/>
      <point x="198.1745283018868" y="210.08962264150944"/>
      <point x="239.63207547169813" y="210.08962264150944" type="curve" smooth="yes"/>
      <point x="261.70283018867923" y="210.08962264150944"/>
      <point x="276.4575471698113" y="203.77358490566039"/>
      <point x="284.3349056603774" y="192.58018867924528" type="curve"/>
      <point x="292.52830188679246" y="180.50943396226415"/>
      <point x="293.08962264150944" y="162.561320754717"/>
      <point x="287.2122641509434" y="139.85849056603774" type="curve" smooth="yes"/>
      <point x="284.52830188679246" y="130.24528301886792" type="line" smooth="yes"/>
      <point x="269.6509433962264" y="75.54245283018868"/>
      <point x="245.07075471698113" y="55.33018867924528"/>
      <point x="203.61320754716985" y="55.33018867924528" type="curve" smooth="yes"/>
      <point x="183.78773584905662" y="55.33018867924528"/>
      <point x="170.1556603773585" y="60.08490566037736"/>
      <point x="162.83962264150944" y="71.27830188679245" type="curve"/>
      <point x="154.08490566037736" y="82.7877358490566"/>
      <point x="153.08490566037736" y="101.29716981132074"/>
    </contour>
    <contour>
      <point x="552.877358490566" y="127.438679245283" type="curve" smooth="yes"/>
      <point x="556.122641509434" y="140.41981132075472" type="line" smooth="yes"/>
      <point x="575.8066037735849" y="219.1556603773585"/>
      <point x="541.632075471698" y="275.4198113207547"/>
      <point x="455.877358490566" y="275.4198113207547" type="curve" smooth="yes"/>
      <point x="367.19339622641513" y="275.4198113207547"/>
      <point x="322.70283018867923" y="222.29716981132074"/>
      <point x="302.2641509433962" y="140.29716981132074" type="curve" smooth="yes"/>
      <point x="298.5801886792453" y="125.0" type="line" smooth="yes"/>
      <point x="279.5801886792453" y="47.43867924528302"/>
      <point x="313.0707547169811" y="-10.0"/>
      <point x="398.0707547169811" y="-10.0" type="curve" smooth="yes"/>
      <point x="484.122641509434" y="-10.0"/>
      <point x="529.316037735849" y="32.632075471698116"/>
    </contour>
    <contour>
      <point x="355.9811320754717" y="126.68396226415095" type="curve" smooth="yes"/>
      <point x="358.54245283018867" y="137.49056603773585" type="line" smooth="yes"/>
      <point x="369.73584905660374" y="184.38679245283018"/>
      <point x="393.438679245283" y="210.08962264150944"/>
      <point x="434.89622641509436" y="210.08962264150944" type="curve" smooth="yes"/>
      <point x="456.8443396226415" y="210.08962264150944"/>
      <point x="471.9150943396226" y="204.33490566037736"/>
      <point x="480.2311320754717" y="192.8254716981132" type="curve"/>
      <point x="489.10849056603774" y="181.1933962264151"/>
      <point x="490.10849056603774" y="162.68396226415095"/>
      <point x="484.2311320754717" y="139.85849056603774" type="curve" smooth="yes"/>
      <point x="481.54716981132077" y="130.24528301886792" type="line" smooth="yes"/>
      <point x="465.79245283018867" y="71.15566037735849"/>
      <point x="444.33490566037733" y="55.33018867924528"/>
      <point x="402.877358490566" y="55.33018867924528" type="curve" smooth="yes"/>
      <point x="383.0518867924528" y="55.33018867924528"/>
      <point x="368.85849056603774" y="60.08490566037736"/>
      <point x="360.54245283018867" y="71.27830188679245" type="curve"/>
      <point x="351.66509433962267" y="82.7877358490566"/>
      <point x="350.10377358490564" y="101.73584905660377"/>
    </contour>
  </outline>
</glyph>
<glyph name="second" format="2">
  <advance width="600.0"/>
  <unicode hex="2033"/>
  <outline>
    <contour>
      <point x="183.68396226415098" y="441.3867924528302" type="curve" smooth="yes"/>
      <point x="188.68396226415098" y="441.3867924528302"/>
      <point x="193.68396226415092" y="443.3867924528302"/>
      <point x="199.68396226415098" y="449.3867924528302" type="curve" smooth="yes"/>
      <point x="286.12264150943395" y="548.3867924528303"/>
      <point x="372.61320754716985" y="646.0"/>
      <point x="453.29716981132077" y="737.0" type="curve" smooth="yes"/>
      <point x="460.29716981132077" y="745.0"/>
      <point x="456.29716981132077" y="750.0"/>
      <point x="448.29716981132077" y="750.0" type="curve" smooth="yes"/>
      <point x="414.19339622641513" y="750.0"/>
      <point x="362.7216981132076" y="750.0"/>
      <point x="323.88207547169816" y="750.0" type="curve"/>
      <point x="245.25" y="644.0"/>
      <point x="179.00471698113208" y="555.3867924528302"/>
      <point x="93.37264150943395" y="441.3867924528302" type="curve"/>
      <point x="123.91509433962263" y="441.3867924528302"/>
      <point x="159.07075471698116" y="441.3867924528302"/>
    </contour>
    <contour>
      <point x="374.9103773584905" y="441.3867924528302" type="curve" smooth="yes"/>
      <point x="379.9103773584905" y="441.3867924528302"/>
      <point x="384.91037735849056" y="443.3867924528302"/>
      <point x="390.9103773584905" y="449.3867924528302" type="curve" smooth="yes"/>
      <point x="477.3490566037736" y="548.3867924528303"/>
      <point x="563.8396226415093" y="646.0"/>
      <point x="644.5235849056604" y="737.0" type="curve" smooth="yes"/>
      <point x="651.5235849056604" y="745.0"/>
      <point x="647.5235849056604" y="750.0"/>
      <point x="639.5235849056604" y="750.0" type="curve" smooth="yes"/>
      <point x="605.4198113207548" y="750.0"/>
      <point x="553.9481132075472" y="750.0"/>
      <point x="515.1084905660376" y="750.0" type="curve"/>
      <point x="436.47641509433964" y="644.0"/>
      <point x="370.2311320754717" y="555.3867924528302"/>
      <point x="284.5990566037736" y="441.3867924528302" type="curve"/>
      <point x="315.14150943396226" y="441.3867924528302"/>
      <point x="350.2971698113207" y="441.3867924528302"/>
    </contour>
  </outline>
</glyph>
<glyph name="fraction" format="2">
  <advance width="600.0"/>
  <unicode hex="2044"/>
  <outline>
    <contour>
      <point x="404.9481132075472" y="405.0" type="curve"/>
      <point x="421.2452830188679" y="405.0"/>
      <point x="462.03301886792457" y="405.0"/>
      <point x="486.75" y="405.0" type="curve" smooth="yes"/>
      <point x="491.75" y="405.0"/>
      <point x="493.75" y="406.0"/>
      <point x="497.75" y="412.0" type="curve" smooth="yes"/>
      <point x="533.9481132075471" y="462.0943396226415"/>
      <point x="650.8537735849056" y="647.4669811320755"/>
      <point x="686.4905660377359" y="697.0" type="curve" smooth="yes"/>
      <point x="691.3679245283018" y="705.0"/>
      <point x="689.4905660377359" y="710.0"/>
      <point x="681.4905660377359" y="710.0" type="curve" smooth="yes"/>
      <point x="649.1603773584906" y="710.0"/>
      <point x="621.8632075471697" y="710.0"/>
      <point x="585.3584905660377" y="710.0" type="curve"/>
      <point x="526.1981132075471" y="610.245283018868"/>
      <point x="465.7924528301887" y="507.561320754717"/>
    </contour>
    <contour>
      <point x="236.8066037735849" y="296.0" type="curve"/>
      <point x="220.50943396226415" y="296.0"/>
      <point x="179.72169811320754" y="296.0"/>
      <point x="155.00471698113208" y="296.0" type="curve" smooth="yes"/>
      <point x="150.00471698113208" y="296.0"/>
      <point x="148.00471698113205" y="295.0"/>
      <point x="143.56603773584905" y="289.0" type="curve" smooth="yes"/>
      <point x="107.80660377358491" y="238.9056603773585"/>
      <point x="-9.099056603773587" y="53.533018867924525"/>
      <point x="-44.73584905660377" y="4.0" type="curve" smooth="yes"/>
      <point x="-49.613207547169814" y="-4.0"/>
      <point x="-47.73584905660377" y="-9.0"/>
      <point x="-39.73584905660377" y="-9.0" type="curve" smooth="yes"/>
      <point x="-7.40566037735849" y="-9.0"/>
      <point x="19.891509433962256" y="-9.0"/>
      <point x="56.39622641509434" y="-9.0" type="curve"/>
      <point x="115.11792452830188" y="90.75471698113208"/>
      <point x="175.9622641509434" y="193.43867924528303"/>
    </contour>
  </outline>
</glyph>
<glyph name="foursuperior" format="2">
  <advance width="600.0"/>
  <unicode hex="2074"/>
  <outline>
    <contour>
      <point x="430.6650943396226" y="363.5801886792453" type="curve"/>
      <point x="433.10377358490564" y="374.89622641509436"/>
      <point x="438.6650943396226" y="394.5801886792453"/>
      <point x="443.6650943396226" y="414.5801886792453" type="curve" smooth="yes"/>
      <point x="487.3490566037736" y="590.0" type="line"/>
      <point x="489.3490566037736" y="597.438679245283"/>
      <point x="486.91037735849056" y="601.0"/>
      <point x="478.91037735849056" y="601.0" type="curve"/>
      <point x="437.5094339622641" y="601.0" type="line"/>
      <point x="423.6509433962264" y="575.5801886792453"/>
      <point x="397.72169811320754" y="524.0"/>
      <point x="395.72169811320754" y="518.0" type="curve" smooth="yes"/>
      <point x="360.47641509433964" y="374.5801886792453" type="line" smooth="yes"/>
      <point x="358.47641509433964" y="366.5801886792453"/>
      <point x="361.47641509433964" y="363.5801886792453"/>
      <point x="368.47641509433964" y="363.5801886792453" type="curve" smooth="yes"/>
      <point x="388.5801886792453" y="363.5801886792453"/>
      <point x="420.6650943396226" y="363.5801886792453"/>
    </contour>
    <contour>
      <point x="500.0" y="443.89622641509436" type="line"/>
      <point x="503.561320754717" y="457.82547169811323"/>
      <point x="508.8066037735849" y="478.9292452830189"/>
      <point x="513.6132075471698" y="498.47169811320754" type="curve" smooth="yes"/>
      <point x="515.6132075471698" y="505.47169811320754"/>
      <point x="512.6132075471698" y="509.47169811320754"/>
      <point x="505.61320754716985" y="509.47169811320754" type="curve"/>
      <point x="394.75" y="509.47169811320754" type="line" smooth="yes"/>
      <point x="346.1179245283019" y="509.47169811320754"/>
      <point x="307.55660377358487" y="505.7877358490566"/>
      <point x="267.6981132075471" y="490.17452830188677" type="curve"/>
      <point x="280.2594339622641" y="473.8584905660377" type="line"/>
      <point x="297.18867924528297" y="540.5754716981131" type="line"/>
      <point x="268.3301886792453" y="487.29716981132077" type="line"/>
      <point x="310.7830188679245" y="535.117924528302"/>
      <point x="439.9481132075472" y="688.0377358490566"/>
      <point x="471.59433962264154" y="725.6132075471698" type="curve"/>
      <point x="474.59433962264154" y="737.6132075471698" type="line"/>
      <point x="451.12264150943395" y="737.6132075471698"/>
      <point x="414.3537735849057" y="737.6132075471698"/>
      <point x="402.10849056603774" y="737.6132075471698" type="curve" smooth="yes"/>
      <point x="397.10849056603774" y="737.6132075471698"/>
      <point x="391.6698113207547" y="736.6132075471698"/>
      <point x="385.6698113207547" y="729.6132075471698" type="curve" smooth="yes"/>
      <point x="369.25" y="709.5094339622642"/>
      <point x="202.43867924528303" y="504.5943396226415"/>
      <point x="201.87735849056605" y="502.5943396226415" type="curve" smooth="yes"/>
      <point x="189.70283018867926" y="454.89622641509436" type="line" smooth="yes"/>
      <point x="188.26415094339623" y="447.89622641509436"/>
      <point x="191.26415094339623" y="443.89622641509436"/>
      <point x="198.26415094339623" y="443.89622641509436" type="curve" smooth="yes"/>
    </contour>
  </outline>
</glyph>
<glyph name="sevensuperior" format="2">
  <advance width="600.0"/>
  <unicode hex="2077"/>
  <outline>
    <contour>
      <point x="275.8254716981132" y="728.9811320754717" type="curve"/>
      <point x="266.8254716981132" y="692.9811320754717"/>
      <point x="250.38679245283018" y="628.6132075471697"/>
      <point x="245.70283018867923" y="609.438679245283" type="curve" smooth="yes"/>
      <point x="243.70283018867923" y="602.438679245283"/>
      <point x="246.70283018867923" y="598.438679245283"/>
      <point x="253.70283018867923" y="598.438679245283" type="curve" smooth="yes"/>
      <point x="270.438679245283" y="598.438679245283"/>
      <point x="300.0849056603774" y="598.438679245283"/>
      <point x="314.01415094339626" y="598.438679245283" type="curve"/>
      <point x="321.3820754716981" y="626.9103773584906"/>
      <point x="332.89150943396226" y="669.683962264151"/>
      <point x="338.3301886792453" y="691.122641509434" type="curve" smooth="yes"/>
      <point x="342.3301886792453" y="706.122641509434"/>
      <point x="321.6132075471698" y="728.9811320754717"/>
    </contour>
    <contour>
      <point x="482.35377358490564" y="678.5471698113208" type="line"/>
      <point x="455.10849056603774" y="655.9858490566038"/>
      <point x="428.6698113207547" y="623.2830188679245"/>
      <point x="380.3679245283019" y="553.0849056603773" type="curve" smooth="yes"/>
      <point x="312.2641509433962" y="453.24528301886795"/>
      <point x="266.08962264150944" y="383.77358490566036"/>
      <point x="264.08962264150944" y="375.77358490566036" type="curve" smooth="yes"/>
      <point x="262.08962264150944" y="368.77358490566036"/>
      <point x="264.08962264150944" y="365.77358490566036"/>
      <point x="271.08962264150944" y="365.77358490566036" type="curve" smooth="yes"/>
      <point x="289.50943396226415" y="365.77358490566036"/>
      <point x="328.4009433962264" y="365.77358490566036"/>
      <point x="346.2594339622641" y="365.77358490566036" type="curve"/>
      <point x="367.433962264151" y="398.561320754717"/>
      <point x="404.04716981132077" y="457.91037735849056"/>
      <point x="442.75" y="517.1745283018868" type="curve" smooth="yes"/>
      <point x="488.6462264150943" y="587.632075471698"/>
      <point x="535.6650943396227" y="664.1415094339623"/>
      <point x="535.6650943396227" y="666.1415094339623" type="curve" smooth="yes"/>
      <point x="549.1556603773585" y="717.9811320754717" type="line" smooth="yes"/>
      <point x="550.5943396226415" y="724.9811320754717"/>
      <point x="547.5943396226415" y="728.9811320754717"/>
      <point x="540.5943396226415" y="728.9811320754717" type="curve"/>
      <point x="528.9103773584906" y="728.9811320754717"/>
      <point x="335.1698113207548" y="728.9811320754717"/>
      <point x="275.8254716981132" y="728.9811320754717" type="curve"/>
      <point x="263.77358490566036" y="680.5283018867925"/>
      <point x="287.0" y="668.2122641509434"/>
      <point x="313.0" y="668.2122641509434" type="curve" smooth="yes"/>
      <point x="352.8632075471698" y="668.2122641509434" type="line" smooth="yes"/>
      <point x="385.8632075471698" y="668.2122641509434"/>
      <point x="439.72169811320754" y="668.2122641509434"/>
      <point x="482.72169811320754" y="668.2122641509434" type="curve"/>
      <point x="463.72169811320754" y="684.2122641509435" type="line"/>
      <point x="452.0377358490566" y="638.7924528301886" type="line"/>
    </contour>
  </outline>
</glyph>
<glyph name="rupee" format="2">
  <advance width="600.0"/>
  <unicode hex="20A8"/>
  <outline>
    <contour>
      <point x="131.0188679245283" y="700.0" type="curve"/>
      <point x="131.0188679245283" y="690.7547169811321"/>
      <point x="131.0188679245283" y="683.6320754716982"/>
      <point x="131.0188679245283" y="673.2641509433962" type="curve" smooth="yes"/>
      <point x="131.0188679245283" y="648.7216981132076"/>
      <point x="154.24528301886792" y="606.7264150943396"/>
      <point x="175.54245283018867" y="606.7264150943396" type="curve" smooth="yes"/>
      <point x="187.1556603773585" y="606.7264150943396"/>
      <point x="219.77358490566039" y="606.7264150943396"/>
      <point x="245.59905660377356" y="606.7264150943396" type="curve" smooth="yes"/>
      <point x="270.10849056603774" y="606.7264150943396"/>
      <point x="289.1792452830189" y="599.9716981132076"/>
      <point x="298.811320754717" y="586.4622641509434" type="curve"/>
      <point x="308.5660377358491" y="572.8301886792453"/>
      <point x="309.75943396226415" y="551.8820754716982"/>
      <point x="303.0047169811321" y="524.0566037735849" type="curve" smooth="yes"/>
      <point x="280.811320754717" y="435.52830188679246" type="line" smooth="yes"/>
      <point x="264.54716981132077" y="369.47169811320754"/>
      <point x="231.8443396226415" y="349.7877358490566"/>
      <point x="176.85849056603774" y="349.7877358490566" type="curve" smooth="yes"/>
      <point x="152.03301886792454" y="349.7877358490566"/>
      <point x="95.92924528301886" y="349.7877358490566"/>
      <point x="76.71698113207546" y="349.7877358490566" type="curve"/>
      <point x="52.61320754716981" y="254.81132075471697" type="line"/>
      <point x="105.13679245283019" y="261.5660377358491" type="line"/>
      <point x="120.08490566037736" y="261.5660377358491"/>
      <point x="170.29716981132077" y="261.5660377358491"/>
      <point x="182.1745283018868" y="261.5660377358491" type="curve" smooth="yes"/>
      <point x="262.877358490566" y="261.5660377358491"/>
      <point x="321.3867924528302" y="290.86320754716985"/>
      <point x="353.1415094339623" y="416.688679245283" type="curve" smooth="yes"/>
      <point x="382.3867924528302" y="533.3537735849056" type="line" smooth="yes"/>
      <point x="407.19339622641513" y="633.1415094339623"/>
      <point x="359.0518867924528" y="700.0"/>
      <point x="265.08962264150944" y="700.0" type="curve" smooth="yes"/>
      <point x="235.8254716981132" y="700.0"/>
      <point x="147.16037735849056" y="700.0"/>
    </contour>
    <contour>
      <point x="222.01415094339623" y="668.7735849056604" type="line"/>
      <point x="131.0188679245283" y="700.0" type="line"/>
      <point x="110.26415094339622" y="618.2971698113207"/>
      <point x="-36.10377358490566" y="33.509433962264154"/>
      <point x="-41.9811320754717" y="11.0" type="curve" smooth="yes"/>
      <point x="-42.9811320754717" y="4.438679245283019"/>
      <point x="-40.41981132075472" y="0.0"/>
      <point x="-33.41981132075472" y="0.0" type="curve" smooth="yes"/>
      <point x="-22.665094339622648" y="0.0"/>
      <point x="31.31132075471698" y="0.0"/>
      <point x="42.627358490566046" y="0.0" type="curve"/>
      <point x="47.25943396226416" y="19.650943396226413"/>
      <point x="61.87264150943397" y="77.7877358490566"/>
      <point x="67.06603773584906" y="98.87735849056604" type="curve" smooth="yes"/>
      <point x="72.69811320754718" y="119.96698113207547"/>
      <point x="147.53773584905662" y="418.64150943396226"/>
      <point x="157.67924528301887" y="458.7688679245283" type="curve" smooth="yes"/>
      <point x="167.82075471698113" y="498.89622641509436"/>
      <point x="188.38207547169813" y="582.8254716981132"/>
      <point x="197.9622641509434" y="621.0235849056604" type="curve"/>
    </contour>
    <contour>
      <point x="341.79245283018867" y="-9.122641509433961" type="curve" smooth="yes"/>
      <point x="448.36792452830184" y="-9.122641509433961"/>
      <point x="517.1037735849056" y="29.10377358490566"/>
      <point x="543.2783018867925" y="134.67924528301887" type="curve" smooth="yes"/>
      <point x="561.8396226415094" y="209.36320754716982"/>
      <point x="546.3490566037735" y="249.43396226415095"/>
      <point x="501.08490566037733" y="292.5235849056604" type="curve" smooth="yes"/>
      <point x="487.3301886792453" y="305.59433962264154" type="line" smooth="yes"/>
      <point x="448.25943396226415" y="341.61320754716985"/>
      <point x="442.3820754716981" y="363.26415094339626"/>
      <point x="453.20754716981133" y="399.54716981132077" type="curve" smooth="yes"/>
      <point x="463.1556603773585" y="432.0754716981132"/>
      <point x="482.7877358490566" y="449.02358490566036"/>
      <point x="525.877358490566" y="449.02358490566036" type="curve" smooth="yes"/>
      <point x="553.3867924528302" y="449.02358490566036"/>
      <point x="568.2122641509434" y="443.8301886792453"/>
      <point x="586.2830188679245" y="433.00471698113205" type="curve"/>
      <point x="602.7735849056603" y="433.00471698113205" type="line"/>
      <point x="605.2122641509434" y="444.3207547169811"/>
      <point x="618.438679245283" y="496.66509433962267"/>
      <point x="621.438679245283" y="507.9811320754717" type="curve" smooth="yes"/>
      <point x="624.0" y="518.7877358490566"/>
      <point x="623.4386792452831" y="522.9103773584906"/>
      <point x="616.1933962264152" y="527.0330188679245" type="curve" smooth="yes"/>
      <point x="603.1226415094341" y="534.7877358490566"/>
      <point x="576.7358490566037" y="542.4198113207547"/>
      <point x="543.8584905660376" y="542.4198113207547" type="curve" smooth="yes"/>
      <point x="454.29716981132077" y="542.4198113207547"/>
      <point x="403.50943396226415" y="496.24528301886795"/>
      <point x="380.45754716981133" y="413.4764150943396" type="curve" smooth="yes"/>
      <point x="359.0188679245283" y="337.91509433962267"/>
      <point x="373.0188679245283" y="290.6698113207547"/>
      <point x="418.6509433962264" y="251.2641509433962" type="curve" smooth="yes"/>
      <point x="435.9669811320755" y="236.438679245283" type="line" smooth="yes"/>
      <point x="467.9150943396226" y="208.7877358490566"/>
      <point x="472.3537735849057" y="183.25943396226415"/>
      <point x="463.28301886792457" y="147.2924528301887" type="curve" smooth="yes"/>
      <point x="452.9669811320755" y="105.46698113207547"/>
      <point x="425.70283018867923" y="85.27358490566039"/>
      <point x="364.2641509433962" y="85.27358490566039" type="curve" smooth="yes"/>
      <point x="300.87735849056605" y="85.27358490566039"/>
      <point x="272.9292452830189" y="109.83490566037737"/>
      <point x="264.7358490566038" y="172.20283018867923" type="curve" smooth="yes"/>
      <point x="257.3490566037736" y="219.62735849056602"/>
      <point x="251.27830188679246" y="267.7169811320755"/>
      <point x="243.45283018867926" y="324.14150943396226" type="curve"/>
      <point x="177.92924528301887" y="313.6132075471698" type="line"/>
      <point x="182.38679245283018" y="241.22641509433961"/>
      <point x="185.65094339622644" y="184.5943396226415"/>
      <point x="188.0377358490566" y="131.66509433962264" type="curve" smooth="yes"/>
      <point x="191.93396226415095" y="30.63207547169811"/>
      <point x="234.70754716981133" y="-9.122641509433961"/>
    </contour>
  </outline>
</glyph>
<glyph name="indianrupee" format="2">
  <advance width="600.0"/>
  <unicode hex="20B9"/>
  <outline>
    <contour>
      <point x="504.85849056603774" y="616.7075471698113" type="line"/>
      <point x="539.3537735849056" y="616.7075471698113"/>
      <point x="627.7358490566037" y="616.7075471698113"/>
      <point x="660.5471698113207" y="616.7075471698113" type="curve"/>
      <point x="663.5471698113207" y="628.0235849056604"/>
      <point x="675.6509433962265" y="677.683962264151"/>
      <point x="678.6509433962265" y="689.0" type="curve" smooth="yes"/>
      <point x="680.6509433962265" y="696.0"/>
      <point x="677.6509433962265" y="700.0"/>
      <point x="670.6509433962265" y="700.0" type="curve"/>
      <point x="611.4575471698114" y="700.0"/>
      <point x="488.2122641509434" y="700.0"/>
      <point x="404.72169811320754" y="700.0" type="curve" smooth="yes"/>
      <point x="321.2311320754717" y="700.0"/>
      <point x="222.12735849056602" y="700.0"/>
      <point x="135.98584905660377" y="700.0" type="curve"/>
      <point x="132.98584905660377" y="689.122641509434"/>
      <point x="118.0754716981132" y="629.1650943396227"/>
      <point x="115.63679245283018" y="618.2877358490566" type="curve" smooth="yes"/>
      <point x="113.63679245283018" y="612.1650943396227"/>
      <point x="116.19811320754717" y="607.2877358490566"/>
      <point x="123.63679245283018" y="607.2877358490566" type="curve" smooth="yes"/>
      <point x="169.29245283018867" y="607.2877358490566"/>
      <point x="324.1745283018868" y="607.2877358490566"/>
      <point x="379.9339622641509" y="607.2877358490566" type="curve" smooth="yes"/>
      <point x="418.9528301886793" y="607.2877358490566"/>
      <point x="442.97169811320754" y="599.5330188679245"/>
      <point x="456.2358490566038" y="584.5849056603773" type="curve"/>
      <point x="472.1320754716981" y="567.4433962264151"/>
      <point x="474.4481132075472" y="540.9150943396227"/>
      <point x="465.5" y="505.316037735849" type="curve" smooth="yes"/>
      <point x="446.0801886792453" y="429.3207547169811" type="line" smooth="yes"/>
      <point x="429.8160377358491" y="363.7028301886793"/>
      <point x="389.2169811320755" y="337.43867924528297"/>
      <point x="318.8443396226415" y="337.43867924528297" type="curve" smooth="yes"/>
      <point x="247.74056603773585" y="337.43867924528297"/>
      <point x="105.8632075471698" y="337.43867924528297"/>
      <point x="45.424528301886795" y="337.43867924528297" type="curve"/>
      <point x="42.424528301886795" y="326.561320754717"/>
      <point x="28.198113207547166" y="271.0943396226415"/>
      <point x="25.759433962264147" y="259.65566037735846" type="curve" smooth="yes"/>
      <point x="23.759433962264147" y="252.53301886792454"/>
      <point x="26.759433962264147" y="248.0943396226415"/>
      <point x="34.32075471698112" y="248.0943396226415" type="curve" smooth="yes"/>
      <point x="68.18396226415095" y="248.0943396226415"/>
      <point x="272.61320754716985" y="248.0943396226415"/>
      <point x="308.16037735849056" y="248.0943396226415" type="curve" smooth="yes"/>
      <point x="434.4056603773585" y="248.0943396226415"/>
      <point x="526.4575471698113" y="312.0047169811321"/>
      <point x="556.5801886792452" y="432.05660377358487" type="curve" smooth="yes"/>
      <point x="571.5094339622641" y="489.6509433962264" type="line" smooth="yes"/>
      <point x="587.8962264150942" y="554.4433962264151"/>
      <point x="570.9481132075472" y="592.3396226415094"/>
      <point x="513.9999999999999" y="616.6037735849056" type="curve"/>
      <point x="535.9481132075473" y="580.7452830188679" type="line"/>
      <point x="554.6320754716982" y="647.7075471698113" type="line"/>
    </contour>
    <contour>
      <point x="381.3301886792453" y="316.2452830188679" type="curve"/>
      <point x="278.0047169811321" y="281.6179245283019" type="line"/>
      <point x="296.1981132075472" y="210.91509433962264"/>
      <point x="314.95283018867923" y="139.6509433962264"/>
      <point x="334.2688679245283" y="68.94811320754717" type="curve" smooth="yes"/>
      <point x="347.70754716981133" y="19.07075471698113"/>
      <point x="371.02358490566036" y="0.0"/>
      <point x="427.12735849056605" y="0.0" type="curve" smooth="yes"/>
      <point x="443.9858490566038" y="0.0"/>
      <point x="461.65094339622647" y="0.0"/>
      <point x="470.6509433962264" y="0.0" type="curve" smooth="yes"/>
      <point x="477.6509433962264" y="0.0"/>
      <point x="482.6509433962264" y="4.0"/>
      <point x="484.6509433962264" y="11.0" type="curve" smooth="yes"/>
      <point x="487.6509433962264" y="22.316037735849058"/>
      <point x="502.438679245283" y="81.7122641509434"/>
      <point x="505.438679245283" y="93.02830188679246" type="curve"/>
      <point x="489.82547169811323" y="93.02830188679246" type="line"/>
      <point x="484.8254716981132" y="93.02830188679246"/>
      <point x="478.3160377358491" y="93.02830188679246"/>
      <point x="471.561320754717" y="93.02830188679246" type="curve" smooth="yes"/>
      <point x="451.85849056603774" y="93.02830188679246"/>
      <point x="442.3490566037736" y="99.09905660377359"/>
      <point x="436.1556603773585" y="121.87264150943396" type="curve" smooth="yes"/>
      <point x="417.27830188679246" y="188.01415094339623"/>
      <point x="400.20754716981133" y="249.5424528301887"/>
    </contour>
    <contour>
      <point x="89.8632075471698" y="513.8254716981131" type="line"/>
      <point x="86.8632075471698" y="502.50943396226415"/>
      <point x="74.8820754716981" y="453.7783018867924"/>
      <point x="71.8820754716981" y="442.4622641509434" type="curve" smooth="yes"/>
      <point x="69.8820754716981" y="435.4622641509434"/>
      <point x="72.8820754716981" y="431.4622641509434"/>
      <point x="79.8820754716981" y="431.4622641509434" type="curve" smooth="yes"/>
      <point x="616.1792452830189" y="431.4622641509434" type="line"/>
      <point x="619.1792452830189" y="442.7783018867924"/>
      <point x="631.7216981132076" y="491.50943396226415"/>
      <point x="634.1603773584906" y="502.82547169811323" type="curve" smooth="yes"/>
      <point x="636.1603773584906" y="509.82547169811323"/>
      <point x="633.1603773584906" y="513.8254716981131"/>
      <point x="626.1603773584906" y="513.8254716981131" type="curve"/>
    </contour>
  </outline>
</glyph>
